<mxfile host="app.diagrams.net" agent="Mozilla/5.0 (Windows NT 10.0; Win64; x64) AppleWebKit/537.36 (KHTML, like Gecko) Chrome/131.0.0.0 Safari/537.36 Edg/131.0.0.0" version="26.0.9">
  <diagram id="PIMqSjkM_rXAYxAD521C" name="PÃ¡gina-1">
    <mxGraphModel dx="896" dy="575" grid="1" gridSize="10" guides="1" tooltips="1" connect="1" arrows="1" fold="1" page="1" pageScale="1" pageWidth="827" pageHeight="1169" math="0" shadow="0">
      <root>
        <mxCell id="0" />
        <mxCell id="1" parent="0" />
        <mxCell id="nkKxCPhpaLayalUOVt3N-1" value="" style="shape=image;verticalLabelPosition=bottom;labelBackgroundColor=default;verticalAlign=top;aspect=fixed;imageAspect=0;image=data:image/jpeg,/9j/4AAQSkZJRgABAQEASABIAAD/4gIoSUNDX1BST0ZJTEUAAQEAAAIYAAAAAAIQAABtbnRyUkdCIFhZWiAAAAAAAAAAAAAAAABhY3NwAAAAAAAAAAAAAAAAAAAAAAAAAAAAAAAAAAAAAQAA9tYAAQAAAADTLQAAAAAAAAAAAAAAAAAAAAAAAAAAAAAAAAAAAAAAAAAAAAAAAAAAAAAAAAAAAAAAAAAAAAlkZXNjAAAA8AAAAHRyWFlaAAABZAAAABRnWFlaAAABeAAAABRiWFlaAAABjAAAABRyVFJDAAABoAAAAChnVFJDAAABoAAAAChiVFJDAAABoAAAACh3dHB0AAAByAAAABRjcHJ0AAAB3AAAADxtbHVjAAAAAAAAAAEAAAAMZW5VUwAAAFgAAAAcAHMAUgBHAEIAAAAAAAAAAAAAAAAAAAAAAAAAAAAAAAAAAAAAAAAAAAAAAAAAAAAAAAAAAAAAAAAAAAAAAAAAAAAAAAAAAAAAAAAAAAAAAAAAAAAAAAAAAFhZWiAAAAAAAABvogAAOPUAAAOQWFlaIAAAAAAAAGKZAAC3hQAAGNpYWVogAAAAAAAAJKAAAA+EAAC2z3BhcmEAAAAAAAQAAAACZmYAAPKnAAANWQAAE9AAAApbAAAAAAAAAABYWVogAAAAAAAA9tYAAQAAAADTLW1sdWMAAAAAAAAAAQAAAAxlblVTAAAAIAAAABwARwBvAG8AZwBsAGUAIABJAG4AYwAuACAAMgAwADEANv/bAEMABAMDBAMDBAQDBAUEBAUGCgcGBgYGDQkKCAoPDRAQDw0PDhETGBQREhcSDg8VHBUXGRkbGxsQFB0fHRofGBobGv/bAEMBBAUFBgUGDAcHDBoRDxEaGhoaGhoaGhoaGhoaGhoaGhoaGhoaGhoaGhoaGhoaGhoaGhoaGhoaGhoaGhoaGhoaGv/CABEIA4QDRQMBIgACEQEDEQH/xAAcAAEAAgMBAQEAAAAAAAAAAAAABwgEBQYDAgH/xAAUAQEAAAAAAAAAAAAAAAAAAAAA/9oADAMBAAIQAxAAAAGfgAAAAAAAAAAAAAAAAAAAAAAAAAAAAAAAAAAAAAAAAAAAAAAAAAAAAAAAAAAAAAAAAAAAAAAAAAAAAAAAAAAAAAAAAAAAAAAAAAAAAAAAAAAAAAAAAAAAAAAAAAAAAAAAAAAAAAAAAAAAAAAAAAAAAAAAAAAAAAAAAAAAAAAAAAAAAAAAAAAAAAAAAAAAAAAAAAAAAAAAAAAAAAAAAAAAAAAAAAAAAAAAAAAAAAAAAAAAAAAAAAAAAAAAAAAAAAAAAAAAAAAAAAAAAAAAAAAAAAAAAAAAAAAAAAAAAAAAAAAAAAAAAAAAAAAAAAAAAAAAAAAAAAAAAAAAAAAAAAAAAAAAAAAAAAAAAAAAAAAAAAAAAAAAAAAAAAAAAAAAAAAAAAAAAAAAAAAAAAAAAAAAAAAAAAAAAAAAAAAAAAAAAAAAAAAAAAAAAAAAAAAAAAAAAAAAAAAAAAAAAAAAAAAAAAAAAAAAAAAAAAAAAAAAAAAAAAAAADiDt/ys0bFzMOkv4XxzaD98W6cH3gAAAPk+kQQYW+19J/kvdsKCdOXUV8mM6AAAAAAAAAAAAAAAAAAAAAAAAAAAAAAAAAAAAAAA+D75WOa9kgRv8/Z8O37wgxY3AIBSFwB92RrR6l+UcSOAAeVZt1AoMsxErdgV5WK5whjI3vNE3T7RTeF4kdSKAAAAAAAAAAAAAAAAAAAAAAAAAAAAAAAAAAADXHpWXT8APbqrNkLzl1IAAcB34o9orrU7NhdOhVlyZwOS62rRFni7Y9bR7LOAAPjgJCFQ49v7FJV2wkF6ov7+1xsWfYAAAAAAAAAAAAAAAAAAAAAAAAAAAAAAAAB8mJUrdxSfkxb6fjFygAAAAQ5MfkUG7TE5gv3+850ZqaP2VrEe9zYPs0AAAAAaCrNxcEofOHNxmX+QrNQAAAAAAAAAAAAAAAAAAAAAAAAAAAAAAAAhmVaTGrsFz1nD9AAAAAABBtc7vUkLKzNWGzpVyJuh+y03Z/P0AAAAAAY9U7aYBRm4tYNsW5AAAAAAAAAAAAAAAAAAAAAAAAAAAPI9XHcsS0g7BJ/V1wCzOtq3wpIvKcxa4kTLAAAAAAAD8pVdasBydu6P25KdzHDNniYAH5+gAAAA/D9BydNr61zNpOVB92XjVT25ZVXjMJ7QnuiUnN9GfoAAAAAAAAAAAAAAAAAAAAGFq6mkqQ3pAdnJRAS0+3Kgrm5ZSjd3O2RB85AAAAAAAAAg6cYxKn2YrPM5DFzKbXsM8Hl66fcAAAADy9dQbcDCzRWaKb3+RQZeTXlK1yteVFWe5Qg7rJM1x28t0g7ctWxcoAAAAAAAAAAAAAAAAAAa/YV1I15V0h8WX6nen5+gAAAAAAAayJya1bugJxavaAADjey0ZR3v+B6I1t7KUXYAOS62OpFAAAAHJdbHRIoAAAAAAMSuVmPgq/aKrksklgAAAAAAAAAAAAAAAAA1dIrF1nPS4EHWrAAAAAAAAHAbum576btLFFQV7eDK1W6qJ0RcF+foMQy8DR82VTy8b5OyuTUC358/Wv2BEspaqNCaAAAAanieSm4ywPz9wDPAAAAABqqvW2rcWQ/eX6gAAAAAAAAAAAAAAAAH4VSi/c4paqRfD3AAAAAAABrStPJc7aEkbYABHtRL90fJG0sbjotH4h9fOwMD8+vk7u4dRrcnH9hFcqCvVhcE5zsajTmSMAfJ9RvrYtO+m7y9QDU+PHSIZIAAAAAEcyNpyKJvqxacAAAAAAAAAAAAAAAAanbcUU4kCPZrLJgAAAAAAAR/IEalS730RvuewAFLLjUYO07aZOmIb6Xvxptr6eZQvx9vElG1tWLTkETnF3oSiDU1dtx8lQO5kvhjUx/LUgkGWXzQANIRBPVdLFgAAAAADz9MYpvdGh97j6AAAAAAAAAAAAAAAAjKTYmKtWJrtZgmZyXNEpIH5ks980+5supoqZdGXaAAAA5XqvgoLcKtWeXBYGeCNjmoh5y1RIn6ADz9PMoX8/X6SxZ+stmjDqPcSAicsustmD6AAAAArBIURk/90AAAAAADmuliArHeuiN5DdAAAAAAAAAAAAAAAAQ5McNFZv38AzDDdj0xFCfemKudJ6eZdoAAAAHBVJvnxxVCQfjmDM4WVJqOInAAAHn6eJQ318sslmylb7IDEyxSyQpqqCXf9qeWJO6AAOeOhiSO4nMy4HLymAAAAAAAKkzzUE+LtUluwdMAAAAAAAAAAAAAAABD0wxOVZsNXm1Z2u7+wABTTAz8EuyAAAAAAAAAABj5GMUP2Ot3BKtja7WJGFqYKLH6HofYpjx994fIV7rjeOJ4w4PHf8NvZXIcs52u2AAAMHju/Fe91NUfkgIAmI3p5HrpOLriffNgu5SO8puQAAAAAAAAAAAAAAAOJ7bzKC2UhXfFtgADQlUcLy1ZfJWCbjsQAAAADGMl8/QAAAxMvCKJb/n+mJNsRXidyt9gK4WvAAGJljQZuyAAAAABhZB6g5SpN4Y6Kw4WCAANjeettmAAAAAAAAAAAAAAAAACO6m32iQ2MlUatGSEYZydTsrdHIdBbrdFB/a39QS4PYVFksm9WjmC3utpbqC4XMViE7cxGA6fRYv2XzyMbJAAAGBn60or1/Idud923D/Ztpw4XugAAAAAAAABwvdfBjZkMTMfoKpRdb2oQA3i2Rtt0AAAAAAAAAAAAAAAAAAHH1wt/jlfN3x3CGhurUe7oAqxaeqxFRmGG7PpyJVgunKretzekKYdPbAUG+fXyL55GPkAAADVbXTFG+74ORTrua6DkS12wAAAAAAAAAADhtbJVbCygFFL11ZInknPtKabdAAAAAAAAAAAAAAAAAAAI4NzAeitYaSKbGRuVVvFRGTy17idMdjS7c+BLVgNfswAAAfhQry9fMvn7+HuAAANDvuaKTSfGEtGfy3Rc6W+AAAAAAAAAAArLZqvhO2bxnZivFh6/kHSpH1ojqNpTS1J0QAAAAAAAAAAAAAAAABrzmKqes7EhdKD5+hWqF7+8OU5WZ6ErnabpPYAAAAfn7+FCvP78y+nvX/mS03lTXmi53L1Q/Cw/LRCO15jBCZoZnM0umzcIt8AAAAAAAAAABXqwtWyZe/5DrxXCx9SjQ3Tqpasiuvt1qslktpVO1Z+gAAAAAAAAAAAAAAAV7nmkBmXXr9YgAAAAAAAAAfn7+FCfD28QAA7TtSFlkeqKiZt1+fKdzxA9hCOfrU7Yt8AAAA1NdCauO+phOD6vbAAAAD4pVZGGS0mSHhRmztWixc1afcDlupFBbaV/wBgW2AAAAAAAAAAAAAAABGNT50gsttJHPdCAAAAAAAAAPz9FR+mskIV6qQBVWK5fiAt9IEfyAAI+kGOSo9ka3WgK6dXwkiltGv2AAA0W3qAedj9LKgAAAAA8PuthxtjoqsgPP0hIibto4uMbEAFeIOsxWEvXs4zkwAAAAAAAAAAAAAAAqhGEgR+Xt2Op2wAAAPM8oN4aNTsPPncwl6eKJ9mXLYWaAAAAVgiCX4gLfSBH8gACMpNioqta+qNtCpk0QrZk6vuoPnAAH4QvGnOWRJGAA8Pf8Pz65nmySkP4RNulrxqDN2ElSgeXtqoROwr5Ic/Gu6YAAIvqjaqqpY6cIAn8AAAAAAAAAAAAAAAqNHUtRKXN7Gl+yLfKgi3yoIt8qCLfRNDXOmhkWOrqm3z/sQpW2/tOSTp4p1cUAAAArBEEvxAW+kCP5AAESS3DxWq21T7clOLpUtu2VztfV+wB0AHMdPFxV69lObmAAAAGHrN+MPMBj5A4vp80AAAAQfXGWInLBz3DMzAAAAAAAAAAAAAAAEFV2urS0+CYiHVnhWFZ4VhWeFYVnopI3vxQe3hIQFXLO0sPy7VR7cAAAAFYIgl+IC30gUBF/lARf6Fq1Da29qNb4pRdSldyjYwVZjCPf2xskRDL0YkHW/pfdAAAAAAAAAAAAa7Y16IW17elqu38vUAAAAAAAAAAAAAAAVNtlyxSrfa/BLx7ul9sjfAAcJ3YoJv5egItnuqXiWYmCw08QBP4AAABBEcW+FQVvhUFb4VB0V26/kR29qXb4otcSndvSQQAOf6AUKvXT6eiUQAAAAAAAAACPz5qVla4WKiS4plAAAAAAAAAAAAAAAAAi2rV94wKobjw1xayUaBSQW2cH3Z+gcD3wrf52UFJ+ZkCPyf5/gCfwAAAAAABXWxVbDiLe1Ht4UKtlU+1BKgAAImhW4FUC1/3Cs1AAAAAAAA8T2x4vgMluAfAN1nWuPrpgAAAAAAAAAAAAAAAAAA5it9t/woEtnBRwPY8h8liZMpV+l+vujfYFtHIdeVBj+QI/J/n+AJ/AAAAAAAFZbNVaNTbWqlryhdm62WIJmAAA1uyFQprkeAixCv85GcAAAAiiFy3HG1K15OkUaIGRKRFcyzL1xr9gAAAAAAAAAAAAAAAAAAAAD8/RycUWDFMuSv1qCjC28TktSLGslFQY/kCPyf5/qjJxMCHxMCHxMCHxMCHxMCHxMCHxMCHxMFUJPhE6O1VXrRFFp5g6aidwAAAAaGPpfEfdNux5+gAAV6gadNqV2yrcdgVOk6bxptyAAAAAAAAAAAAAAAAAAAAAAAAACHJjh8+5dgOfCoMfzfyBH6QBH6QBH6QBH6QBH6QBH6QBH6QBH6QBH6QONJZsvXCx5SmU40kEsaD5+tFvQAAAAAD5+tFvQCsk7VqsydCAAAAAAAAAAAAAAAAAAAAAAAAAAABF8ocQQbami94j2AAAAAAAAApVdWjxLdhoFnop12HN7ctECKpU4/iSZwAAAAOd20AEq9t5+g+PvjypF1qP3tPQAAAAAAAAAAAAAAAAAAAAAAAAAAADWbMUFtbXjLLkvH2AAAAAAAAFFLz0RLAzjC00lTvX1wS2oEOTGK7z1xcEFuVcJAJPcpkHRuK5EmPkq/7IwbC5m4AFdJspedFc2tVlQAAAAAAAAAAAAAAAAAAAAAAAAAAAACu0FXXpcTNY6gsiFukb9qbNgaI6xFGnJvQdviU2s2YAABjUPvVRAtFLkWSmVk5fseFLmAAfn6OH4CdxWTzn3gjjeuwfYlDdxl1R0bCwTd66M4ENrwjoyyEl+PsAAAAAAAAAAAAAAAAAAAAAAAAAAAAAK32QxShaSI3H18j7+AAAzrB1uF/f2C50AANLRu7FJy2sk8H3hXiLpchgvGAAeR41w1MYnr5AA/fwenx+AfR+Wq5GwIAAAAAAAAAAAAAAAAAAAAAAAAAAAAAAB4w3NQpty18vgoh0Fz/sqxu7GCvevsoKacdfvgCo9r626kvigXqiUELyKYNMrgU/LldpzHTkGwJYet5fT68OLO7Q1tSUK+aiHT59+7syVo62xor1h2RFTuTu6KFZN6PoqVNslAAAAAAAAAAAAAAAAAAAAAAAAAAAAAAAAAAAAAADQU9vDwpTtk4w3ekFp6sSfGJeHea7YkSVftXVEt1UuSYwAEjc7cUzcgAAAAAAAAAAAAAAAAAAAAAAAAAAAAAAAAAAAAAAAAAAAAIxrVePzKFbO7eUUZ1lwqnl4Mjz9CPKiXFrGYWPdLalB+xt/knM9QAAAAAAAAAAAAAAAAAAAAAAAAAAAAAAAAAAAAAAAAAAAAAAACvtguJO1/Q5Tku3yzbAAAAAAAAAAAAAAAAAAAAAAAAAAAAAAAAAAAAAAAAAAAAAAAAAAYeZzx0IMTK0e5PQAAAAAAAAAAAAAAAAAAAAAAAAAAAAAAAAAAAAAAAAAAAAAAAAADj+w4s7QHNbjXe5twAAAAAAAAAAAAAAAAAAAAAAAAAAAAAAAAAAAAAAAAAAAAAAAAAOP7DmzpAYWp6DQHRAAAAAAAAAAAAAAAAAAAAAAAAAAAAAAAAAAAAAAAAAAAAAAAAAAa/YABr9gAAAAAAAAAAAAAAAAAAAAAAAAAAAAAAAAAAAAAAAAAAAAAAAAAAAAAAAAAAAAAAAAAAAAAAAAAAAAAAAAAAAAAAAAAAAAAAAAAAAAAAAAAAAAAAAAAAAAAAAAAAAAAAAAAAAAAAAAAAAAAAAAAAAAAAAAAAAAAAAAAAAAAAAAAAAAAAAAAAAAAAAAAAAAAAAAAAAAAAAAAAAAAAAAAAAAAAAAAAAAAAAAAAAAAAAAAAAAAAAAAAAAAAAAAAAAAAAAAAAAAAAAAAAAAAAAAAAAAAAAAAAAAAAAAAAAAAAAAAAAAAAAAAAAAAAAAAAAAAAAAAAAAAAAAAAAAAAAAAAAAAAAAAAAAAAAAAAAAAAAAAAAAAAAAAAAAAAAAAAAAAAAAAAAAAAAAAAAP/8QANhAAAQMDAQUFBgYDAQEAAAAABQMEBgABAgcQERIgMBMUFUBQFhclMzZgISMkMTI1IiY0oEH/2gAIAQEAAQUC/wDccqUZI3seF5XRcouLdVYg0bV4+L3pPWzj7UKSoaKuQ1Cer3dFXr7LZgpkncbMSY64OUszXRvfdRydNmFyEjJEr3vv2WvuplIiY+43UXK1DTLIth9nFzzIKmamT4rW/fz4Z5JZxOXeIX5s8rYYyiYZkMudJXNDMJPlkKZPm5FD7KvfdaRTnBvSy6jlWrWvldjFCr+m2nC+VY6bt9y+m99xCGlWFr24b1jlfDKJSDxlnyzmRXvnsQbquVGcBJubJabJ7s9NkKc6dPsKegiA/aNKuhK8fljU1b7IcOE2qMlmCpXKsMMlMg8BdO6HR8eLtynoq0NYExbgS5oMTzEEEFsHCO2RFrBhaimSudR+MuDqgsO0EI8l7WysUh40nYzEH4nZhnknlF5p232O8eIsW8jkqx1agsddm1QsbZBMOgbDIG2b1msPc1p+V7wy2zwr30nUbAqHXzZskzR6B6EtiVPh7gavUUmF217X32+w3C6bVGSSNU65qMwzMhSCCbZLpTsH3xpUWIeGm9hF3iwYrK5LqpJZLKAA+AUd0iglqXbn425BK1DpXdDL7C37qmMk8VcVFIb1c8cVMJAMuJKftQJ74gIrUJ72IuoCJ70+6jhum6Qk8VUC51CpL3xP7BnR/uaFQ6J7rdbUQdxtq07d9qNrUB325mouP8NDdVVLBdKVRjMIsitm3VjpnE2O9feu02LR+8UIPIZGvEVeuaZ2IC723X08c9mWo6472XAsu/l7W3W6ztqk9byAIqDfQ8x4UW9edvW7FKVyq5q4IRmaIt26bVHyEhadxMxVfu598tZuzyyvlfTtp2hLyEgDJmx6yObdWLzNPsk1MVcPVMs8cLOpQJaXV1BF4VlqQ2tfLUmstSV6U1Ff5U4nBhxZw7Xd51Cg3hgzyOobbsi7NXsHcqX7KOVp427MR5HUAL2S9Myz0fSM+LJ1hqM9tbHUlWsNScaT1HaXpGeiVaZnRz6v39LcukWaJjUH/J6WekMudmIfP7x+C91U8lqQhva1LXfHEaiqHdwGxPLjw6WeXDba5bpukDMCdN8nDNw0y5rX3UOkpIZcLOmr6rXtlb0cuXbhmpo87Nr7B0XJk7NdN73sjp+LwrCGBsKxiofGsY8LwpMc0Rr9vKTxHtQFSFxxw/G2+7JLsGmwWp2o7pEVOzR5csMc7KCWKtZxsTnWUTDZ0pCQ2dLadjs6X03Xtlhppnuc6cvU7EBL0XnG5csJzQXTcpeiu3STJucMrG3tChDow4CRBiJt5uVJ9rH6Kq8UbYJ9q92x9T9J0iinE/6y7dJylJ4ZdhaGyO41x6LqAZuorQYQsaeixbcQ18i8fN2CT3UVqllfUh3vZajIZ3ZP2xFHmMJ9qJp4rxCo9h2hzawU7nKek3V7/Luve2+0zjnhbiGGfFBnoZB3iwZOXGbtxjjfK8XCWCjvIyOSogkiBNyUX2jCjkS5CGUTjLle24meX8lM97eJ48ch2y/jHOUlMV0ugRe4DmULQzsM27+qQYpEmYFyrHZJ6HqG/wCxHVBhPiBTyJssmGYPHar9yDjjo6oNhwsfj3FrwloUOIYExjgS6iZi4krtUcIo0vJRLelZsJzpT+f/AMhm72jpop2qVF2GJQdBy9+DoS19mYJt0MGqG1kp2zPq6hj+wex994iI9CnbzvJyoWP7iD8jOi3fioEQobINGiLFvtlwbEqL/asdQXqbdecGVqXOknNZKZZ7LX3X2Q63FJaArcdtk0GqjCEfPInGfNKpJgFbQQNlhjtJOe6Dw2PAI6s3ad6j+nLzjZ+hFXN3ZJmhd07STsil5B85szZqqZLKQQZZmI5L232MN+6FOVFk5cV+2yD475JQlbu0t2OmyTxu/ZvoeVAy5oYx2/tUgmrcfjHgjiTEMMMU8ds5d9gEQT7FHqlUe8DNP3PZG/QSavYD7331C23eJD5GZrdjHaZIWbM+WS5WzPC4kRLt0NNl70hpyPwpCGBUKRFMW1ZfwV+ZUAtvkFSlW4eUY5Wzx2EBzcm2OxJ4HyHS8qOslqUray2pLi9iMmKFaj8LcEbtmyTNHkPOPFpf1sseLGMrdgd9BlinZx6tOEeIh5GdY8UdpPOyqfI6cYtWzhW7hePtO4huTP8Agr8ytPbbz1T1j3oLCDHiAvbu30RiAojdXTVK9I6bIWuNjAwXflKkMBTCBt1HxbrLZ9mi0z7N1b8fQZ4pwR+tNk9zblvfdSxBo3rGTCs3HRkbXvgSokRsQCck+N2RbxgZcqX5c/4K/Mv+2nVvjlOUMHTdg7Wix5BdN0j1Jwe7+7iYzwsN1pA47qEtfhuyy7Rn6BqFf4FUBUSbhF5MJb0vPhCdL6kp2pfUQjnS8wMr0sTeuK/eo/8A3vRvbfaRi8hJWMH8gb1q6ReI7JFLG4fBddV64iIHwZhy5/wV+Zlb/DTi3xfZqCG31DJN4fn+/TmMmsNRiIa5cr19QnvYiaEX4hXoGov9T0Y//e9KTgMTjJduo1VHF3orPDUMlji+mRV9jbjVziUQu0y5s/4K/Mzt+Tpvb4lscIJukD4ZQI/isx7pbDPFTDoSeYJjbJ4LknYAPgEH9eaE/ETNAb7wvoGo39XtRaruLoxYw4pHT4spSGmt6Q09Fp1IGiTExH/73pmo4zN4voARb5eyZney0/JL3DRZgG6Cvy1PmK2/S6bf9202GRNsiQ1cU6Byh6EuJlY4tblImWIrA7OXD+2GGaykSjFg6fXlRuwYbe++9R7+k9A1Ft8IqIRwYQEoBRzarWtjbkln1FH/AO98ut8lT+a9v0Wm3/XsXdINMUlk18DAVqbbmo88BqUxkhQdSGoz7CveXeldSXV6ezEw8tnnkpkwHOSa8biaAbHmcN7OcHMZyVp8FlA28Yl2blXlJk24lqZLrGnuwFbhDegahY/Aq0/v/r/NLPqKPf3vl3HyM/5ubfDtNf8Aoo0WTDMAA1eWEk08UsKUTwWwLaftnN30VKj6yxvhfYyBEX9xeneV6Yjmw1HpSKMIHEWcnexxyxLsiWFZ54p4l5sPHWKl3RlxtE24RfoEsad8A1p054x/NK/qKPf3vl3P/Nl/J3b4Xpr/ANFTgjmRMBh2IkdyqtkV6uEGXukwaodc2EbnWhEc5DvMDBFOyzxw55WSF3TxPCyafoGWNs8ZAMyElIWT8OMcpIs0EomnuBIo3Xzars9QSKWQWRsjmHTzXTStv39F3/y5fyfW+D6afOfOcWTSHNcikj8mqp2Nsc8VMdsrjuJtlzQAVdw+9ClkfsaZ545oqRKQ4l2e2RyFIC2fP3BFwigq5zvHC2OCieSWTdyq0WjprE2O2/tSxBq3peXh0KX1EHYUvqQrel54XWpeQlHNZK5q5ofI6D38Gd/3I23AtNPnzx33YDpw04WflH/bBcmzlN2htnAjw8tyDBq5Z4LHJCmXocqiWJSyKroS9jsobm0qdOMGrcwTULv43HlTzkeLai0aOx5sabumyjNxEj2AN4vqQ2xpfUZ9nS8zMr0sVfOavffzY/yQ+R0CH/Df9ydv9d01/wCjUlx+bEG/do95S9rZWSWvEje2ZDvEQW0YLclnAEAgCbeimY6yNplYyRBqA57mjaanEVwuON88gYzESM2z9viic58MMlLoR4o5pCBmFqzx4Msf5IfJ6BL+uor9N6a/9c8W7WQsUe7svKysVYoHhhi5QXtfNu5PaAxF2YyHjWwpv6OrngmnJXIR4qSEuRNA8LKGOSfObLnaRaruLoRUw4pDT0qpSGmuNIQAQlTeNCG1JIpo22L/ADsf5IfJ6BW+4ZRfH/WNNr/rjH6yX+XF5+z8126gtrInIk5C4PvSDUgaA0c3RabPAcaZhMNSEsu+NV7tnLN1g9bbC5NISxduc3jnT8Pgpja1sbdBf52P8kPk9A1fcIo1j/qum9/ibH9RMvLz9O7Y41Xs5a7NSsNy7ZDN04Eyt8BWYvkCLf0WTShIGmNHPZSSGjW4ptU1F3JCKjMsUC0hLA6+BCci2mJk46NuBAtYw9Ys0h7TorfOx/kj8roH77gtHsd0S05v8ZjH5sr8vqXj+ZFFO1j2zUy/4gv7uRxtE43YEX8XIiC7cy09Dkp/AEyTTdGyIUQiFZbL231K4io2V2ho88NKhAbcG26S3zsf5JfK2ZqYp2XkAttS88EI041JStTjUMkpTiWGHFLO13GyRY7ofp7luPQz/KT+X1Lz/NhX0zs1JU3vo0jdc9UxjlirYKYXBvWD1Ei19BeOk2TYwVVMPoEE7s05SMUFkr+7lhxNYUIa5YYYp49NX5tvwurqPbHFfUEqrS8nLuKUcKrX55Lj/pkDy4ZFDP8AGT+X1Ccdqbi6XYx/ZOXPeJDAW3bn9k4CeHP4YfuLe+g6hGN+YYfcoSTTxST8or83pYtVs06k9v8AS4ZnwSWMflSvpFJUNFUlJDRu6AYotTVjg06N72xsRXyMm0ErII0qpikm+c5PXmnTLsmOyQDLFhV7XwyhxjxUX59wvi2QfO837zTljxLeVV+ZyjosUKIoacvs6b6btMabwkKhSAli1qYX3R2pTj/psaU7I8x/TzLoPyDcY3KSsgeXAwVBrWONsMelMyvhoeCju+mdk5J9xDIo5uFRjLEaw2yxj3A7CiXcDfn5097oCqDtu7gPKpwsy5zQ04eZU304ZY0hCwqFTto3ZFqhP0zyTS+6O1LMf9PGqdkRMfo5fzlCjcQ0fP38pJR6OIAm/TUUxRTkZnI6TigbwcVV8rY2lJnxkrAQvbuOTUhruWwzunmPdd9Zee1Ic73NA0ewD+Z1G/u6hP0zyTj6dqYYbolh/OcYcJ1it3hly554p4SU7mcfQ2PWFtOnfK2NphKu/wB4TG7uFNk4kdm6QQOqafM2qTFtyaiI8YioI57ePeenqvHIaYf8PRWWTbpGNQuHJxKDDnJKSl0bitQ1sMmjxF+h0tRv7uoT9M8k7vuj1TLH/VbfvPEPyYg47zHuWfmO7NYYHsUKcuSlk6tffykCbUWjIpiuWqMQ1R/lhhilhUoliYnAaLeyB6GCtwjTln30/Wmyu9n56a/U1Dc+Md0MsrYYyqS5mXFIt1XGS4162xqPn1gTts4TdodHUb+7qE/TPJqBfcBtapnb/VqlLXvcQ04d8TPlPkLlC8KHdwB8zgcrjSxouOr3iD8bq6kNLU8npR5TaNmzaoWFMhl6ekGw5MrNXJDMTAnTvJkxbjkObUDPcBrTTz83x3SWouv24HoTwrdkLqLRvI84ZsW7BG9uK0phyS6NaeFb54dHUb+7qE/TPJqHf4KjberL8d8Zpo3s/jsOdZC5HySF13IK1Ru5cpp2ST6CrVBxXggzek1Qb7VE7K43iwnJZBqg1w6GpC+5nWmmP+HntQkezOUxkpQY39tTte2p2vbU7Xtqdr21O17ana9tTte2p2iJd4XUqPMLDQ+2WMLDzsRcXbSHo6jf3dQn6Z5NRb/CGdt7uVY745QG+8NOB2Y4wGI4lh22fKcEfiqfayHzM/e95MVpyjwivPajtN6HUSyxzT26h5WudAWvc50dRv7uoT9M8mo9/ho228jJrbwFRu/ECNCUzLAASXiZJNTFXDZqLv8ABIV9TeYeusGLR45yeOqiTTuYDz0hH+Jh724b1GI4KPNfdyLr3ci693IuvdyLr3ci693IuvdyLqWR5MC4qHFcSQfYopilgdI+KlYS0u6kHR1G/u+cTbeVkVt4Gonfij1LtUHeKSKaGGyepdpHowr2B/zE+OceVB2GRIjjjZPHz80D+GFKElFhD0YSQLNOaWCPFxN7briC7gK7GzUW+wcSYS2wk0xzLYVpxZDsujM48RLFPYo7XsUdr2KO17FHa9ijtexR2iQR8IsCx4jJu3EHqH/TvKbad+EoqZILN1sXCHlpRIsAjVRTJbOtPg/ZpegHRCZoe6aqsnFAjzgG5FlWxdvzS+I5ZZXtu5dM/I6lXqNW4jxO3EOqF33x3mlA3ww1BSXfA3lZFJ24RJ48WfuKjwVQ2/QQwbI+gy2MWMJKJ5JZ0PJOBbgFM2hS3MXiQ4vdfTd1a6Wm729zo3EQVrTPyOpOX6qJ23yJ3be1qCZcUe5pyGu/HxQx4OVtffbySquCCZ+eWtSquaylDRq5V0FDIhGfocmiaRjF2zWYL7A0yfiqFSwcU6E2+pq0z8jqRf4jELb5G4/FC/4X0/v8A5r232l0duHeQiR2dI+QUUwSxLTtiyosffGc9gYE7NrhQjYI29FLhGZlE3EHonkGycmLphqMllTOQjH9rXtlbbNvqatM/I6jZby0Jx4pEpbemvbctp5l8E53jNF+2OAHcbdxiVpl0+oorglZ9LhLGiGoqudPy70nlswwyUyBwJZxTVogyR9IMQtgTonECY2r23cjYq9aU2nJdCo4TVLi6m31NWmfkdQst5yB23yG/wCz23C805y+F9Bdum5SNQVZtmGnCrTJs6ReJdCXSR0CUczIw5pd44c32pI5r5ioG+eXER1gGt6YRjg4pT/TnK1PYyUYVljfC+yD/TtTb6mrTPyM9vvkOn9t5+iX4EdNr/o+k/EMimF4TkyVQUkTWkHbjOrX382pXzdiSCi+TKGFntD9O26dMRbMbh6i5GtHlnMIDuKlETbA2cEy4o9U2+pqiMiagK94wuveMLr3jC694wuveMLr3jC694wuveMLr3jC694wuveMLr3jC694wuveMLr3jC694wupIUSMFdPMd5qjOPCW01y/J8pqTl+pFQNi4aN4gHbUi2RbY+rajf1GnqnEGqbfU3k9OMd5OpHjwnNNcv8APymoinEWj/4g/WNRbbw+my/+FSeMFSJz2KO17FHa9ijtexR2vYo7XsUdr2KO17FHa9ijtexR2vYo7XsUdr2KO17FHa9ijtexR2vYo7XsUdp02VZONNrfrKlNt0g02v8ArNjNzZV71WDmzlbbNl+2kIK3CG9YnuHHH4C67A55SSZcZ7TXH82phjwyLTjLcS2EXPgko6hongIHxZtm3C7L34bE3PfCLFPsmXrEuR7aPDXd2D/DOymHkzOXGW01x/Lqb48Mi08y3GtkkD+NDIlJe06bhwm1R7ZWbnbWta2yTPvDgjRPtnWFuHH1h+h3ljljfHKEE+/hvJkPxf6bW/SVPLbpBAPqDbLYpd9cDOM21N3SLxLnLyFkGwcPSk2fhxCARnt1EJ9otFm/ej3rUjZ9wNRkzcKTTUxVw8jlfdi6vxOdOMdw2tQcdx2DZcMh5D0UaGrOBhuKrMNRXCdNp4HXrCSiFKueF2paWBkbO9RB6VPpqWJ3EQZ6QzYDm4xvtLk0hDF25UeOdOmfaEPWtRR/CvUPldmVWvbK3kHF9yGd+LPTzHcFrUXH4tDsuGRcz+JiSFOdNkr3y05I7/dyUpHTd3e7TTtglTEUyG48jx4iwbyWQqHXVQcf3IJ60eF2Li8sb4ZUDlzwPTCaintkyDVW13jfGziSimtLT8WnWWpDWrakNt7afClqav2z7Hne34WdQC24BWpFviEUvwyHoPjbAbS+oY1OveQ3rDUdnem87ELXQOjnNd6QvS5Zi3xJT9g1sWOPDKtBBuRYkmninh63Oo/3dfba97VxXvzNnS7NSOTjF1lzF8uAXUGx4Y9WpOP58fy4DfM4cJtUT85XeXyyyUy5eLLlhYDwpn64ugm6RksWWCq9OFyftrcshvuCVDbbo5WpVv8AERfcU5csrYYy2S5GHHS3b6iMQy4vXs8MVcDGn6Dm7yKlmV82yydYtV86bxos6pDT4qpWOmzi9vdtnS2nL3Gz+LlB9ftWGd08orJMTLbklWXBH6imPDHq1Jx/SMMuB7b8bck1k/HsTTzWzZwss7snpu4vXu1UpTTh3aziBmEKcAyTWroK40kwdLXYQos9uEhrITf7C3Wq1rW5zUTZGMSwdyGctnKrRYXqHhwZT0Pa3vGY8Ys0zMJTPLdHaj2PAErUbH4Uhfcsl+KZeVjw+aOorDO956Htibna71O999R6KuDmQwIzEJ83Dat1rfZxUWgYZlRiwh7tFklhT2WPMHcToNbhE1qHjvC4/hlIDXhILPPJTPbFY5kbcpJYIJ/a8mAYHGayObdXbZ7daE0wx4GVT3Hij9TF7dfPaGELGnrBiiNafbMmiiZqz4U8G52wyyv4Y9vji4ukzw/HNH8Eqm1t8cpzmqSdKDnaVuG+8TGSBbMKFbhGv23ljjlbFsjhsPxxuZb2bZoEMPwxqX48UdAhlDb9iObDkr2tlXdkd+7d9wy8ZZOQ7JLjxAYEOs1E/ckja94S2HMO0DjUO6j/ALkccHZ7HPD2H3KZz7NlsM59mKw/HH7kkeW5nsP/ANI0y4mv3JIv8k9hrHjEC78Qz7kM/wCTvY7x42oDLiC/cj3HjKbMrcVgduEX9yZJ8bva1T7FP/z3/wD/xAAUEQEAAAAAAAAAAAAAAAAAAACw/9oACAEDAQE/ATzf/8QAFBEBAAAAAAAAAAAAAAAAAAAAsP/aAAgBAgEBPwE83//EAFUQAAECAgIJDQwJAgUDBQEAAAIBAwAEERIFEBMhIjFBUXEgIyQwMkJSYXKBscHRFDM0QFBiY3OCkaGyQ1NgdIOSo9LhosIGFZPw8VRkoDWElLPi8v/aAAgBAQAGPwL/AM45Uem2AVMdZxEihLISy/ipFLDwOJ5pU7dsiZZa5biJFX/MJan1qRrD7bnJKn7KKLr10dT6NvCWKJBoJUOPDWKZuadd4lO9bpbJQXiWERXu6Wk3jt/4xUFbjM/VF1bTfgmbHIk0+mMt4nbC90TRoPADBSL602r15Y2POOUcE1rJ8YQLKy9PpGuyK0i+Li5R3yc32Ppm3NcVMFtN0sK2yvcktwQW+uldoQ2yUSS+ipAyVkiomd4fD/nVqRLQKX1VYOUscShKJeI0xufxtCGyagaYlRYFqy43dv61N0mnPCPSboutrlT7F0reSDlrDqjjuInsiaIJ18yccK+pEtqgUpWNbllbHhOYMbKmwDiAaYwp12nkpGxp2/54QpXG7tpvm7/wihby2kIFoVMSxUfXZbN4/OTPqlsZJleTv5J8ttG5dsnTXeilMIT9zlk85b8a/Okq+aEa3OuJpCF7lmGnuJcGF7qlXBFN9RSlu6yTiguVMhaYRo6GJzK2q7rR9iSdmDRtsL6ksFLyKqzJ/FzTaQQFSJcSJAuWSLuVvgb+Niy41+GV9dUpIKMTWRwUx6YVicCqWRchaLTUy3iRcNM4wDrS1gNKyLqHX/pVwW086CNxaxFfVbVKa1KiuE6vVCNybSDnLKupoJKUhVRvud7htp1Qp1e6GOGCYtNpCBVEkxKkBJ2YKg8QPZ9P2HN+aNG2gxrFCUtyg7hvrW1RLjUaTdOliSNYCu/ldLHtJMPpQaX23MorDstMjVcbWhbTki6uGxfHkrqO5W11qWve1aQL4y7d90+qAZlwRtsEoRE2knZGrLTOjBKFYnGlbNLQyVlTpZxNurvdPFFKYvsIbz5o22CUkS5IvUtygd6b6147QTVkqW5XGIZT/iBaYBG2xxCKbX3ewOvsJh+cNqWcVaANbmehbb8yeJsFWDdcWkzWssA22lYyWhEhuXHvi33SzltaszjdbMWUdEYeuyxLgOp12gsfZI9ZW804u94l4vsHfjuWULYTS/6hZ9FoJ6y4cbbK9K7aQmlIleWH5feU0hybUpMY1IMLTaalhW++d/Qlo511NbY3PK202ZgEcbNKCFYV6XpckiW8uUOJbSWPnj2QCa0S78c2n7Bf5fKlQ88muKm9G03ZGyQX8bLa/Mu3sToJfbWoei0/Lr9C5T77Qs5GG6OdbUu2qYZJXPSu3E28KG2SUEK5YusvSck4uCvA4lgHWSUHAWkVSAfxOjgujmL7AOzD60NtDWWHpp/dulTCT06OxW1wBXfl2eITTC74Fo0xQsOs5HWui1Ou53ViUYyEd/RF7b3GJgUNtxKCSFaPCaK+0edIBHSol5jAPizL5fVybeFkM5R3PKUhJiuXGaw3LheDG4WYYbZYGo2CUCniM4zkulKc8SRU0Ip1V54fdW9UBVhVXGsPzK4mW6E5/ETYK86l9osxQbTo1TBaCSG5Oy5VCG8Dy5U44Q2yQxXEqeVaTJBTjiq7ONquYMKNbF5z2YwJJ1U4yjAkPe5GBIt85xrcuwPvihHxaTzAitMvG6XnFTauzw0TEzhLxDkTxJt765rohh3gOCXxidPhN1ffetOvZXXejxIbJMDgOYLvKz2thzLjXEhXowyad5QRhyrJc6xhSIcxxhyC8zka5KPDoVIwyda5QRsabaJc1NHkwnZlwWmxxksK3Ydu99afUkVpuZcc5720bElXHOaAmbLKLhitIspiTT4nJvJvTUVtS5f9Rc+21JCuNQrLz2xLOlO108aJqHGZgUNpxKCRYJyxWyWeBThJFWZZNpfOHV3oTueZJQ4B4SQjVkU7le4W9WKUvp5IV+bLkDlJYrzJUNpuG0xDbQmJdRbXfuYKRs2co4mxjXFec9qPBa2k1jwBqMCQYT2I1qVZCjM2nipl9WYrasGOej+kaIRIl2uA2I/C3KFnaHo2tvOT7Sf1pqqDFCTjjDk2F/DSMKQY/JF+Rb5qYvS6hoNY1l15vnpjYs42o+elEa5ZEUXiZp64plZpl7iVKsVZ5gmsy5F54BicVXpL4hogHWDQ2zSkSTL5GcmJgqrbaUksE+9eBLzYcFLVxk26eES4hgTcHuqZymaYtCeOTyeZTasCPr6fzRLhwnBT46h5lcctMONf1XvgqbXYmWTfvq4ugRXro28mphsXWyxiSQU3YxFOX37eUP4gZOaLYjq3lXeF5GCxjBYIYT1GVciWgl5fFjMuCkDLygVRTGuUlzr4krk48LIecsKMjLnMecS1Ui9JsonKWEGflia84FrRdZJ4XQ4tXOjnZLotWNDgXT5osePpx1FkpQrwzQDMN6cRbXMKl9uQl7n7ZeIX47rlB2I8t9OAUI28VMxL4JcaZF8iPzLm5bGmHH3lpNwqywiDfVYETTZDmE6vV4lVvOTZpgN5uNYV6ddVwvgmoR+UNRXKmRdMC+zeLE4HBXVTCZ2y6IWGB4NaJHl06ixll2kXY7lRzkr/ALWAdbWsBpSi8W0vzTu5aGmHZ2Y79Ouq6ujxF2WfSkHBo0RcZhaqV7i75EalQW++VK6EtXd0aWZXC9rJ4k5Mu31xAPCKHJiZKu6a0qsUMpc2B3Tq4khKWEmXOE8lb4RV7mZq5rmkEsu33I/kIMXugpebGgkxLkVIbrLrD2A5qNedBvlFRGuT7PsrWi4tm44TmDeC9BaYSJOnzvltEXpHB9xqlqYlS+kG9xLkhyxE5gvy6rUpzZtpl7ByK04evLx/xDTLKUA2KCOol3OG2JfDbpeebvXZKpcpIlX98oUFpTyGTaXxYBBtNEqa4/rhdXiXcwLrMrg+1lgJcLwY3CzDAMSoIDQXkTUGojshlKza9VptpuXZpEUSuVK0xefFpPMBI16dfL24wyUtK2r1uR0l8q2rINZWZ55PeVbrttWasfgUlh0ZCzwjgYL43nW8y6tWmFQp1xMBODxw5ZWbvuvd6pzZV1E0+q0XNoi+ESA5pdtP6U258t8yqOJ/vnialVXvZ105/Ic08u/dJYZZHG4aDANhuQShPEX5gvowUoNw75EtKwkySa7NLW9nJqaFicZTEDpJqtYl3XeQCrblV4KGv9K2rMSZ4nkF4Pd/NtxiYGu24lBJCHLGtT6NzISZlhG3VSXm+Aq49GpJmxypMTWfeh2wU3ZAiKXQqXDXfrwYQQSgRvImoJkO+TRo2kNt8AUTbpxpd+ySfCLnkeaVPIU05iqtEvwimJanE3Sfu8Sm/Oqj8bTDKXkbbEfhqrIKOK7LAzEujQMliIzjZM82PICtGvzEw6vFQMeB3RfPMljY8mw3yW0hdEHyrQ8TRWrG2STcENB9fwWEIb6LfS2UvOBXbX4QrjSLMSuRwUvpphBB+7NpvHcKNeseB8l2r1RseRbBfOcrdkVJiYVG1+jbwUgXrIoUtK5t8cCzLAjbYYkTU2OseF9uXNFLTjX4Jt6pniQKmhLqiL5Cnly1KPjamnV3jVHx8Se4jHptAY4iSnUuvOXhbFSWHHSxuEpRJsreJG7+nUlog9NouKXLpS1dhTCljrc2JYRh0qX5bBXjHIuovwpGxcXF3zWDGs2QME85qt1xr8+44nmt1YQpeWQnE37mEuqemncTY3kzrmicslMYSimPzi29w+CKrDBpvXBXyE55zgpan3M5imqvxr8y03yjhthqcBxxwqgoF+/tU60l9bnSnNallp1xpLmfNqUsawWuO33eIYYbo1sFruaE1RaIPTCQ991L5htOsOpSDgqKwSHTrR3N1OEMA8wVds0pFU23uKWKmXYXCVN8cMgaUOua4eldvn3PQkic96EWJc+E0K/DyCKZ3x67TrjzgN1n13RUZEjXJ9n2SrRrZOvckO2NjSJLyzojWWWGuamL84oJ5goka/NvOaXFtWN+8t/NtVC4ofZo1tVrN8mKTpKVcvOp1wL0s4jjZYlRbZNS6o/OLiFMQ6YJ18lcecKlVzxWfTZT98+Li1RaIPTARMr/ANsvzDbCybCeY91LCSM8WxjXAJd4vZthSUkVM24mEv1adsCTqUy7GG5x5k8QblkXCmHPgn+0tSS+gDo8gsJ6bq2qxv3lv5trwKEmmr7S9UE0+CtuDjRYrST5N50yLFBNMGueiFBXriC5G0oi9SZkvvgJ6yg69jbaXe8a6stEHphrnibX0H91txl8a7ZpVJINg77a32izjAydlSVWMQO8DTxQhNkhCuJU2kpWx5I7OZSyB/MIA1nph4udVgJcL7m6dLOXiBi2tLUulzHrtSPqR8gy/rerUawy47yBpjAse6nLwemNdVhnlHT0RsmyCaAajXTmHl4zoibl5UajTZUClNMWN+8h07Zsgajybl0ccL3IoTIaaFijuFz4QndahKjprLCE0F1f+tPHtB6IPTEv7UTvqk6dQTD+CSX2z4KwcvNhVMfjCCC3aXytF1ZoRAduL/1bl5dVWnXxbXg4yXmgmbHIsqwt6tvy7IQQRTMlvJnjumbSmcNPyJ4gStrsl3BaTrilbUh6pPILK+mtBNTktdnlMkvmsaxIy4LnuaRQl5NTP+s6osb95Dp8Yc5KwWmJT2+mJ71Y9NutNPtsjncNBhDYcFwFxEC0pFymhwk3DiYxiiYCuyu5dHEtpElps6nAPCT4xsiWYd40pGL9jE/+R/8AmNZkmg5RKUKizNxHM0lX+YUjJSJcarCMyTSumubJCPP0PTi77IOjV1DNwEztuKC/CNj2Xsmwv3kiSLrJ2RfnRTM6qr+VYWSs2VSZpwDUatPEuqKYmyqimJMpLBzExeyAPBS3I+pHyCK5nx67X4xauyHrOqLG/eQ6fGHeQsFpiQ/E6YshyB67Tky9fVLwDwihyessSuSza4sirwU4oQGhQATEiWlB0UMCxiuWFcsY53KfAK+MLdZQnA4bWEkUEiiuZbexZN004VWhPfCHZd9BT6trthGpJkWg4kx7Wpt0MTw7h3PxLH+Xf4hbJ0Q3Lo46ufjSEKSmW3eKm/7rSkZIIplWCGWLux/MC4Pvi6zh1uCKYh1EknoA6PIM2A7oRrpzWpljKDlb36uyHrOqLG/eQ6fGHuQsFpixv4nzRZDkB12hkWMIGFq0ZzWGJUN4OEucsuq19kHOUNMX7HSlP3cY1mWZa5LaJt9xmME0vtuol8FgpebG5ujfRUxEmdIobn5oE4nyjZD7rvLNV1LDIX1cNEgATEKUeQVEr6Leh5hUwKawcmAFxaGn8AtVdZ51G0yJlLRE1NNIog6VKIWOG3mVquNlWFeONmA1MBoqrGxyqPJumix7ZrjghpXan/Vl0QsWK/G+aLI8kOuH5hzctApQj72Fc6Xj0/8APilYkpDKqZIQgVCFcqahTYbTu9pNaWmit5q6sp5wdbZvDyvIdZlNlNXw4+KFEkUDBcWaEZeKibaSgk4SZ9RT3yZPvbfXBPzjiuOFniow2ThZhSmKyyD1HJiq4KgWZUgXpc1bcC+ipAvYnhwXR87UX41+Zab0nF+cE+QlaNYZfd5qI2NJCPGZxgG0zyQjXZ55dBUQiumR8paYb5KbTMeqLohYsMue7fNFkOSHXBNotBPmgc2PqibmlTvhoCc3/PipTkoKuSarTMMJvfPHsgHpckNs0pFU1CvtprM5S4nL33bz6kJaVGkixrwUhuVY3IJjzr5EKbkUQJxEvpkc/mEMKzEy0sIBqLU4iYTefjS04+8tANjWWHZp7fbkeCmaKNxLN98PqhGpJoWxz5VtEhigPomA4iYocYfSq42VVYcKZrdzuBQSDnyRsaTdPlFRGsS7LWnCjwq58gUSNfm3j0msX7+qSG+Sm0zXqi6LVgVz90fPFkOQHXEjL5hI1/3zRJJlMbovP4rQt9I7lNaLFTq0t+jLUP0FQUvr6eyi0/CnUIxJt1lyrkSKjWG8XfHM/kbZAVHqMF0caRdRQjbFcF5rJ2QLNmEVwcjo4+eGgkHhdGZO+orkSEEb6rehiXBMKik1zlqEMfpmUJejq2ihsVJcyJGtSEwvGoVemNcbaY5bnZCiuSE0w3yU2mb9SXRa/wAP/wDuPnif9WPTDg/VtiHX1xLs4rm0I+5PFnhFKXmtcb0pCNurS/LYBcaZF1EzLVq9xdJutRRTQtFoXHkWWlOGSXy0QLEk3cwT3rp8kETyoIIl9SxQrdiJQnJsl741eH3ZYYSeRAN0a9XNEkJ4leHU1B+haQV6eu1RLsuO8gFWMCQdHl4HTGunLspxnT0RsmfVeIG4127v8pyjohLnY9j2hrdMUMtiCealFtzlLCaYb5KbTOepLotWA/G+aJ31KdMPDjrTaB8aPGHpXEw8dTmK+OoF1E78yJLpS91JDQTcq73SaiLbjjiGFa/koSj4+Sa0wtZ1dw0ONYuLeBLotNVNwGnPCK0N0mN86WPmzRJO71W1H4w08ONskKGphpaQcGlLbky+u5TBThLmh195aXHCrLD8/MtCY97brJTpWKEvJtLnKWE0w3yU2md9SXRasD+J0xNp6D+5IBeFPqX9VPjEvMt3lJpF5xX/AIhl4cTgIfvt2PPOBp0dsNMNbt00AdKx3FZcDdaC8qFuw0Z4F+TcRxssqeRrkzQ7OGmCPB41ha5kSqtLrxX6qQMvJhUBMeddNoiaSl2XWumjLauEwKvSi5MoxWSdAOI70L3MazbmYMXvi6TRYKbhtMQwEtLpj3RcFM8NS0ulDbQ0JtTnKWB0w3yU2me9SVqwXtRMJ/2y/MMSq53SX4L4xY0s6OJ8sWPL0dX3LRbsYnrf7Ysb96a+ZIWhECbFNbc6lgkvgQrQ60WIoGYlV5YrjBfIlZKCmXLzQ9cIKUvTL5Y1gJdi+uMz4S6g5yxoV5cr5Aibj+NQiS7dVrfOluUi5S6UmvfHFxltbnKWB0w3yUt0uEgpxrGvTzCaDpjAN17kB2xsaRJeMzojWG2GfZpjCnnB5GD0Rsh5xzlFTasH/vewXHLknxSJL2/kLxixwZhcXoiR9v51tyTfBaVfev8AEWOEUpofEvdf6rSzMqOzGU/OOaEeZxYnA4SQ3MypVm3Ep8hOTEwtVtsaVhyZfy7geCOaFsg+OuvXm+IdUpOsVHF37eDHhD9XNehCuBPKn1hUxVbFAHMibYfKhIQZWRxJjNyNZRhjQFPTGuT7yJ5q1eiKXnTNfOKnaLCfh/IsMpwmzT4RJe38heMA0n0LKJzrfix4r9VW99+28iYmhFvr64Rz6hoj6uu2k0wNDEzTzFlhJaYLYr60cks/kILGsleTDd6kiXlUxGWFogW20oAUoRPFT5W1k4LLitjjJBvJasL+F/8AWsSPHWT+lYlUzOknwXa1F166O/Vt31iiwljhaZ+ueitZOzL3IlhQE98YLkw4ud18j6dppW8iQ8bd9Zh6gOhIbaDctigpaNw1oEEpWH5g8bpqUTE2aX3zqjeyD/z8Lb8vRh0Vg5SRQt5UgUdWl+XwD48y+QHHnNw2KksPTLu6cNSianCTcJcx8WPlaoH5VhFYPEamiRsmaYaTzaSjZM4+5yBQe2L8qrq53DWNjycu3xi0kTvJTptWL4rl8kWOX04p770AnBn1H+qjaSfnXEbbT4x3JYoTaaO8ghuz0wL9l6Jh/Hc96nbCCKIKJiRNrMAWh+Y1sNGWBeJNblUrrpyWyZBddmlqezlhtplKxuFVFM6xLyjeJoKNK5V1E0ApQJrdB54aAl1qY1stOTyAbY7qYNA5sfVaZJcbpKfiyr3LcxVcZmiRsmbYa5CKXZGyZp91fNoGPBLquczVYYblGW2G+5kWgBov1itSPt/OWpmvZ6bUn5tz6IlHOA8C/GHixVZtD+NO0HMzS4KYkyksCNCkRLQ20mIYyHNF3xzs2wnHVQQFKVVYJwabiOAyPFAC4myHcN3stUqtCJBuAusN4DWjPC2SfHW2sFrjLPqZOZRN0KgsCY3iFaUiXmU+lbQvH5KX4IK57/8A+bUk3maHxpj7qPzFakfb+ctTMcoem035tzgdMK6n0zIOfCjqiXex3RoS96aojcWqIpSqwpCqpLN3mh64SamR2W8n5BzbZSq0IkFI2PLYyd8NN/8AxA2SnQ1kO8iu+XPbWxsmevOd+VN6maBl2bw43D4Aw1Lyw1Wm0oFNS059W7aaH6kyb6+vx9wfq2xHr67Ut6oejaicfJAbG+pLkhW7DtoXpnOpIpOfeH1ZVOiKQsjMLyzrdMIFl2kcD6xtKFTmgX5RxHWyxKm1sfdR+YrUj7fzlqXfWDac4rn0pCRYmZ4TFRfgvXEkuUBua82qCx7K0OP33ORCOOjTLy+GXGuRNVSd4c8Xr+pV2eeFpM2VYKXlKZeTy8I9MDNWTFW5XGILjP8AiEAEQRG8iJaKXkyRydX+iFFhFcIlpcdLEOmEYlkpXGZrjNdUfrRtTzXBcEven8ePzvsfIlqVJPqh6NpUiWhExwrLBVZFtcFOHxraqsNG6WYBpitMyj7I5zaUbSGGFLl31vP/ADDb7BVm3EpFdqY+6j8xWpH2/nLU6XhtP/h/MlqXdRKSYFs/hR1xNyqr3s0NOf8A41UzMU4ClQHJSGiJNcmNcLq1anYuYWVPgKlZtfZ7IXu+xHdAJ9LKnT8IodlZwCzVR7Y1iTfPlEgxc5JsJangJWKLq+DiVsbswtEI7M7LmEykmCPNauk6+DI+csLKf4dZdpL6RBpNdCRdrMH3OC36iLSZdkCxJNIy0mRNXRwnRtWT/D/u8fm/OQF/pS1IlTSqN0LtKSzS0OTS0ezltKb2BJtbtU3y5khGpNoWQTIKRQuKDnLFto2+N820xH/Np6xzq7jXGtGXamPuo/MVqR9v5y1IeuSG0zkkTXJHpS0yweJ6VQf6YRh7BulLJ6f+dTOvJeVGlRNK3oZZHG4aD74BsLwilCbTr7LbvLCmKf8ALpOn7uMawy21yAot1SUqPNNR6IurkpdXM7rpn0rFSVZbZDM2NVNpk2ab5OKtqyRZ1bT5vHxP6xgV6UtJLyU1cmkv1bmK9KR4d+iHZHh36IdkeHfoh2R4d+iHZHh36IdkeHfoh2R4d+iHZHh36IdkAdkHrsQJQOCidFqVZRKCqIRcpdRMttpQ2euDzxJKmIyqLz7Ux91H5itSPt/OWpZ9dDCekHpid9XakfUjAzzGCD61qcxpDE0G/HCTMWXUEn1joj19UWPH0lb3X/GkZHFLhRz2ph3hv0e5P58fk5pN6Stlz/7XbQINyqUpqAo3suKL71ixtH/Ut/NtTH3UfmK1I+385amVTO71RJp6YOmLIepK1IeqSHJZ68q3wLglDkjZYVblnFx5EXhJxQhtEhguJUts/eh+UokafP8AkLxl6YdWgWxrQ9MObpwqy2pMVvEY3Refx+Zl03dWkNKQqLjtErr0yEy3uxEx9+KO/wA5+cf2x3+c/OP7Y7/OfnH9sd/nPzj+2O/zn5x/bHf5z84/tjv85+cf2wwkqThsuhjc4VpkVXXpdLmfVbI3FqgKUqqxMzW9MsDQmKGC3rCK4u1MfdR+YtokfvAfNFkfu5dFqQ9X12qs0w28OZwEKEBhsWwTEIJQltxfq3BLq64seS3tdq++94yljZcrw33qOi1Lyw78r+iEEbyJeTyATjaaxMYQ8S5UtBMy63xxpwkzQEzKlSJY0zLm1Zg2lL7WG32RQsJMSi8RiuIkhLs93I7lF3tisc+wXE2dfohZWRRWZTfKu6P+LU8ooXdCKNZVS9Vv0Ue5dqaekJe7NCwgKtcUv1lzrHgP6wdseA/rB2x4D+sHbHgP6wdseA/rB2x4D+sHbDf+YsXG6bnDReiJBPTj0xPJ6Aui1JclenVTkum6NpaunJDbg7pskJIbeDcuChJ4vVaVCnHE1sc3HBG4tYyWlVW05ZF5MI8BrR5BOXO8eNssxQ4xMDUcBaFS1dGVrNF3xvhQj0mdKZRyjqzshYsKab7zSdKRf1NlPwv7/EZBOVEgnpUibT0RdFqV4q3Tq5lpEobJboGhYRgl1yVWp7OTxZRCh2bXct5tMHMTRq46eNbQspeZG+6WZIBllKoAlCJ5C7olERJ0E/OmaCBwVExvKi2kfk3FA0+MC1N0SszmVcEtGrVwguD6/SN3vfGxZxk089FHtjX5uXBPMpKH5MDVxGquEqUU0ii2rKfhf3+IyI+jJfjEhy+qH08xbTXEZJq0mmBpelr68YZYA3F2O7gO9sUpfTxNTeNAAcaqsFL2GvrlfXqgnHSUzLGq2hl5QaxFlzQLEvfLG4fCXyIr0rQ1OJlyHpgmJptW3BxotsWzXumXTenjTnhEB24urvHL20T34fyDasp+F/f4jKep64keUvyrDvJW1oeLq1dC30hXpcdhvLg+avBhLHTha+2mtKu+HN4jWdJAFMqrBBJbLe4tz742W7gJibG8NupKjQCbtxcQxcpZKTXduLjLyNc5xukk3DiboYJwE7pluGCYtKahEYmFJvgHhJCDZKWJteG2tPwjY823TmVaqxSK06ie/D+QbVlPwv7/ABGXTMx1xLcSF0QWiHEzEsGmZ9doOXmgrtGlCpCOtESsVqWnkyaYGXm1RudH+vRttLhiCcaxQcyjh8FrChRsbLI2nDcWlfdFadmDc4qb3utoLYqRLiREgXrLrcGvqk3S9kCzKNCy2OIU8kqbSdyPrvgS8vNCrcbu0m/bvxf1Gx5p1vQUYToPcsYCamBEDIlSgbU9+H8g2rKfhf3+IimZlIb4mytTCelLpiZTM91bSTUwCONleUVhZiwZKQpfuVOEOhY7k/xABoo3rrVwk0pCOyroutrlFdplwlAbW6iq0lC7KuaeYlEUzD7jvKLUIDIE4S5BSmEKd2G1x3yjYrVLuV075eTaZmXGvwwwVhSsbMovmOJ1wt2lDUeEGEkUEiovHbl9JdNqe/D+QbVlPwv7/ET4mgj8Euq1N+uPpieT0o9G11Z6XB3jy++FesFZJ6TPglhJFWZYlJ8eE25cy+Ma9Y99peW2qfNF9FTVSGgrdVlsnFzClMItwuALldWiK1kXyeXghgpFWSYBrQl/ylsqWad5QQtDBMr6M4GYl33DrOIFU6Ia4jJLU9+H8g2pzuwHju1Src0RcVPHxx3ic/IP7o7xOfkH90d4nPyD+6O8Tn5B/dHeJz8g/ujvE5+Qf3R3ic/IP7o7xOfkH90d4nPyD+6O8Tn5B/dHeJz8g/ujvE5+Qf3R3ic/IP7o7xOfkH90d4nPyD+6O8Tn5B/dDk1LiYtqIoiGl+HFzMrank9MXTE+PnCvisiOYCiXmH33jugCdVL0XpRHFzuLWiiXaBpPMGjyvLfeP7VhwOC8tqe/D+QfFJpczXXan09MsT48Qr4qwHBZ64sf93Do8ssrmfToWJ5njE7U1MycrdGTq1SugpvUTPHgP6wdseA/rB2x4D+sHbHgP6wdseA/rB2x4D+sHbHgP6wdseA/rB2x4D+sHbHgP6wdseA/rB2x4D+sHbHgP6wdseA/rB2x4D+sHbHgP6wdseA/rB2x4D+sHbDjEyNR1taCSnFE6vox6bU/6yJ5PRj027IM75l0fcoD/O3T9XE1M3P3AOomKN4iBEgmZgejyyZcFwVi5KtCPtqPP4rZBfTLE+Xmilqd4yToiaTOz125eZcwZWfbuTi+cmXo216acximAmcoYJ/v0wqvOaS/2ltVXJE0/TTdHFVIlw4LYp5ZnU4IVvdEtMp9EaFzQJhfFUpTxSdX0xdMT5cYpamONB6INM7K23GE78OE0vnQljLKLUmm8EFLfcWnaydmDRtsEpIlgARCGxkstZdHasUJeS3Nu00Go1A0rDDfDcEfjApm8szDK367ZJCouNIBo112W1tdGTxSa9aXTE6vpE6LTnqxgfVFqFn7GJRNjfME3/HphJWziEqDeR2i+mmEdlXBdbXEortC90uUu5Gh3SwkuwNSXS/VTcgmdYGXlkv4zPKS6hix7a3m9cc05IkgopRDrLzeW5xmihK9YdCwDpd4PBdTigTbWsBX0VPElWHlzmvTE0Wd7qtIudkYZ4wJPhqVc8Hm/rRTHpzwrjd0bb+taWkF0/zCDZGWF/zm8FYS6uOS6+eHZGDZGX5zqx/6lJ/64xhT7a8ikuiNiMvTBceCkXKV2OhYhZTCXni72WIpZtb6oV9wuyBYkWkbBM2XTqHJl/epgpwlzQ7MPrS44VZYmJpUwWgoTSvluWngTBNLmem0MjZEtY+jc4HFohFFaUXxF1fNWCXOsGud5bTC52euJPjVU+GrVXJVGjXftYEKspPGGZHG63xjAmZVU41JOqO/yf5y/bGyJxhtPMFS7Ipm33phcyYCRRIyzbPGiX/fqSfmjRtscarFKUhLN97DrtAZJQ5MLXXRk8tvy2/VKW+VkhRNKCS8qWkaVe6Jb6ssmhY1x7uU+C6nXFLcyyWg0jCfaT20jXJ1qnMi0wtzuzugYwZN1faSL8k7Rykih1XWF84YrSb4PD5q7RMLmbLotJxulak19EvTFj/WbTsuZAC4NN+NZafe5qIXYTn54w5V4edFignHGuUEazOMr7Ud+b/PFL04yHtwoyIlNuZ8QxWnHMFNyCblLTEqGIiw1zDlgQbSqIpQieXFslKprTq68iZCz6i8sY11SOSrpNGmUVgJay1Dbq3heyLp1c4Xoi6LTHGRL8bUgXmkkSC+lTVk7MGgNjfVVgmLFKrDH1m+LshVNVJVyrqt0up7pmU2VMJ+Uc3l02XxQ2zSgkWFdZRXJIsRcHiXbBsdPnrid5NcvFqp/wBSVqT0L02pBeM+qJNfTD06pSNaETGsKxLFRJtre89c+2BPWVCii+00vSvl9QcFCFcaLCu2Kc7nP6stz/ELdJMzHhN4SRrjLgaRjBZcXQMazIPUZyGr0xrqsM6TpX4RhzzY+xTF+fH/AE41iaZcXjRRhVelSIE3wYSWhMFqkN9Fi5TCok42mEnC49TP+rotSPq6bUkXpFT4RLLmdHp1RWNkDvfTGnRaQGhUyXIiRSrCMD6VaI12daHQCrF6yA/6Ua3OMlpFUjAbaf5DnbGvyMwPHc1ojCbNPZihqWdNfNBYw2e5Qzu3vhAuu7KmeGSXk0J9g8UXk1akgJLzH1gJ0wrM2PJNMRQL0satuDiVIELLMqhJ9I3l5ovG6X4cUdyv1c96K8i7Wo3QreVIm+bptSCehG1LFme6obXMSQC8UXN41de4Dd+iKHZd9tM95Ypruqua5wTFjwWWbXGdOEsX4uhUsSiY3KMeiECTZRFymt8l59XiSL32OOXmkvLuSyisOS0xjHEvCTUNzMutCit9M6Qr7S4D1Si1JJ6Eei0C5nkhIB1tdfdBBb90KZqpEWNV1Fd+kZNpcNeFxQLbQoAClCImT7MUJQMy3fbLqg2nhUHAWhUXUGwX0M0ic1qXHM2No14Lg2rHsU4LUqK86pqAl2MW/LgpDctLDVbD4/Zq7yyo1ODlyHpipOS5t816MEVVeKKySj9Hq1h+WKlKxitGiE0w2nmpamtI/NapabNxaojQiUxS7LPAnGCxRQsDcmVbZyuGlCRcZe+S7s1xkv2coJEXTGA0CaBtOUALczvXETpgZd4arguoJJzwlqd5NPxgZdvBDG4eYYRuUaFtMq0X1i+lMU3IK2er9orGzQJgzDgiXKRbdkE9CUd0kmuTK0+z9pZIqL7M22XxtzwJvmSSJVlN40KfaXXNzWTptndNxRf+01KY7q2n9aW5skyNrAr9pWE4U00n9Vuf9SUMFnAV+H2lsePCnm+u3PDnZLoiSXOwHR9pbEB/3Vb3Ctt8VygSRI+pFPtLY2ne3Qvh/NtUXLDA8GsP9S/aVs+AC0c+oIMiGXb/AOPh/8QALBABAAECAwcEAwEBAQEAAAAAAREAITFBURBhcYGRobEgMMHwQFDR4WDxoP/aAAgBAQABPyH/AO41QLsFYClUJ3pxDsW31mrPmmTs5e605DpbAXm0JaNKFMouF4f+UFnnTZHRyOdLYQx629jo08k2Y7MNp8tbMTWfc2S7qHHwXW7xZ+yAVQFSF0FYXjiuHWpIjglngY85pnKLe7GctDMaOMX/AIGVKEFYUhD71qxSJVjiYv8Aj41bi/5OXGrtZun9MIpSlu+t5DycI8ajCwHtwv1PrGcVQiCmptIR/Dy9hbmzDJzrJ2AON8P8NZg5GYdEyd3/ABYssGLNLYkhf5/HDjTbhuhXYYYmAZ08S/cu96hm3XQ+rFYtNyKhSn0fKNRnYxZ8c3anQUMR2PheIZNW3wHYPVjE4wxfq+3AQXINTQu8TDkUUashjvSHok1MgspVHen3jKe5Np3XvtaDOkJEZBxc+GP/ABJbIVYAoJFUXAtdBu67FLDA5XgUFK+iUcMCi8QGBPz9X+Mwo51BcsLA1Wxb2y1bEoV4Ysx9AxRCVmsOmNIVWobrsytwTsM2lzkXyeO+lyRC4lTjbRX34GhTj3vuRibELjKoShQNt7Bu6Xf13yO//hgahK/GrTV18TH5fGzS9U/93cUIbdBxfDQ9k0BLD/x6lOSiTLibnYjgvdz/AJM9fQgyRlovF8GxA2YmRo3v9qI8RrB7EDvoKc7wXW8MOJWt64s8HPY6p0RnhXllREookR/4Rz12IBSeaeJj5vDDe1HN0YHf7u5oYeREAcPbDcgMf8XtOxfACj2YeVTJrsdWOOWLVJaNdVZpu45s1wojBDfLH+cvbE2XCs2qyqdCwAtw0P8ANkzRRXHlvmTlww/4JAWwKVHmKGIPoddIiaOLnbs4/HWiPchCBDUahagl6rD+cqFUlkwqYGFFu2e5st4W7n+Y2HIIxMxf8PPux76DIlEXfiSvg0dl8+49wzbnc4X/AOBUpDruTz8bBmd2/DQPHX3wxnoasO/nZnrgXyv8jshFtO4fionChj7vw8e8+9RMg31Aa4DFfaHOgoBxoTOrfrPdTg4n/ASLo3sZfFP5LWThu4BblWmDBhfDzbWrGGGXvicTw0EncpGGEcK1PDzX+tSFKrlS+QweKm0krwrvigAEAe/IHLdP7RrMqNafyZ1haa/ZfG9l/fmmmZE8DOgt/wAtgs0yDI+k00tthY/znRdBy4AfgY21qFBCuHcean/mCBFI7Do5VxtJWo69xP8Ag/gwHSGfaMmmtPtyTGp1xGHZBpd/ziEq5XI8/wBqzNcVwUrCcUl2q3cLj5pwZChK+4fFOIBxK7oIvmmDNpD1rfDZvLYhrjSl/tPP8KJsBnio8RUrW7QGjwjzZ8thNYs5APl28fbfQmhPmAw5i3LYwQ2s7MKDAs3HijAnmgTULHZy/wAr6pdqXQjeKeB3WTxVnd55ujQgkZP1YBilNilBiCI+/wDTpSNTo2uWHrigBNuJE6tqIyJeWylm7sPw4fY84knjZf8A/wDH+dino60L4doD5XtotZ9Qh8+iDKipEaZCRmQD8PK9bsCoetFKhqAjszdlp8lrEp5+XPrRBRCyfqMx4gvDBUia2Xa+XftuzdMJ53eVFEXnO7tQ62ax8FHGXrPmsBTiL814slRWhECdqAABBp+IGbfC/Oz7eSfOoMzaAz+QDbnKy+MJ7z7dg2C8/j9W6SAmuJVf+FXGXrZUxC3ofNfUab6IZfgqVua8yOkzSJaLcdY0xQmbb5KxX+4TwhZrDS2JnfrTd0oiiEZB+mN1w+f2naXXdv76uw9qtsWq1CkYwRdo4y1Ywwy/LOLmI+IjsaelLHAh2pC799FFtsjd78BPtg3nPW8vfEiCJgaKV74vA18Kevbss2fBcetYn6XBAUzF8BfmabLeWQ2z1rQtD4gz/CCtM4J4a1FBMJF2Wkz0DI9a4XHQ5Y0IQ83c4mXswlcv/UNTISK9GfQNgDoyHOwnl7YWOI0klegnL8AGBIlxobVsTpcHKltt3W/3Dl+kXO743Iqebi72gaVQBnRfLebH+P7+EcEoZP8Aw+aXgWw4OgZegBbS/Z0GdWw+JF9Hh6tzK7qEBva+2EtRvTtC7C5z2NLJY3HL8OdQwx1yw9m2ynjcjrap4Fdc5QfLz9BIkw92Y8SYxZPJoheMckWz1hovh+js2Wr9sfGwcDByWcv55fhQNGX8SYH9pc8kPBuqKhlq8AM3dUFexvHgdKnktNJ0igDNcF7vwdIrHRzqIaTIUA4tnk0IkjI7QOjPlUiTDKV2mnMGFhk2xU1rJ3upZDSlxGHVsjjL7K02Qnk43JuusU1VhnElvyvswvUYOzklf8oyh63BB6BPudUD70KoSpyXp4qf0e058fo5nATxbvnYcVK2sn+Cef4SpxcsvF4OVSnnh8LHnkcaIYsM9ALl2cQx5j4qVWqV26iQziasmjBeSpaMcph2p+VuJsQGxrHY4dG6Psn5mAbom3I4glyfAn29IuEJF9bg6+tGItz1/FFWyRYpvdft/QFgEcRRUhYqe8CADycYeyrGiAdwh7n6JYu2KxB+8VfGFc2KOKCluLfgxOB08mkJk23rLR4y4OhgeXn6QQJErBAE3E29Sv2lyKRSNkx2IdeW3WvnZLqN6zCfrTaSSVmZQ5Mli4M8lQSVe2e+48PQoJWAxqDfkiy2s5txWZQIuJB86FAdNAwAw9CMrH6ky+I50I2HRSPeAFNv4ukfOPiXPH6IZ+znfKKRquuNBrQ8lu/4TIG/eisaBeDeQPUpUoelOKFILBjAFqEdfH8kqCd+JeGoRBqdpmO1R8uYInrFWw2uru3nZKtX4Nk5gGLMFO1pgYchmO0lPWrUcmgf1yR3TDjhRNbYGBzx71d3av5KkRk5bwKGuRx8N3nNW/pZkFuMjfQnCg2B6ZrxRH64O/vg3gErN0FubfP6JimETzBshdIJdF/g/CaDmXhQx51hEc8/SkfJ0E1dsacVmlGwbxrvn090ruvnZMNT2fnZjkJz/wDDpQW8ZLf6Ry9DBFxnNJ0mK8l4YdqX5Y/AUHdKF3K1gQi7Stjl6lnJD0PmamaUJ5tfsPX358w6STTOIQHnSCJcT9DBj/bn42TAYG8Bfn1ALgoWeHBQrfyE0wXLe0gOVnvu+NicmMs5tOpHpwiExxQ5vYpbyI2++WDnQQQWPT3Su6+aAPnepl02BGiN7kiptAg9X+QlEZDzofdMp5TLZnTDrSxy+WWORB19/KdOMCHdrdIiVO1+4j9CZ9YNgcZchYalJMhMSR2qVEt6fCpI0OHwGrGTqp9ZrFyZdxiaZbljMPNLKW7X2Gj2jYBVKVCn1X8w5VhLEOWg3lCi6ZbaBGrqd6/is/5oKaYShFu5y5fn1dwruvmoG1nzXAgfThtcusAR993StdX7l8XZ40IBGRw9saKAN/8AVlpTDUDOC+V7H4BWwknPe+wJX0P6FcUPLZM48vY+w0e3Gr0Tnq3Rpr0weEahC3BZ4xhW/KtnaaPDjsN4496AAWhEqqEFGyT/AGbsvX37xXdfNQpr864Gh2bQALpzGpeFvS3PJpQsQtl3NW9lRrHlcicfZT1CCZ4+u5WrYJlVQ2JYnG/h+AeHLTZZv625bJi3/h+hE/fi9EAc0XxqKinQfHUSh5yrsaTCTWV3X4q76aAdiauVHqgQOLxr7HT7lz4LGDx150tT+3w2tapxn+qZFuMjoD81aU8RkcDL2LON8V3nzUS6/Khf0P0dPJCXX/tJGwjkdSrpXu7HFQTjYuSbnB9TqHLT5AXoZ1KnY45OF99QjpBdVGR4P2uOv4EKk2dc15Z6xSMkq3nYIB+5+hk0Q7j/ADYYCQAkDawxUSgsk3WJowIBYD0/e3K+x0/kONx4q7vUT60G/wDeW3d0aHVrAbYLcynMcLG9ufinMjW3/k7nYZDz/hyjlRYcVR7pRHcO6gln9fGRUiftH7v6pAyXMrzrGPVgBquAUqI14cn+/X/78QRDRE/bwLPesRH46lUeF6w6hCm0iAfUAkOJwBSVQbFtlhtjL9D9DID/AMGxINw+P76/oblfQ6fyFe08Fd7qJNfho3vvOxB8C4umB9yKvZpt1W4GfSg0DA4A4bDPpAZBwqXB5T/U708gl8i5XOdJTnEIdmNBhIl3doKS1wUvP+aCt8S8tVxX2ymB0iHVN+JvwbU5jpWQLp8cnCCbAFzA8cRsAEl1gOdEWEtaHfh6TTy3Wti0D0S4REnT+hQhPNCnxOwpUsxuGPb1/Y3K+h0/kOE+sNd8qJtaj9TPYnUCJ474KhtkIszF19RNj3fnUoTq/wAKWl7Xx577zH8ofjxGCTPiCL8uX3B9GPhuJW4FpDzTH3RzfSeUImt6wk2eX6EhIcjdUf5tdVh/OVCclmXByevqdcRdtBi1DX7kAiL41DPONMBko3qKO9LdquDFNif6e40TjTKIJGR9m37F1dy1CmvwV9XrXFOKO4mrC5O1nbunl+IqqO4ZeM+8KIOEjSJ6EicK4pvqGKTg5gvrsiuVzf8ADz+jgaDl051hB0UQoopQyG+R/foGQApN3bikTtirBoGRRl/weu1ODcb/AIpOe4wkpnRS2DVvfCDUbnE9CglQUHIW6Kkx/RvCrSjrA92p4GyQ9ipYMy/uzU8HOXx6XDyYvlX22nsuX9ZU541fUm2sD95r8pR5/DnWJUrdDL96fi2tCJcZ/JTWysI9FjbGGGTdXFMhhMPTyxGcxaC3MZs55/pNEUDD6xrJXW2R0TSrwoU/7dgaHFdCkoSeNbJohksLfZvaCCC4J4jnsTPTHF8lIdSF1pXE4CbcUdTnUwImCR+amN3Lf4rQNy75FOLL5eFTOWre+ruSvttPZUNp59YnGo/oIV9xrRU9jnZA8qPBUcyp2T8VyIhcTGgLpXZh25uJSd0VO3iI/A2Bs5474y9CuHb+DqtZWrOXem4P0zi0QDH9qucskdWdDL+wrTczrmXjTonFOlEJJAUXQJzyYvxy9BtBY2svsAVn1TUXGObDzgVHIbp/3S4saV26vqtPZcfRv2fV3aVjXyqvbPfisYrBPAPj8aJ4HglzmSVbL5FvD/hy9HXJgaUZYbMeL21N1x44UcPGJddVi/qJItGQDfNQ7GF3d38CrMqU5TKXym1Zu0cJ9M0J5ul2EqHp4GouMdJ5SrznIZ9kd6JDrkPur4rDX1mErFAM5vnW4cwjtscK+q1rt1fVaezNtPL2RLp5irHR/wDJrHx/HibNKhLMWx/QQ9GIChqj40EKEGDAsbhSJttciWxhl+oIXdkH+ZvoKV+Ih6vNfnkUHFyyu+Dh3o0HGu8l81gCE5M0VoNh2juDeOTSSMXFameME7sYOh1owIGAEew4V9VrXbq+i09mY7FEv3Mqg1E/pxq+79hfw/It+9u+/FMJb3IPztLVo5NUbzOjBIB3al7sbsYXODdMaNDlbEwdEyf02sQjY/eCkP6q0cCsw8WbmrN2WaOcXcjp42CrhkDd1P5Qqws5lWWTYklxf7USxbwN9zq7ucxWz19xrmjotV3rf2XBr6LWu2V9xp7M9mP4bJL9Teotc/041qry7+RDmeiP9Vuc718NtgY3bLpqRW8+DxRnJj1r7g/FWmuCuFft/wBIkvEvN1binEvdpl1dweKMuHBXz1+NoCEkzp9bGXLzg+ikhhttWMLYRzM+VDbLwLn83e04NfQa12yvuNNu+t0RWMoYgPoTU0OmH/iqUN1vsB81ZhdRPu/FLsTpHxFLzxX8tkr0juqiv/tPxV7c1/kUgsesP81mdPR3XElYjwc3otgtbkAiLuTLpSxq0XY0ONC7jDmajvP0Uv1ndNKapBxJYMKBrBmOvul7HpxxoC+OSTxyaVmHznWKLNxDG6WKPhmEYPbcGu9eacrRpXNg/iD5qYAMr3uanRBifyKmg2aL2In08mr7oEvirW5J/IgwAlxHwSsGSn6+O0E0jORLuqvnBxpfvy2hICSGGW549agImUvC4HBrG+v6HBsSHX6PSsP1y0N16VAovTBh+I4Nd68+2FRpdS3sbE4dCYOCfmdaK8O+2zD/APr5HNp6rYKp1sdJpK6OIdusl6FTi7IeylByPZcuAlWu0ccvhiuzYQEbJWyvoBLU4033SzFLDgZ8RYjxRtNaV10uH8504lVDTW1WoPkPH6BtYW9wS04kuN04FEfMEurd7R+K4Nd+8+qRnEfMMNpnE0qO4Gv0gO9BEz9OaQCDzOeQh2poncgXrFWfaQ7NkZx/7K3i9S/qr7t3F/L2daoOK0DNqfFPPjI3VADApTx9XarMMgQHL2zuSQz1enkp5U502PWXltIFIDUxP4501UweYwFR0xmhH9Bl5+iJCGDIv8zTQDZt7H1tzf0DIIxjGZPYc9keIdO5YPH4rg1Be18ele1PkZnK9GgZDMYm9ZqNbX/HzHanIiFywJtnAetbjf4dkZ05ut2Utf8As1j5+xETGDeAKFUlrb+4tGIBSzfhoPceS5bA1q9GLC+9GrjVjziwuHIfOxiYEqsRV4rn4x5m9OPLoob3kHq7vTgMJN5c803KAhaGgjoNhkpKdfz4vz7nj5bCKt5xPz+h9rOA12KBfWxThNysNAUlAZrFPAfn1G1WfgBjT2Ad3+T/AJQkb++KYcTi+4xMCVWIor7u9dDc71GwaQ/+c87bDohX/qfHGi/csyZjx0Na5LS5rvdX0hmw9xNkkYvPP4/n0YZ5dbYEIfqPaILsrAKsXlkbfXXpSCT5QPGpkLenypB0e6TgeUUdn7vs6P4Xtbjge+wgyutbeVZ5boQHlR4qjmUOwep4TNtwGXN8VbNEXD+lfl6iOIPA40Amxkz6YYJYT0TFomTGybG9puoDLgKOPp5UQtoaAMthNBS1zfd+6tQoXLFXxTNnjm1fgy6+q/defZLjbrgfn3OxpYUfG9koQlTkU3qANiX2jZvPoH0K3CsV3NjQLQlsNSgMjS5n4PtaVPpmpGDOpBMijhWUEDoyfLlWJULdDD96+lQJbFXxk9IPu+ggy/Rk4OkdfVjbWkLr5kjesOYrXBpRecU51JHOOG6mir5l8VNI6CydZt2qH0uTzZDd5FZ7uLg3f1WFtKWg2FleBi06BYkg3WHHGgykyBO1bmLe7qQJMh55q4rvfWD54XKdj/PTNci6fxsIyANvLezIpRxiH/Qc3YhigzX0pcq0NtCeLnxoUEViJRTlS4LODLNo1EVMZzHQ6o8/wfa0Bmfja3ODvUB0TZY0MXjCasLkbSduyOfpVfLHSw7tYIX+KD5osYMtAI9kyOFHnXeBc8UZHCjx2x7VipdUNYu1LMetTLGqLJwPZAy4JuD/AHYhlAuX+vz7BW5yPwGycEkWFcbo+zXXXXXXXXeDrW5OgNlycHqEvoPEwEMDGdZp4og+oU8x+D7WhHUeGt7xdlRHSfRNkt+kVOoETx3w1DbIRZGDr6MvflqJ8y7V+H5QrpI+K78bJKt1IP8AX57l7NOCTx7rAIfAj0E+PiifwlE2ObkCfwfa0erXpTf74tQ/fdL7JXuqg+BYXDB+5NXs02aLeLPrQaBlcicdpUe8phoJ/JQxl1OdLjL+ZsU3IWM2p2j8+Ikrvo8d6cXAdjiiswjITOPn2P379+/fvz6LXBQNyQCITZIzIPAu5nztCqktYDGowm0GlrsKhUrHGhB3T8L3EDPwqtC+xStxkdFs3dGh0awG2CXI2qeTL9aDVQSn7a/khMyTLPLYBlYZ6G69KO+GBuP0CQvOwW/oedlwYRPbMVa5xF85etZ6ceqY8x3ikYUTESrnnwXf7lULEeWJ3YfFLIrkE8pUmmuQ4um5sdFlkQVi6cZLGXtZXcZtUgMk9ddddddb5AlncY4nWuND0DW/nytjnd+T6sbmAptJ7grvtkDNXFWvcknn8djEF5OkroLSq7EZQWTLM/HL9DGrBM5X8pAK7tdhNEAdsPh30Z1jGvaJ60duw77z8lIkEJifjBd4vxXHKrez52zj8O71p5gN+1zlRTzNGarvycvxnaPxurTSEQlPHDYOrA3111aDCebI/RJdOrCzb9KTkkFCOzGlIZHRM6cJJGKN7Lg0I3LnqUHjrp4MHzvp/d9p/tTla5uiFZgVgZA5/hhJoKCA7731Mmfjdn0TT62eHQDhOWPWrOEGkDhyPzREohIz+GMzphgONBxcMFjh+WkQhK5V2NZVeFjqtHVJEC+r+kFI7JyN7fSWvs/GuzCoF85dCg4mexzuc6ESRmfykgsej86bcHoELXxUJDSpo+thYZMSKuQIwwxpfFZykb/2Hjh+CrL1xB1awlVhcF8uVSq9ZA5Z89ugKHa+eFCsTAXvuX6bgMgpudN1GrlfGHtccNpbCgB591ucq1sRC9UR1aNTn/mGjAA5jP46QfQi6uIR3VAdWVuMXepMXJ7HsEomh5N9b8VAsjQ0eFAhsb+9qe7vPkQd6kwrIl1Ld60cN2Ut5qNtmzgeAttQ48SyvAqRTEMD3/TRsCsY/UN8aXxcN1b/AOIqR1u2jhiUiSxMtsxhSY7uWOlQ4Zu17Vl/4RA/ipB9BstTzV9j+1jcK3bB3VNvJ1Hsl92FkTfTxkyDd7zxojBq4+lmdKw5WzT2QgqhrCJlQAU2R1dKHGR9DQytMNLuZuJ4H9oDFBmDnly/WY1LDR/2TGmgXKE9FTwdk+CoY1kI2w+1i/FSCI6Dt/tXHTz0cHhRg6ebU+lT65e3hQ1mQeAvUkLYEu60dxpME3GcwEVZ8zL1ol2pjMjkx6vo9TaUVWJK7VwpiduPaofQt7uNAC+bccXH9k2N4AvXGpAzm6HZkqMtACiRZkDSoTn3r/fQlwwszHmRo/B/fv379+/fv379+/fv3422kiwvgpW6NdzZ9s7q+k1n8UkmaeaVg8rE3BjCfFRqZzPlbtRw8wAPb9u4gzFJSkveB+MlwBdo5+kWO2RXc396RXc39EQMwScVSUuPxf3MKZpqBS3AHU+Nmqw88OshxH8OuuuuuuuuuuuuuuuuuvBDpzLiWrgYtiL/AHYqLUt9c9qr0Xew9feGlzB1PdenoCantRUs/wDjfuT/APSqPmoaElvFzw/iwDnT9Yruzi8dtTfkeO07KHRvboR1rE9yHhQatgUbDIS4pJ22jskC09oF26bdor/yBD9zmVB1h+KctJaM5XOk08AEhmP4m9Xzq+k1nZxmqfV/JtAyFzaMuZJzqOs/D0Fpzk9tNtEYApi+Ytp3uBBoTQoQMA2xrdJyzzPKv/WQhW50H7kikOulWE0RKGbXxbuf0ty/EcvV++uRvYmWr0oDX4/RpI8NuT7njio5mleRz440Rv5lD2G44r2eRlzqUdrrjPN+lPccQOLfgy9AzmMBrIHInrUpdA13x+7WUS+oHmlRW3O7k3oOpRaRNfwtzQtbx33VuMPHZ9dkvq/QdFi3Zflj4pAyOOL9ZKHCjO7NzxRMj4jsc5Vh54flFBSpzvmlzF5CToaMTLCDrsvarN7ZB8jpFBUH9Ac191YvH8z1Wbx9DvZE98mjoGl40rhd29/g/u2viUDJc7PbYLDtvas31FG0FIl/wdxDdq34DX0dwbItG9lX3aS9SSQ3pXftLoWeZQCzJuwnij/Vsz7PUf1y30aLAU5C8rvesHVhv/F3evpGWVxQMZIby37Llw2uDsJ5/u7T7ycjf+OC0+hsguJlsHivNv4nihoiaA6LUGEpaV80+RTGaMojVO1LAIbnzRHOsUKlYkbY1JnGDOpNcLzb7Ao5rurGpzqe8fGyHUl0/wBVKnOHZ9meI9qdJTGEZx82r/J2VB8toSBO+jtRYyuFp5ovhzgpcKNTPSsgQod5vV1VMvwT52D8xnQrrp3iieDGyDA/eNlKF/53Pfx9GKBTikOPqwWnMKwm4Fn3MuOHCpHf6t23nbJ1sZ9xrlbsfXhsdXgCpJDhwfZzrHCkl31BYdWlnbE4UqQQyOOOc2Ly/euDdgSUk/LZL9uPuX5hh+HW+PVJ8I8Gzjxe/ZyeUyujwvUeA6o2CkJckn3HtiUF1qyugXnl8Z+/OQ8DkThQGGZRl8HHuqBj5PivS7IGM5FIAy4Ss1AXbCF6xKDEnSI6E70QdSh/IovYLC+/e1SrRX9ig8WT4ykVCQ0vJQBwdaLYlVh0/PplOrHN2RVtPcXZNovqcq3inspQOoejjRCYwtxdPzscD1py0eRs5ccLtFCpNy0cbU3DcWXiauqfoY1cjTS/mmGN3jqLV3RUVuPsrwUMhTF/9O1BDFhC+5iz/wAGtEhjC1KKAuMHqs44Z1l1nEngz81FlLpLeo/FIoOV3KUBi90olbmgimJiV52nWmZHCHzZVi5h7NnEW6myf6Ff8recu9Leh8VEtcSlxOBX1oAzqAN+c/yraJ1kXgpEty1eiMJdunPjhQUOWHM+tfW842oBADT/AI6fLIwbilHHeky2QnoRWNoZw1POZczPnZuS8bZ9GcNKToldHbdbnkUispVKvoVRIyVafmgHGGgGR/zCs7k9dW5p+YMeH0KtKFxEneaCcK3LLts34PvHzsAaVZuT4j0EAivHbXajBCDVZr/zTwjQQsaf1S1PkslwaiWkgtEwUbpg9KKRGUYXf2hB1FDcng2cOqdGwgZkeoCMK4Ho3xUCUhiRUjecET55UeG2Tf8AOCBN0E12B0qIwoOgsmzJlqKXM0uTZQ5M2cGnoFWNDDT9sKNnAAyObnRkEHUmpS9NDPWgCCxkf9CKM4On4oths3OJ2qAsTLckPn/pY9lN91j52tjjqZRiImTeBPf/AKU4Oe5hHfbKN8vLRgRh/wBLqw64NrYicUt6B/0tzv41+NtsGM3av/SMH/SmC/wy+Nv1ByrfyO3/AKUShZm2kb6O2NI1x7Qj4/6USf4JNocEBGt7DpB8f9LOh5hH89EYkQm+X+v/AJ8P/9oADAMBAAIAAwAAABAAAAAAAAAAAAAAAAAAAAAAAAAAAAAAAAAAAAAAAAAAAAAAAAAAAAAAAAAAAAAAAAAAAAAAAAAAAAAAAAAAAAAAAAAAAAAAAAAAAAAAAAAAAAAAAAAAAAAAAAAAAAAAAAAAAAAAAAAAAAAAAAAAAAAAAAAAAAAAAAAAAAAAAAAAAAAAAAAAAAAAAAAAAAAAAAAAAAAAAAAAAAAAAAAAAAAAAAAAAAAAAAAAAAAAAAAAAAAAAAAAAAAAAAAAAAAAAAAAAAAAAAAAAAAAAAAAAAAAAAAAAAAAAAAAAAAAAAAAAAAAAAAAAAAAAAAAAAAAAAAAAAAAAAAAAAAAAAAAAAAAAAAAAAAAAAAAAAAAAAAAAAAAAAAAAAAAAAAAAAAAAAAAAAAAAAAAAAAAAAAAAAAAAAAAAAAAAAAAAAAAAAAAAAAAAAAAAAAAAAAAAAAAAAAAAAAAAAAAAAAAAAAAAAAAAAAAAAAAAAAAAAAAAAAAAAAAAAAAQiCgAAAAATiQAAAAAAAAAAAAAAAAAAAAAAAAAAAAAAAAAAAAAAABTQAAzAgABAAAAAQAAAAAAAAAAAAAAAAAAAAAAAAAAAAAAAAAAAACAxAAAAQQASCAABCSAAAAAAAAAAAAAAAAAAAAAAAAAAAAAAAAAAAAAAAAAABRADCgAAAACRgAAAAAAAAAAAAAAAAAAAAAAAAAAAAAAAAARAAAAAAACihiAAAAAABAAAAAAAAAAAAAAAAAAAAAAAAAAAAAAQAQRQAAAAAAAAQjQAgAAAAADAAwgQgAAAAAAAAAAAAAAAAAAAABBCgQBSAAAAAAAAAQAwAgAAAAAADSwARggAAAAAAAAAAAAAAAAAABQSAAAAAAAAAgQAAAASgCAAAABAAAAAAABBAAAAAAAAAAAAAAAAAACjgAAAAAAABASTwARBiijgAAAAwAAAAAAABAAAAAAAAAAAAAAAAAACAAAAAAAAAQyADSDBAggBSQARCAAwAAAAAAAAAAAAAAAAAAAAAAABSAAAAAAAABCgAAxAAAggABAiTAACAAAAAABQAAAAAAAAAAAAAAAABRQgBBwAAABRAgBAAASgBQQAAAABAAAAAAAADAAAAAAAAAAAAAAAABRAQABwAAAAAQQSAAAQQADAQAAAwAAAAAAABhQAAAAAAAAAAAAAAAABAAADAAAAAAAAAAAAByAACASQQgAADAAQBQAAAAAAAAAAAAAAAAABBwAASggAAAAAAAAABAAjgAACAAAAAAACCAAAgAAAAAAAAAAAAAAAAACQAhiQgxTABAgAAASDygAAAAAAAAAAgCABiAAAAAAAAAAAAAAAAAACRiAAAQQxBBwAAABRByAAAAAAAAAABAAQiAAAAAAAAAAAAAAAAAAAQSDgAhgAAARAAAABRAQAAAAAAAAAABCgBAgAAAAAAAAAAAAAAAAABiABQjgAAABQAQzBABAAAAAAAAAAAAASgCAQgAAAAAAAAAAAAAAABhgAAAAAAAABQgAAggBBgAAAASSAAAABSDQgDQAAAAAAAAAAAAAAAAAgAAAAAAAABCCACgBATQgAAAAAAAAAgBTQABggAAAAAAAAAAAAAAAgAAAACihQAAAAACgBQzygABgAAAgghCDwAACAAAAAAAAAAAAAAAAACgAAABQAQAAAAACgAAwSwBCgAAABABDAAAACCgAAAAAAAAAAAAAAAQAwwwgQAAAAAAACABChQAASgAAAAAAAAAAAQQgAAAAAAAAAAAAAAAQiwAADgCCAAAAAAAAQBAAACAAAAAAAAAAACgAAAAAAAAAAAAAAAAACBCggACAAAAAAAAAAABwAAAQgAAAAAAABxAwAAAAAAAAAAAAAAAAAACCijAQgAAAAAAAABTCAAABDgAAAAACDASgAAAAAAAAAAAAAAAAAAAABABQQAAwwwwwwwwjgwAAAACACAACAjAAAAAAAAAAAAAAAAAAAAAAAAAAASAAAAAAAAAASjgAgAAAAAAgBQAAAAAAAAAAAAAAAAAAAAAAAAAAABAwAAAAAAAABCgADgAAAAAggSQAAAAAAAAAAAAAAAAAAAAAAAAAAABDwAAAAAAAAAwiAADgQwxjABQAAAAAAAAAAAAAAAAAAAAAAAAAAAAAAAQwgQggAAASDQAACDiSQhwCAAAAAAAAAAAAAAAAAAAAAAAAAAAAAAQBAAACQAAAiAAAAQgAADATgAAAAAAAAAAAAAAAAAAAAAAAAAAAAAAABSCACRAQwihwghxzDCCiAAAAAAAAAAAAAAAAAAAAAAAAAAAAAAAAAAAAAABAgAABAAAiAAAAAAAAAAAAAAAAAAAAAAAAAAAAAAAAAAAAAAAAAAAADQDSgyyCAAAAAAAAAAAAAAAAAAAAAAAAAAAAAAAAAAAAAAAAAAAAAAABSCwAAAAAAAAAAAAAAAAAAAAAAAAAAAAAAAAAAAAAAAAAAAAAAAAABADQAAAAAAAAAAAAAAAAAAAAAAAAAAAAAAAAAAAAAAAAAAAAAAAAAAADgAAAAAAAAAAAAAAAAAAAAAAAAAAAAAAAAAAAAAAAAAAAAAAAAABAAAAAAAAAAAAAAAAAAAAAAAAAAAAAAAAAAAAAAAAAAAAAAAAAAAABABAAAAAAAAAAAAAAAAAAAAAAAAAAAAAAAAAAAAAAAAAAAAAAAAAAAAAAAAAAAAAAAAAAAAAAAAAAAAAAAAAAAAAAAAAAAAAAAAAAAAAAAAAAAAAAAAAAAAAAAAAAAAAAAAAAAAAAAAAAAAAAAAAAAAAAAAAAAAAAAAAAAAAAAAAAAAAAAAAAAAAAAAAAAAAAAAAAAAAAAAAAAAAAAAAAAAAAAAAAAAAAAAAAAAAAAAAAAAAAAAAAAAAAAAAAAAAAAAAAAAAAAAAAAAAAAAAAAAAAAAAAAAAAAAAAAAAAAAAAAAAAAAAAAAAAAAAAAAAAAAAAAAAAAAAAAAAAAAAAAAAAAAAAAAAAAAAAAAAAAAAAAAAAAAAAAAAAAAAAAAAAAAAAAAAAAAAAAAD/8QAFBEBAAAAAAAAAAAAAAAAAAAAsP/aAAgBAwEBPxA83//EABQRAQAAAAAAAAAAAAAAAAAAALD/2gAIAQIBAT8QPN//xAAsEAABAgMGBQUBAQEAAAAAAAABABEhMUEQUWFxgZEgMKGx8EBQwdHh8WCg/9oACAEBAAE/EP8AuNOiIEySy7mHA7p4wokxUwujxYOcJD+cMGICz85ZycxUM9xD9D/lGg1GQa56oJ+VADZcwDKQNKTsrIYNrXJMioje4R8BweOOCWdTqgWm4cMWSPXkg6BOSTJbMsETTVGBCtTse5DYh36VeNgfKgyK83YtgNFrQePop6AmNZB240Hb/HlBwwyMtQeqCLGXoc9QnYRuclLkk8Y0BykdIgEx9RLgt2/9cbPLJgcSTgjdEOA59HMbuQ8gws+8AihIcEhoILtRX88uYxwHm/xYp4LkYAL0IIHiTkwVoHNtLD1SbD+LYdySKseKf1NlFHYUB0CH04jskcgiBv3gooqSmBl5Yt12DYg2FOVaxFIoUKWHj4AOPFDVo5D5BPE1pb4RvRBGY7uMloh0WE6jp8BvKZkDGczn6CNp5oDXymtIljCMBL0oKt6AVU+Yvn/idSf8kr8KoV06E9cGn5WC1MMT8CahEmWeKM3yQnbkd8/xxBLYO3vuBLjNH/xcVS1g62NamAMIQ+nVR1D6ANxwaymBVlFoT2irxZck2FtYIua/mwmCWAYXfP0lwtqNOwOaEujwI/xElOzccz4plYE4U7LFQVNaw40p7M3JoAHBAEb/AOGe0BzoF5RZEbO3U8MuooGdsOwBcPMmyBoM8I1+MOvJLYYFhBBqUqg0R+Lz5rr4EQbrBkVvySRIeABwHPMEDVdIdSwC4gFy+h6kKrNvfIN55BAYgARuhZukKu09P5KlCeF3ygxFj0wSim+SfRKLnUYEYf4Rm8ZYPJVME9JMEkSuSdEDxsGO2Bw9C72RegK/iA64OWODwbf6TGzWMDBjKqTADggpjYHQx9wTBiSj6jN3sPVAqyO5OYN0CFwSg6BJhywEnQ/jk0jVOzObXXa3nJZWfs+zB+Y4v8GN0AnJMGTewJbKzgpqgHGE0K6oX+FBvyTEBTmDQGTwBCFXWXXbFA2cxBLxpfHqWFjMoqxNm1XqVVI5oJkd+jKr0KY/GeAMP7mRjYYnUhAn1DI9Qv8ABC/2FAnhrj0G+yHiEqtwqP058s5Yz+kFghPKpoqLAZ2oeK6CJoimzHnactowc59LMBZgDMJ46giplzwYoi8ymLOAQeDDihILtsxqH/AA3l8LiTEmDEhT1/cA0HIBghXVoy7wk78BAAAMDOeLWP43g7CP4LA3CjkCRojEIIDnNFeLTS+lKTzkf1EgbGAuHPOnYBg6uATBvRw3kcAHaDWqKQAXrDDEzWJ9/YUxk7EmFkgnYDk3mATRD5wyueRZmTFMBuNLegLRBBI7I5B1R3WHtTbuQnzr5zSiFk5eiUIpxC0IT0IACNCnYENXUQU1csT2DdAkI2vLFUJUlooZAkiPeA91l4UUWZKg+3IA60ZLHMxP3oQpzGz3R3Mqn5I8HX/TRATW8UuKDm6ii69PYyosZUD2OkIEn9PRBBS4nR8o9Znm7cqaGFgQrERgKM62gdhgjy5tRwSDpg0P5CN9hKCv1FLrISR1YguyG+QSZEYrvcD5SiRx+fCLEtSA1cigp4fRim/i1HtcIKLaDr+X/wCF0H7avAMBgR4nFoFB+v4fg3UOcoEzShGh83o2rZDUH3NkLtXGyiV51tp2LSIuA2of55YfkDcGC14+ENF6EOi/Wg+ZKLBH4IjDX9SiGHEDHCqCyBj1Ds7GjIpzwMZVBUexHR6inBGHtDHQEBoNx3xkBEoqJaO6S5rjbVI4heB6AVNG2AdnsgIlmLQnRAWIlU9ZoCVEHgMt3WUe4PW4iQ6wIAJekEsQ7k5OwcWsp58GEEqHi5daF80dEQbOWiwwe+I7uIhIcxQ6oAISYgy+aEHYZAB7hTR9QIP2bfJXHeMFuEOKfPtPYX9+4Q7Ck+Uy3fcignJDd7t5GjQgTZdQR6dz/rqOyL+zEekMjBQB4lIC9F8ONy3PO80sKiMN2I3lMoPgQsV9HEzFEAABgZ6sYznmMpZLZO479IDUgIAwAXWnHzWinL/zUTxFz/trha45hIp9/Rj48/2QzCHdhQuhrmpAgBDYeyiIgeKAfci+wCqJmPeL+ICpQSYoJpPGodpD0V6kusiZZICv7X47EItvU+IyQ8eYHWomSfs2JbphZ8cKX7Yz8WGyB3KAvYAMn4cB2yepjtwG8eWSIvGAgDfX+gkOccEQDohEpjHcFjtidQuU+TMGkbSI3+yAshP8odQsjWj1l3M6BnTFyRom6OZImT7hhn6IHuSSh0nyqwso0T2bQcLBhYNeJnvSkah6Qcyj3AeIBL7lWBCju8OwlPv5s6WGHBe72ELAhfR2ENCh4h3SFctjyTdBktMeJZqT8RT1Gi+lwBDnA45tYciKDiwdERc+AyplweBRMdjH2MkHSSxdiQsQ/IJER6DH0UGT8EgdSoAUeVM5K64AMAEZgBB9hLzRIUBaCMcwNQ0mZ3xxP/iZ3RbURaEE8lXBHEPPwbwy8oaCkDfadEAML3IighI3jcYCCJgiMiGfOruXoYxQYzMiwJI412wL/Yw74DFAQip9AzukcOSc87xYF/hnpARCTQboDgO2xJ8yfOfLKYUa5NWc1RHvLq19jhRk1BR9bA1RlQGWOTXogmcugBUzeHVXo4kIjnkWbcQDBPVRNSb+AZ4WCqZfUCBwcCEJoPbQWkBTFON9S9yFML86shqfqn77CJMlwbkSScxsGPw82sFE1FQwnVaXAijyZmiOKaFkwjvpaJ8YaLAC7/iFTgppJ8xguMLIHgNbB9iwZuyI69eALnEdlbPBfTga/X8YfYhCSgCMr0C9kHbYVoO1dfBAdvQmmicqTgN0cye+LvjqnAxU4HdFwoGhkIwuQBpieJZtxNZ5TA+zBAaWBcZhhH9FhQyPJow+Pz2lXyqR8iaKVwvPsMTTUCY8YG5pP7RnwHQUURojLPUrA6QGReU4AvRIWheAsgHsh2DMGTcASTEZ/CxS0z0H/DnBkxkvY9V8X4HvPYohK4QO8ZEpdujb4OcL8HomPWyDlAOQ/wCAAp9TxMrBiMTfCjYi+Yi9GCOgX9K7VYS22G91TWTv4mEfQhecgbsDagvM3rPC/HyWDZfzMPPUkgbRsmiAbdLmNL1wj8eFydYovAJh+DLFweB6EJC4Itkzi8GB40SgGJjDAjqSOm1RWQJE17QIUnreH2cL3b/0C8QsB+enNkyKcVxrr+xPF/R6j2HDJY6P8voiT8fKloeJ8RQL/PCLaQpvXwTqWad/JACgv50eF5a5eHvcC8wYZUNp/qGk4owMaFzDzPAI4gUMAO6inTPCpaTQjNzC26Y8AiSco4rbCmz4EBxCuSHLEkBXuhGHe8V/ZtPPFB2RnvgsP1iMJRYw6A3g+wkLpjusJwOGJ7t4ncBxKPgMR+3KAiLYTcMVERflF7s0PKFC4gUKo8pAJw5J8IPxdzKicY32IrSlkBCyAIQQCnD5a5eHvIBJok/VZ07A/jkh3fO6HSWypHKIxTynEcJc0SyNhGhmErFAnmpYOBnT+tzww5BZ+dZRwM9NFPwc5Zr59hqqbaWQMOGq2YoCfVaD0BBbHVYoe6So6F38HB0Rgin2tncRCpVt6BHIUkqeWJBKViDUXJljdYGuG3IPoMrc3FmZh0N1ttDnccLWml33Gk6TlOOBKKpDsAnigPI+8c4lxeWuXh7yDV1n/wB1WwlkHWlTvUQcF4zq8cwh9oohXlnAXHEV8k1yiIDnCLubmJ6CrmI0KzkhEPsKcPJ7azcABFh6MJY+FZbdpGhRq524CKj16xGJAw4DdhkhE0FkbizLZgAW9SUFqCImadr3Jci4ZgX+pH7qbvptHkFFxDFDLOHDRuhuIq9i0FIVkAISRm/gEOSzhBJ7el0FUVVkh4ziSeuQRyB4YD4GZhsegHrfoDMiG/4thiRzW3sN53cGeG/8MKOnK091I8xZBrbdUAKP4wdDgrpsuPqRX4Epq2CTEuaPdpBgJgaBwSmN7DY/EUOk4t0L0yIbGmQCXEgBm1pjyC8HMvN3kag/HThP2HAGAHQOBGBkFQj8Ql4U9QUFuV5vOnF0wUyPqPxLRw4oyMhXlVOynVyFGCDFEAIWjX2gvKZPcexfpx1aegFZmCJpVw7iH1vxE5PsZiQdl7GMiCjGCN+hUA46roZh4ZgNOHp/qce4XmepeBvUO4z9KbPoDe2GDFIg6oCD0/YbIxR9R4gMfcYoFF9MBM5/mGtkpTxADAdgItaEyZ98BCQhqUDZLhOdjFKFCJTSo9b8VPvJRRCsBgYp9UVEwPdLX3z5cdWCMx5iKJ6MhWgl7z6WUJQxi5LEVxwHEVizTAdSVdpQyfqJqbbhR9x+/YWOP3lkzf5x8bovqcm1ej1ryN6jWocugbIcUnNJPubiKJVDAkQsBBRqk19nkdQBY377s5QlBTv5cPLzXKXF0549oCP2ViIMwbAHQQFRj4L+a6h4AS+cDBhoOaAmUeAGnJ5boDIQS3QxNuiWQx1lYxOBhYcEImMBaYSDJl4PgyttWPVuDRsSgEWzoPUf5BI78vIO75ngjkGLH2Fbs4PNLA/2G9izB9gVyeExleIvRy4x8gUQusco7wbIy4PuoEzsxE1XdOJiyM3ahWIvju6iwdkyOeD9IYamAMEPsDSRjUrdzkmUvWQIYgACk0OkwV6Vv724c+8OFIS2Uot8ewgokSpEoEIoqlma+xEuOMRi5rpOI2EOwWihiQyvITKCZmBABB4Xp7I0AziMcQhu6aaGCA6EMZ4kUxh05kzNR7qUIY0QCKjkxtV5q9TPxsLLsWgCrg+zWSAUZ0oJN0fSEveIFfVAm4+y0nCkARwPCwPiPOIYglWKniPqJcnrR4QexvuXKheGdMVE/N1quLqH8GEwwO2LgMUpBM2z1k+owZ5Qlg3BTRDC9ECBgcnbqUGQJ/TFDG9ZxAmnFW9IeGVFOBtAFSj0QTh/VN9j+GMnWgXyw6IrX4rsDujBAyCcaqCZxRAdqmyDEDFPA3eThARTivJTWXlmjKOz5wEyGxUh5z9JWwf0pOn8aiNGyjNA3vMOPs4I3FBiaImq7+0hcMuMgFomtdAPxN/46mZ+JP7I53pLASN12qRRmGi2QU64rqoHJUCBDYYTFlHG/wAF1BnDIOVkOrocT4C9nle9KaZxqcHfPKyHdISnBxZqhcYYD4UQTEg5onM9S4lUsBJoHJjDjMIdUfQSn4B1CqwGM/UyLzRV48Xmr14G7ycTEmLNKD/5JKDV9RW2Z3nzfVDYM2vpVVhbpyAXFFNTfAgA/YAqIAYhoytE7nzt9jhkgauQ7gGYsQGr6cJirEmISjZD59mGg8mIwbuBUPhnyJERETQwfKLzEU2ZCGLAE7C8oThepEwCP8UQYO5tdnAMjbyhd9PIllUINoE5JcI1F82hLaJIsCakXheEv5VTluWmZKFdZvSScFJq4wSAQMhJemUDqbVXhD4jKeLVG8UA7HgAGiGvYGYomctY+rANg6lnke6SMQoNN3r5L2gtnwxUXQMmG7dczQd+QMUQKvDh2ikUTB4bJm2fcE8LX8MosbPpsxgQDpKClVli3CCApSC6FQbuJZethKCcJ1KAEdJZWri/jx+rEzJeVvrwl/Kqj3Y3ytdrMpfGqjWhdO9OIAxCSO5duiPpqx4BlgBEZpLQtYCDJCEtvGZKDDMb2gfkER43Uvrno6IAiLww+4qBMoxu98A6Woo/n013YV2dbL4K8dc4ERoYWkxgDrUXmejpy7fxHbIS0REQBnYQGUmnLRQ4zkTMl5W+vCXrxF3kxbl3thrrRebAepC81GCgyyEgoajgzdbqqPKxyDVFW8P2aBhHsFtRYEzIoCIfzkRWngXH2YZEbEkXlgbmSH+/BBT3aA2GQQcYodjq0P4wsKuLDuZMLqRr1MwhsZ4N6PilxBoZC7xySwuyRBEInJXnqTF8Q1wjeObAhTRo6s1RBLE8qeVvLyV68Vc5IG9BOTZgnLslP5hCwOvw/wCL6gYie8jFMULnaWnA6QDSP4spETPBDfLPqjgX4ZnM7xfUMdRBJqooWER9jII+yEEGFUaosvMsFOn7gSZ6bQIDwB4kUgoLScYoYCHcK8ZjeVUQYwSQpaDHl2Fq1XBGqCL8B3KOXPI315K/gRwOfd4p2H34wSveSLHU1AH+iIgmaO9l5HI/c6BeTmfyayBf634RjJgokf6xT1Ae2AiqBFb0LUAIxadFSsgiH5kVYYoMcSYPNH7kZ9QMXiYoEWNCr3YFNFQkCPYgabq0ovJkM0TaONSS+TUuhZ2zRnqdIv4YAjs9S4KMQHYXhbN/BHUc4nso6Ck7nnLgQHMnnbyfmQiiEhG3YLDV4lg17BHaUK9lF88nWQ8l0rxBzWf8Yp6g7UKbidMwsSmDiNq6b+UdlWOSoUgCBHUbQowxbTOQ5qHnSUxYDugaBog0Aw9hFm8nmc/IdaDpMAv50KFsFVIdg2HpZ4e9y8QNmsIICwYREYy/ARmZkInX5f8AN5YJI9MRx9sR5GMBYadTgCiJY0Gb+uQVjakGR5sQckotkmAFVLzTnC9IuUxPDB0AsxMU6xNgVBMNG97Dsj/axIHuxPY2wqykyi6ZzigE5WGoITp3PzIx8jcvYLz9lP8AtI26PF2FBwAYJ/AcmEfGjd6aeJvcTJYL+/GVQZEcMooB5kkJgVNpPjevtIGpRG0L/WcV+gDs/wAscH5UVm5X6vNQv6GJPrsS4IOnOhkN5IwvKElsZkfnX7kJkcB64BTlw/8AQLAY6JtmgtkgYyNtDbGE3gOwZcxjTIYDUhOybzsWKP8ABgiZsgkiGM1cGHcIcnsEOmLwHBCW4shDd4J2B6ZAWLoM2N1U9m6LaA9UdJaNNgPqgQsSxm2ohcC+5jARYHwHHe2XmDewgX8MQTtmGzd9Uo1qXXuQESMYEeP2snJMFj2NE7pPWvMZ2jYAw5JAGDFM7nFoEYTmCBBvjszYhaNOBecERq+QCRXcsjKIQOARKuaDTn4Tj4Xxi9okcXk7gFwQnfIhcC9A4evlaDcrB+FTYFhnsKTHfhwOmzwl/omGobqmzyMD11AgZiT4lH2UCwZyOjorCrwxmP5hkakGbbkboGxTmQtGnAvOCOhhyJfWt2Cux7sLl9K/JbjPC7v79yD7jH34b6KlyYHNHiiiZXpc1CSa8JFB2M2ZFsTQrK6A9e28AsBh+a2AKQNcqKtey8qSgB2NwE5RBrEkdGl4QyCBMZSGzmk0AURIwbnROwUFjUFC4x9Fjvag/f8A1ZhlGwjwBRi7nTcfM9ENhya8SrGlpRjGB+bHeoCShndSB2HEcg34FAYyQOcFDgc/CEoyPbTwHFyQ8mBBhXEsPV0aeOAlZ+3UhyysA4ABYx4+FF/z70EzAKSA+6tMWgjWjD2YNhCkkLy48IuvCVhoUdF3r4FMwCznfJtyYo162AplHs/gA7mCgxNn8w3akqGBnhTmMWRmvy9HhQ6FVYIUvz29DjvZWk2Ug5xMiVdNlAuRWWnJRAvTeSPnP0lbB+EOzgFShAKNt2+DDo4NhOYf3rVxFoggh4bd1LheutRMDyRk88YokYcDzpqOiOzRIQ+tTKTT1nDtlEitlzMWZoMIS0CxoXPOLtEGgCCUZpPqcwCe4pAJXsjV2xSP+dkN+nRMd3BHp2KIkzlFQiEyu4zZ+7FkADV+3r4g4eJl6zO+Q24ck70+yl532Mlk9pODSyGJCAhJt6TixIW3WcARcVW0q2shS4oEiYiKekxaOIMgD8AvQ477n0X/AGdgX8r0ljM5NqjX2IhRlSgE3R4QP4peL9lO/Q3uamDxb2AbDksYrN9EXgSr1YxWb6Jad9gxPrBDBHXAADORRkWOuwyByc2n/bvvYc9vQH1evZ8w4L2ZtZGNRekX+SOTNNNNNNNMQscag7jAtWewd1mVKOdS2nA35XoAnyA2jGyF0lG4tPQ472Br9l/2uUMfS3Cy4hrYUEd4NkZ8W3USZmYCaLunAcWYnxAKIxhxC4+qfkQdUPsHBjBPCx2vXwv6i4HnV5rIUBb7hwu9tiXrJzHoB9Djv/rXP2sAPukNybV9LPMcII8U3NJPsbyKJVDBkRsBBRqE19nk9UBaQpBoP5Igux1gepMqpSoEBrAI7ApSb0rNSKxFax09fql1O9aBC4moi42MQcn6cqW4MTyEePHjx48c+vnG89wyvsdI75izWWEai03/AIsBnI6IhRHZRNbB1U/cNAPRf8Zh6KKQSJB32Oqg2LsGBFIA6JCD0/YbAwtYjsKBcN4hEJD6nZn/AD7PpzNjP84v5EKGbAjQEB7AWaZFB1t2VgiqMsV2CBRFY+DmhH7xg0NkmOd/IQfa7MBBuKGJDIlFRH2mJQLodN7qM3YIUqAkYCqpMqEGwJgABxr1brDnoliMs4i4dmeVKtkXcak27NHjmmmmmmfmwZvbc0k14qPgFDaVso/oeJIGMYJklKBDZ54Q4dQi+iYxD+nhtIppnZFBUqvR0AYk2AxgAtFh5nqewlHHY0RTZGZDCSNIKjDGwjB4BWuDTQYIPHDgdG+N/u05P0A5iqL0OIIGb03QcZfDXhKDlQQlLKOPqePMmJ3LkGpAWoj/ADBPTM6UbMPZMJlXfob4BQKCwgPAIgKQaIIRuhYBHsUG7uS9F2rRFiBZDTBFkHygD0iBDA8gGOfBVAQUEq/E/wC1LMnxyyML4uMWoK34PhjqhCgaC4WCUW+j5ovsACd6XSFQqQ9kIE+Z+eMtJARJIwJuAU9TGCbfLZIHKIJwIvHo28wHX8SR6GB3wszoLOBVzxNm7mpLTBCguwxYsKAUHskrc6zznemgXGjIlRiLAXQQCAHLm+Mi6ZytHC5LUaGCQivquuMQ5F7pbeRnROCL60U3MiE3XH0L54xTwWI4EXItMkudl1wK4MkcGG8nr39/QjwyA95oACl7mClHwg8/fbFxtePLG4Y1YIpuyxmhk0HswDCAbNtVxHBzZFxmwzrXI/BsIkhQ7yYGA6gELvZE5vECD8edhlSYjDAdfT9dEGUN1vBTC/QoKjfSzUX9kP8AXyCzoBpXEoEwUEwgDkEBdlJ2KNLqmh/K6c1u8j56Qgu2xCj+hqAITdPxqRKG1o8GDi7hEJRoxWN6zIfDJosZrDE1JN5j7QDGYxRJ0MDoNB6PKAnGH4yB2TmJCNomEQUNWD9sggQViqNWKOrFcvBifS9dEqX3KvGJAgOMyd2X8vtXh2+lySQLu/ribr7myK9jBBBwuwYM87yRuyDsrDLknZWrR6AGTJ7a9PZzRaxOT/vwMFDGdEESnIg0XBgNSIQ2xpD7OAD2wsDEQT2Y+wdw6nEDoQIHRGi795TmlUczjGlbK8f0t11y/eaNF6dD5swp+hTgtGp8sfFIZt9Q7o4jOF0DpgRm04MDUeQCFBm+gDs1PUl5HoSOJuLbIJOALxOCAjBhSXrBRan1wi6IpUyfVYvcir8u8ZahjCiTvIAbnaMkb9sCB2RjKEAKX7s8Do/XzyqtpM9dfQR48ePHjx48ePHjx48eOCcYDthwnGKg6/WvrRkVSUA+5kEv49l+lKFHwSuR+ucIPHUTI4lCoiJixhAuhABOZlj4PdzhIwSGPIufffpusJPcP1YS5Sbl1Of7BtAiCHa7ucBEEO13cA9AWCZ8BTTnvKlfjbUflaRSgQWxpf8A1cdYaIp6OaaaaaaaaaaaaaaaaaZ2pOJ6HSWhT/7wP6sxndudR2hsJ2izEBPFxjTnHFJN3noI/ADjTJJ/dHm0H3mOaY7VeEkY9L58AcspF/Q2SA3U0gmzprQ5rvkQ3mu2ZQQAhsOYYwlbwZjkCq0BNPNgaV9penRwAWcFMvqADhhsD7zD1wGC0XhDM4eqa1Uhi9wzgj0hJ38QUgR7xshlu/ivP8D2lnUISwTPQGLqojEb20xJhsW5bd4CLeSV+9OLmGSJuqFAMiAAwAuytCSiYk6Fk5EDnhGV8kETLbR7zC1gXkoCFubpIhM1aCXARyfSc7y65jauysF/jQQouS/AZWMSbkuQ8sRjISFTVbCJMzpvbgxvo58h/P5GfGcYE1gsTB4X3wBGpowdXYVKDU8AfDgl6eJTU5RFhuGX7h73PkO1j2yCQRexyztbk4PiwYcB6L+UYv7V6IJfUsGCrtktf9DhBCQolrg20mNkqQUAEGSGQlOiVuY3dEG0gXy0aEAiVEz6YFbBTjWoORBhZprkMBIdyuz3UCZqUxMD1qU8mD1s7j5IDgBNaoSla9HWP3VZSGAksNGPpPe1dgEBHScSCyf+wkzfwj2IXDB9hFCPQ+bca/o7lO9+Ydgh1Mn43zxYDBAGiECqJNWbYlTSIvpkd1UsF7C2wQFXEqobBPen12DryHRFPpUwA3PNbhOVZdMAqcERoBJHHH9BYaLdtho/ewaJT/vpQGdA/T7GLMSF9lHTymN/LFBiKiwjrdqfmmJMmBiCfKdh/OeSXmQtTvQcMtKRrHJB3IxhmbHqpjGhlzExyJAiOJcvAYCwbAK05KHVD5I0XnTrrIjEBQDd5QiCDHRxgjoB6lJ4puHcpX3gTX2KWMTH2qfk5/sF0MNAwiCcYzQIXOLH9Vd1gCEBR42bEFVIwvuOwMGb3w4ktYAbwvytKgmcChjY4dxHIU5N1vCIM1EBShUoABwQBG/FjZrJxh9xFjQNeo/lGKf1txsT9nlihMMQkHeDR4KKXZ3smZ4pMMjRiiSc7QRNEU4h+P2RMGQFPfRWArcuYThrscJ/lIeWC0kavQRDXVHRDiZk2FCL+zYw8JdL9FFbiOZO0eCqU2E+ALVRYcsLDJTACqdfOiMaB13LvfzuijJ6hRyloh2FtwZJsMXlJnvhqEPZZtXOEQ+rD2YjZIoZGqWZukQDakyN6NPYN4fuRywlaHNIrc2IBjOEVFAmCE1TqURlwCGgIAsosdlOFlZ6ABZ+pgVn9Rx6fxWVMTWcBkgwQzuULvxYyLMaywCiXA14beXL5HydhiwZPGBV2P1UsRk//BDDdmZ2Swo59PR6kIcBL8pAZULI4RaxPGl6blFCxEgye7mMv8Gdjq7pMlN1aYf74iAEMLENYMRLuHDPuRr5ogUP9wKDRzz8ExFuMDRUnI5FeX3s6AesIGcATZLzSCBuMl/TJsobfUT82QJlhF/CSFYoPcEUmdBs3NkzWT3/AEQkODSOPGKzqYIUBvtyRMiU5Jqg2sRXUybYUKHjirzR0DDjdJY2KtDQ6JAG/wAcOoxDwnqEZjIEN2R4IgHK+CiFDDRzcs0BrHBp7Jr63caxxXVGGQcgS89UzZHxBfBTJPAEJiIVP7VAm3Z2FgAf5gEoCEGr8ih51kYOYPAYznnyhwBMoFfUbGzHyNkzRwJps4BY/CNVvaAvQ1UrO4RM/wDNPMKlgUro3KIFyx/EhgVj6QiaM7ioCZzQEbvpIOqCiYZ7qhjZCbDZFQc2aWqBC+xgjRYyMZ90OaCiECmvnq0zxyuW8fq2NwuH+cwwmA6oV490CAAAAhLBQCxsHGF8q49nAqkwbhWNH9oIohDlAUzmZMUHMV8GYHnlATR3Tc0RIrAu4gdCExgIYAb/AELIJerFWxMIGAUQsEa+lcisA7OXQxdF7f6VnaAOUM6LZFtNUIcVoXlHf6UioBvMktAWufJpv+lgojQR5VTaVTosEERXdP8AStZ1BbkdkbD/AE01EemnmLSwt6n1P+lvjaNjPDqbRYO5qJOjs2n/AKWkFbq2vQSoKaEQ0z/S+kDvWCHpwY4gMI/cf/Ph/9k=;" vertex="1" parent="1">
          <mxGeometry x="286.5" y="300" width="147" height="158.07" as="geometry" />
        </mxCell>
        <mxCell id="nkKxCPhpaLayalUOVt3N-2" value="LLM" style="text;strokeColor=none;fillColor=none;html=1;fontSize=24;fontStyle=1;verticalAlign=middle;align=center;" vertex="1" parent="1">
          <mxGeometry x="314" y="440.00000000000006" width="100" height="40" as="geometry" />
        </mxCell>
        <mxCell id="nkKxCPhpaLayalUOVt3N-3" value="MÃ³dulo de RecuperaciÃ³n de InformaciÃ³n" style="rounded=1;whiteSpace=wrap;html=1;" vertex="1" parent="1">
          <mxGeometry x="550" y="20" width="170" height="60" as="geometry" />
        </mxCell>
        <mxCell id="nkKxCPhpaLayalUOVt3N-4" value="&lt;h1 style=&quot;margin-top: 0px;&quot;&gt;query&lt;/h1&gt;&lt;div&gt;&quot;...hjdfj uhjdf fjsh...&quot;&lt;/div&gt;" style="text;html=1;whiteSpace=wrap;overflow=hidden;rounded=0;" vertex="1" parent="1">
          <mxGeometry x="50" y="20" width="140" height="60" as="geometry" />
        </mxCell>
        <mxCell id="nkKxCPhpaLayalUOVt3N-5" value="Respuesta" style="text;html=1;align=center;verticalAlign=middle;whiteSpace=wrap;rounded=0;" vertex="1" parent="1">
          <mxGeometry x="85" y="362.02" width="70" height="34.03" as="geometry" />
        </mxCell>
        <mxCell id="nkKxCPhpaLayalUOVt3N-6" value="" style="endArrow=none;dashed=1;html=1;dashPattern=1 3;strokeWidth=2;rounded=0;" edge="1" parent="1">
          <mxGeometry width="50" height="50" relative="1" as="geometry">
            <mxPoint x="75" y="404.03" as="sourcePoint" />
            <mxPoint x="165" y="354.03" as="targetPoint" />
            <Array as="points">
              <mxPoint x="165" y="404.03" />
            </Array>
          </mxGeometry>
        </mxCell>
        <mxCell id="nkKxCPhpaLayalUOVt3N-7" value="" style="shape=image;verticalLabelPosition=bottom;labelBackgroundColor=default;verticalAlign=top;aspect=fixed;imageAspect=0;image=data:image/jpeg,/9j/4AAQSkZJRgABAQEASABIAAD/4gIoSUNDX1BST0ZJTEUAAQEAAAIYAAAAAAIQAABtbnRyUkdCIFhZWiAAAAAAAAAAAAAAAABhY3NwAAAAAAAAAAAAAAAAAAAAAAAAAAAAAAAAAAAAAQAA9tYAAQAAAADTLQAAAAAAAAAAAAAAAAAAAAAAAAAAAAAAAAAAAAAAAAAAAAAAAAAAAAAAAAAAAAAAAAAAAAlkZXNjAAAA8AAAAHRyWFlaAAABZAAAABRnWFlaAAABeAAAABRiWFlaAAABjAAAABRyVFJDAAABoAAAAChnVFJDAAABoAAAAChiVFJDAAABoAAAACh3dHB0AAAByAAAABRjcHJ0AAAB3AAAADxtbHVjAAAAAAAAAAEAAAAMZW5VUwAAAFgAAAAcAHMAUgBHAEIAAAAAAAAAAAAAAAAAAAAAAAAAAAAAAAAAAAAAAAAAAAAAAAAAAAAAAAAAAAAAAAAAAAAAAAAAAAAAAAAAAAAAAAAAAAAAAAAAAAAAAAAAAFhZWiAAAAAAAABvogAAOPUAAAOQWFlaIAAAAAAAAGKZAAC3hQAAGNpYWVogAAAAAAAAJKAAAA+EAAC2z3BhcmEAAAAAAAQAAAACZmYAAPKnAAANWQAAE9AAAApbAAAAAAAAAABYWVogAAAAAAAA9tYAAQAAAADTLW1sdWMAAAAAAAAAAQAAAAxlblVTAAAAIAAAABwARwBvAG8AZwBsAGUAIABJAG4AYwAuACAAMgAwADEANv/bAEMABAMDBAMDBAQDBAUEBAUGCgcGBgYGDQkKCAoPDRAQDw0PDhETGBQREhcSDg8VHBUXGRkbGxsQFB0fHRofGBobGv/bAEMBBAUFBgUGDAcHDBoRDxEaGhoaGhoaGhoaGhoaGhoaGhoaGhoaGhoaGhoaGhoaGhoaGhoaGhoaGhoaGhoaGhoaGv/CABEIBDkFAAMBIgACEQEDEQH/xAAcAAEAAwEBAQEBAAAAAAAAAAAABgcIBQIEAwH/xAAUAQEAAAAAAAAAAAAAAAAAAAAA/9oADAMBAAIQAxAAAAG/gAAAAAAAAAAAAAAAAAAAAAAAAAAAAAAAAAAAAAAAAAAAAAAAAAAAAAAAAAAAAAAAAAAAAAAAAAAAAAAAAAHyfMdRyh1XKHVcodVyh1XKHVcodVyh1XKHVcodVyh1XKHVcodVyh1XKHVcodVyh1XKHVcodVyh1XKHVcodVyh1XKHVcodVyh1XKHVcodVyh1XKHVcodVyh1XKHVcodVyh1XKHVcodVyh1XKHVcodVyh1XKHVcodVyh1XKHVcodVyh1XKHVcodVyh1XKHVcodVyh1XKHVcodVyh1XKHVcodVyh1XKHVcodVyh1XKHVcodVyh1XKHVcodVyh1XKHVcodVyh1XKHVcodVyh1XKHVcr8zsuR1wAACC8n956VstUVUtUVUtUVUtUVUtUVUtUVUtUVUtUVUtUVUtUVUtUVUtUVUtUVUtUVUtUVUtUVUtUVUtUVUtUVUtUVUtUVUtUVUtUVUtUVUtUVUtUVUtUVUtUVUtUVUtUVUtUVUtUVUtUVUtUVUtUVUtUVUtUVUtUVUtUVUtUVUtUVUtUVUtUVUtUVUtUVUtUVUtUVUtUVUtUVUtUVUtUVUtUVUtUVUtUVUtUVUtUVUtUVUtUVUtUVUtUVUtUVUtUVUtUVUtUVUtUVUtUVUtUVUtUVUtUVUtUVUtUVUtUVUtUVUtUVVybrjxA7drixwAACtp7Ap6fYAAAAAAAAAAAAAAAAAAAAAAAAAAAAAAAAAAAAAAAAAAAAAAAAAAAAAAAAAAAAAAAAAAAAAAAAABHpDHiM2PXFjgAAFbT2BT0+wAAAAAAAAAAAAAAAAAAAAAAAAAAAAAAAAAAAAAAAAAAAAAAAAAAAAAAAAAAAAAAAAAAAAAAAAACPSGPEZseuLHAAAK2nsCnp9gAAAAAAAAAAAAAAAAAAAAAAAAAAAAAAAAAAAAAAAAAAAAAAAAAAAAAAAAAAAAAAAAAAAAAAAAAEekMeIzY9cWOAAAVtPYFPT7AAAAAAAAAAAAAAAAAAAAAAAAAAAAAAAAAAAAAAAAAAAAAAAAAAAAAAAAAAAAAAAAAAAAAAAAAAI9IY8Rmx64scAAAraewKen2AGdDRbEI28xCNvMQjbzEI28xCNvMQjbzEI28xCNvMQjbzEI28xCNvMQjbzEI28xCNvMQjbzEI28xCNvMQjbzEI28xCNvMQjbzEI28xCNvMQjbzEI28xCNvMQjbzEI28xCNvMQjbzEI28xCNvMQjbzEI28xCNvMQjbzEI28xCNvMQjbzEI28xCNvMQjbzEI28xCNvMQjbzEI28xCNvMQjbzEI28xCNvMQjbzEI28xCNvMQjbzEI28xCNvMQjbzEI28xCNvMQjbzEI28xCNvMQjbzEI28xCNvMQjbzEI28xCNvMQjbzEI28xCNvMQ7dP7HpDHiM2PXFjgAAFbT2BT0+wDkdcR9IBH0gEfSAR9IBH0gEfSAR9IBH0gEfSAR9IBH0gEfSAR9IBH0gEfSAR9IBH0gEfSAR9IBH0gEfSAR9IBH0gEfSAR9IBH0gEfSAR9IBH0gEfSAR9IBH0gEfSAR9IBH0gEfSAR9IBH0gEfSAR9IBH0gEfSAR9IBH0gEfSAR9IBH0gEfSAR9IBH0gEfSAR9IBH0gEfSAR9IBH0gEfSAR9IBH0gEfSAR9IBH0gEfSAR9IBH0gEfSAR9IBH0gEfSAR9IBH0gEfkAI9IY8Rmx64scAAAraewKen2AAAAAAAAAAAAAAAAAAAAAAAAAAAAAAAAAAAAAAAAAAAAAAAAAAAAAAAAAAAAAAAAAAAAAAAAAAR6Qx4jNj1xY4AABW09gU9PsAAAAAAAAAAAAAAAAAAAAAAAAAAAAAAAAAAAAAAAAAAAAAAAAAAAAAAAAAAAAAAAAAAAAAAAAAAj0hjxGbHrixwAACtp7Ap6fYAAAAAAAAAAAAAAAAAAAAAAAAAAAAAAAAAAAAAAAAAAAAAAAAAAAAAAAAAAAAAAAAAAAAAAAAABHpDHiM2PXFjgAAFbT2BT0+wAAAAAAAAAAAAAAAAAAAAAAAAAAAAAAAAAAAAAAAAAAAAAAAAAAAAAAAAAAAAAAAAAAAAAAAAACPSGPEZseuLHAAAK2nsCnp9gAAAAAAAAAAAAAAAAAAAAAAAAAAAAAAAAAAAAAAAAAAAAAAAAAAAAAAAAAAAAAAAAAAAAAAAAAEekMeIzY9cWOAAAVtPYFPT7AAAAAAAAAAAAAAAAAAAAAAAAAAAAAAAAAAAAAAAAAAAAAAAAAAAAAAAAAAAAAAAAAAAAAAAAAAI9IY8Rmx64scAAAraewKen2AAAAAAAAAAAAAAAAAAAAAAAAAAAAAAAAAAAAAAAAAAAAAAAAAAAAAAAAAAAAAAAAAAAAAAAAAAR6Qx4jNj1xY4AABW09gU9PsAAAAAAAAAAAAAAAAAAAAAAAAAAAAAAAAAAAAAAAAAAAAAAAAAAAAAAAAAAAAAAAAAAAAAAAAAAj0hjxGbHrixwAACtp7Ap6fYAAAAAAAAAAAAAAAAAAAAAAAAAAAAAAAAAAAAAAAAAAAA+KOEwQ8TBDxMHG7IAAAAAAAAAAAAAAAAAAAQ8TBDxMEP+okwAAAEekMeIzY9cWOAAAVtPYFPT7AAAAAAAAAAAAAAAAAAAAAAAAAAAAAAAAAAAAAAAAAAAAV/lnU1TESbGGOWxhTlxgAAAAAAAA+P6KOL1AAAAAAP4fN9VG3kAAY4/uxhjlsYY39a8yGbGAAAAj0hjxGbHrixwAACtp7Ap6fYAAAAAAAAAAAAAAAAAAAAAAAAAAAAAAAAAAAAAAAAAAACv6mtmpjTIAHzfpQxIOXcH6HDlWJdoH1V5xusRfoW9WRY375V1Ec/kVFHzQ1W/tzC5JDlXVRmeJaqzyTu3vo/h89U8u6Ck7ZZXNiwKbeypZtnDURFPigl7n70Hof5TH1zVxqw+D7wAAA+XIevMhmxgAAAI9IY8Rmx64scAAAraewKen2AAAAAAAAAAAAAAAAAAAAAAAAAAAAAAAAAAAAAAAAAAAAr+prZqY0yACsOxWtyncBX09/TmmatT5E12AZTvyv+qS6nLlqM0ODJms8n6wOJnnQ2eTUMJm1NkUmMjnZUNS64ELmn8/pDKJ1Tj0ua3I5Ix830/MZd1XlTVYAAAB8uQ9eZDNjAAAAR6Qx4jNj1xY4AABW09gU9PsAzBp8YBb+GAW/hgFv4YBb+GAW/hgFv4YBb+GAW/hgFv4YBb+GAW/hgFv4YBb+GAW/hgFv4YBb+GAW/hgFv4YBb+GAW/hgFv4YBb+GAW/hgFv4YBb+GAW/hgFv4YBb+GAW/hgFv4YBb+GAW/hgFv4YB1baP8P6AAAAAAACv6mtmpjTIAM/2J8VJGtn4fufz4q7sEx5tTI+gSbgpfvQC/Dg1HbVSmhwZP1hk/WBxM86Jzmakpy44gQ+38fa8P1ImSD7IVMCEQDn6KMw6fzLcpNfm+n5jLuq8m6yAAAAPlyHrzIZsYAAACPSGPEZseuLHAAAK2nsCnp9gAAAAAAAAAAAAAAAAAAAAAAAAAAAAAAAAAAAAAAAAAAAK/qa2amNMgA85h1AMUyfSXQIJZARvOGs/BVPNsjsEEsH9f4UBXmvRxo7Pf4YY1hNv6f3GO0uWUrcX3fcZwhew+KUBLbY6h5z7oT8Snrn/L9SoaV2H/CMyv8AP9TGdl3f6ObIgAAA+XIevMhmxgAAAI9IY8Rmx64scAAAraewKen2AAAAAAAAAAAAAAAAAAAAAAAAAAAAAAAAAAAAAAAAAAAAr+prZyybmY5GxmORsZTlxgAAAAAAAAAAAAAAAAAABjkbGY5GvMh+fRsYAAACPSGPEZseuLHAAAK2nsCnp9gAAAAAAAAAAAAAAAAAAAAAAAAAAAAAAAAAAAAAAAAAAAPij0uERS4RFLhx+wAAAAAAAAAAAAAAAAAAAERS4RFLhEfpkoAAAAR6Qx4jNj1xY4AABW09gU9PsAAAAAAAAAAAAAAAAAAAAAAAAAAAAAAAAAAAAAAAAAAAAAAAAAAAAAAAAAAAAAAAAAAAAAAAAAAj0hjxGbHrixwAACtp7Ap6fYAAAAAAAAAAAAAAAAAAAAAAAAAAAAAAAAAAAAAAAAAAAAAAAAAAAAAAAAAAAAAAAAAAAAAAAAABHpDHiM2PXFjgAAFbT2BT0+wAAAAAAAAAAAAAAAAAAAAAAAAAAAAAAAAAAAAAAAAAAAAAAAAAAAAAAAAAAAAAAAAAAAAAAAAACPSGPEZseuLHAAAK2nsCnp9gAAAAAAAAAAAAAAAAAAAAAAAAAAAAAAAAAAAAAAAAAAAAAAAAAAAAAAAAAAAAAAAAAAAAAAAAAEekMeIzY9cWOAAAVtPYFPT7AAAAAAAAAAAAAAAAAAAAAAAAAAAAAAAAAAAAAAAAAAAAAAAAAAAAAAAAAAAAAAAAAAAAAAAAAAI9IY8Rmx64scAAAraewKen2AAAAAAAAAAAAAAAAAAAAAAAAAAAAAAAAAAAAAAAAAAAAAAAAAAAAAAAAAAAAAAAAAAAAAAAAAAR6Qx4jNj1xY4AABW09gU9PsAAAAAAAAAAAAAAAAAAAAAAAAAAAAAAAAAAAAAAAAAAAAAAAAAAAAAAAAAAAAAAAAAAAAAAAAAAj0hjxGbHrixwAACtp7Ap6fYAAAAAAAAAAAAAAAAAAAAAAAAAAAAAAAAAAAAAAAAAAAAAAAAAAAAAAAAAAAAAAAAAAAAAAAAABHpDHiM2PXFjgAAFbT2BT0+wAAAAAAAAAAAAAAAAAAAAAAAAAAAAAAAAAAAAAAAAAAAAAAAAAAAAAAAAAAAAAAAAAAAAAAAAACPSGPEZseuLHAAAK2nsCnp9gAAAAAAAAAAAAAAAAAAAAAAAAAAAAAAAAAAAAAAAAAAAAAAAAAAAAAAAAAAAAAAAAAAAAAAAAAEekMeIzY9cWOAAAVtPYFPT7AQ6sbOrEAAAAAAAAAAAAAAAAAAAAAAAAAAAAAAAAAAAAAAAAAAAAAAAAAAAAAAAAAAAAAAAAAAAAAAAt6Qx6QiPSGPEZseuLHAAAK2nsCnp9gAAAAAAAAAAAAAAAAAAAAAAAAAAAAAAAAAAAAAAAAAAAAAAAAAAAAAAAAAAAAAAAAAAAAAAAAAEekMeIzY9cWOAAAVtPYFPT7AAAAAAAAAAAAAAAAAAAAAAAAAAAAAAAAAAAAAAAAAAAAAAAAAAAAAAAAAAAAAAAAAAAAAAAAAAI9IY8Rmx64scAAAraewKen2AAAAAAAAAAAAAAAAAAAAAAAAAAAAAAAAAAAAAAAAAAAAAAAAAAAAAAAAAAAAAAAAAAAAAAAAAAR6Qx4jNj1xY4AABW09gU9PsAAAAAAAAAAAAAAAAAAAAAAAAAAAAAAAAAAAAAAAAAAAAAAAAAAAAAAAAAAAAAAAAAAAAAAAAAAj0hjxGbHrixwAACtp7Ap6fYAAAAAAAAAAAAAAAAAAAAAAAAAAAAAAAAAAAAAAAAAAAAAAAAAAAAAAAAAAAAAAAAAAAAAAAAABHpDHiM2PXFjgAAFbT2BT0+wAAAAAAAAAAAAAAAAAAAAAAAAAAAAAAAAAAAAAAAAAAAAAAAAAAAAAAAAAAAAAAAAAAAAAAAAACPSGPEZseuLHAAAK2nsCnp9gAAAAAAAAAAAAAAAAAAAAAAAAAAAAAAAAAAAAAAAAAAAAAAAAAAAAAAAAAAAAAAAAAAAAAAAAAEekMeIzY9cWOAAAVtPYFPT7AAAAAAAAAAAAAAAAAAAAAAAAAAAAAAAAAAAAAAAAAAAAAAAAAAAAAAAAAAAAAAAAAAAAAAAAAAI9IY8Rmx64scAAAraewKen2AAAAAAID8BZqshZqshZoAAAAAAAAAAAAAAAAAADgxAs1WQs1WQs1F5QAAAAAAAAAAAAAAAAAAAAAAAAAAAAAAAAAAAAAAAAAAI9IY8Rmx64scAAAraewKen2AAAAAAxv3eFrwzI1OMse9SAAAAcM7iAS46Ln+DpojIT7Xxx0lzj9gHKOqrmVnbAcvqBC+ud1H/R3jnnQR7tH7gAr+mNTjLDU4yxwdi1GRy/6Av8AAAAAAAAAAAAAAAAAAAAAAAAAAAAAAAAAAAAAAAAAAAEekMeIzY9cWOAAAVtPYFPT7AAAAAAY315kPXh9gAAAB8ZXXIimkyJ0ppeAEJu6j73Ms3VX1gk1pu64gVff9AX+Q2MQu0T68+XxAiy+HWulDDGnqJ0uZnum1v6Yq0hHPRc0dkVWldaThk3AAAAFR25UZHL/AKAv8AAAAAAAAAAAAAAAAAAAAAAAAAAAAAAAAAAAAAAAAAAR6Qx4jNj1xY4AABW09gU9PsAAAAABjfXmQ9eH2AAAAVzY1WHHuulbqEBn0BINe9EXuUFYNfWCTyIS+IFX39QN+mYNA5o1uR9IByOuGSNb5I1uAfDlHXmbjSOebHr8v7+gAAAAqO3KjI5f9AX+AAAAAAAAAAAAAAAAAAAAAAAAAAAAAAAAAAAAAAAAAAI9IY8Rmx64scAAAraewKen2AAAAAAxvrzIevD7AAAAIbMv4Zj07kGUmlawhX4nTveiL3KCnfzZ+NmVvX3bORoXEetDLGuazps2Mp+Mk5s2J9wyxrfEusSUgRSVjEepKF1gegAAAAKjtyoyOX/QF/gAACCTuKlMJYImlgiaWCJpYImlgiaWCJpYImlgiaWCJpYImlgiaWCJpYImlgiaWCJpYImlgiaWCJpYImlgiaWCJpYImlgiaWCJpYImlgiaWCJpYImlgiaWCJpYImlgiaWCJpYImlgiaWCJpYJdN4xJxHpDHiM2PXFjgAAFbT2BT0+wAAAAAGN9eZD14fYAAAAD4a7tIR3hyShTu3vk/Th1K2skQ+S/WOL2gQqaiprB7AQ6Yiv/AOz8fL9TiHb+TIU8Pvv3h9wAAAAAVHblRkcv+gL/AAAAAAAAAAAAAAAAAAAAAAAAAAAAAAAAAAAAAAAAAAABHpDHiM2PXFjgAAFbT2BT0+wAAAAAGN9eZD4RuVhsbkYb/Q3AAAADm/DIBH+j94AAAAAAAA5PU9AAAAAqnOJuRhsbkqPO/wCBdl/0Bf4AAAAAAAAAAAAAAAAAAAAAAAAAAAAAAAAAAAAAAAAAAj0hjxGbHrixwAACtp7Ap6fYAAAAAD4fPQHPdAc90AAAAAAAAAAAAAAAAAAAB8/z9Ac90Bz3QHy/UAAAAAAAAAAAAAAAAAAAAAAAAAAAAAAAAAAAAAAAAAACPSGPEZseuLHAAAK2nsCnp9gAAAAAAAAAAAAAAAAAAAAAAAAAAAAAAAAAAAAAAAAAAAAAAAAAAAAAAAAAAAAAAAAAAAAAAAAAEekMeIzY9cWOAAAVtPYFPT7AAAAAAAAAAAAAAAAAAAAAAAAAAAAAAAAAAAAAAAAAAAAAAAAAAAAAAAAAAAAAAAAAAAAAAAAAAI9IY8Rmx64scAAAraewKen2AAAAAAAAAAAAAAAAAAAAAAAAAAAAAAAAAAAAAAAAAAAAAAAAAAAAAAAAAAAAAAAAAAAAAAAAAAR6Qx4jNj1xY4AABW09gU9PsAAAAAAAAAAAAAAAAAAAAAAAAAAAAAAAAAAAAAAAAAAAAAAAAAAAAAAAAAAAAAAAAAAAAAAAAAAj0hjxGbHrixwAACtp7Ap6fYAAAAAAAAAAAAAAAAAAAAAAAAAAAAAAAAAAAAAAAAAAAAAAAAAAAAAAAAAAAAAAAAAAAAAAAAABHpDHiM2PXFjgAAFbT2BT0+wAAAAAAAAAAAAAAAAAAAAAAAAAAAAAAAAAAAAAAAAAAAAAAAAAAAAAAAAAAAAAAAAAAAAAAAAACPSGPEZseuLHAAAK1nlTx40IzkNGs5DRrOQ0azkNGs5DRrOQ0azkNGs5DRrOQ0azkNGs5DRrOQ0azkNGs5DRrOQ0azkNGs5DRrOQ0azkNGs5DRrOQ0azkNGs5DRrOQ0azkNGs5DRrOQ0azkNGs5DRrOQ0azkNGs5DRrOQ0azkNGs5DRrOQ0azkNGs5DRrOQ0azkNGs5DRrOQ0azkNGs5DRrOQ0azkNGs5DRrOQ0azkNGs5DRrOQ0azkNGs5DRrOQ0azkNGs5DRrOQ0azkNGs5DRrOQ0azkNGs5DRrOQ0azkNGs5DRrOQ0azkNGs5DRrOQ0azkNGs5DRrOQ0azkNGs5DRsepP4y1LIqC3wAADw9jw9jw9jw9jw9jw9jw9jw9jw9jw9jw9jw9jw9jw9jw9jw9jw9jw9jw9jw9jw9jw9jw9jw9jw9jw9jw9jw9jw9jw9jw9jw9jw9jw9jw9jw9jw9jw9jw9jw9jw9jw9jw9jw9jw9jw9jw9jw9jw9jw9jw9jw9jw9jw9jw9jw9jw9jw9jw9jw9jw9jw9jw9jw9jw9jw9jw9jw9jw9jw9jw9jw9jw9jw9jw9jw9jz6AAAAAAAAAAAAAAAAAAAAAAAAAAAAAAAAAAAAAAAAAAAAAAAAAAAAAAAAAAAAAAAAAAAAAAAAAAAAAAAAAAAAAAAAAAAAAAAAAAAAAAAAAAAAAAAAAAAAAAAAAAAAAAAAAAAAAABFJWM6eJbwj6uVon5SvbMzd0iyKj0nn8+Hu/Zcpnqa2RnY0h/aDvwEUP1qyGaiKp+a6RS9xwSoTT0Slozv0/3pY2u5vSAFP21lo6lpVHqEhNSaRoU+Dp9K5DO9kTDNRqWhurBT7+7c32GcOtEL+KujmnqWLEksCnoAAAAAAAAAAAAAAAAAAAAAAAAAAAAAAAAAAAAAAAAAAAAAAAAAAAAAABVMYk8YL9B82KNq4wNtUfeFHnRt+oLfHG7MOMubUx9sEZF1HkM1VKQAZp0tXJ+dlZh08U5H5BPSvbox1sUArTjc+dlRaWzTpYUndlJn03HTlxiOyKNGWtGZ62GAZXv6gb+JVzuiIrKgAAAAAAAAAAAAAAAAAAAAAAAAAAAAAAAAAAAAAAAAAAAAAAAAAAAAAAAqmMSemTXn4UX4Pg7sssQUfeFHn9sqjPrJvT3xbAIZNwglD3tRhrAACMyaNmYNh462KU5cdOXGY/0xBY4aF5PWpo/WTymLFRaWzTpYUndlJn03HlCZl4Zpk1iHAtcAMr39QN/EqAAAAAAAAAAAAAAAAAAAAAAAAAAAAAAAAAAAAAAAAAAAAAAAAAAAAAAAABVMYk8YL9AAo+8KPOjbdSW+ZDtyfZCNvuD3jh5M2fjo2KjsiAFe2FnM4+pKqtUpy46ZuY+DHW1MwmmqR/GdE+g05gxUWls06WFJ3ZSZ9Nx05cYAABle/qBv4lQAAAAAAAAAAAAAAAAAAAAAAAAAAAAAAAAAAAAAAAAAAAAAAAAAAAAAAABFSERfkc41irixwBQtiUUT27ssXeTimrl8mS9a5nkRe8HknUMr6ihtYGh1NfGT6hJleB9PtDCr7+y5Ni8q/mX2GLdp1Zagr3uUqfDp7JV2lkULYtFE8u7LF1k8AAfypCodDZ2lxo9GZMAAAAAAAAAAAAAAAAAAAAAAAAAAAAAAAAAAAAAAAAAAAAAAAAAAAAAAAAAAAAAAAAAAAAAAAAAAAAAAAAAAAAAAAAAAAAAAAAAAAAAAAAAAAAAAAAAAAAAAAAAAAAAAAAAAAAAAAAAAAAAAAAAAAAAAAAAAAAAAAAAAf/xAA1EAABAgQFAwQCAgIBBAMBAAAABAUCAwYVARIWFzMHIDQQNTZwMGATFBExUCElJkAkMpCA/9oACAEBAAEFAv8A+5JqiXJMXBNgXJMXJMXJMXJMXJMXJMXJMXJMXJMXJMXJMXJMXJMXJMXJMXJMXJMXJMXJMXJMXJMXJMXJMXJMXJMXJMXJMXJMXJMXJMXJMXJMXJMXJMXJMXJMXJMXJMXJMXJMXJMXJMXJMXJMXJMXJMXJMXJMXJMXJMXJMXJMXJMXJMXJMXJMXJMXJMXJMXJMXJMXJMXJMXJMXJMXJMXJMXJMXJMXJMXJMXJMXJMXJMXJMXJMXJMXJMXJMXJMXJMXJMXJMXJMXJMXJMXJMXJMXJMXJMXJMXJMXJMXJMXJMXJMXJMXJMXJMXJMXJMXJMXJMXJMXJMXJMXJMXJMXJMXJMXJMXJMXJMXJMXJMXJMXJMXJMXJMXJMXJMXJMXJMXJMXJMXJMXJMXJMXJMXJMXJMXJMXJMXJMXJMXJMXJMXJMXJMXJMXJMXJMXJMXJMXJMXJMXJMXJMXJMROqSASOKZdF3v07+KbEjVTcLctLctLctLctLctLctLctLctLctLctLctLctLctLctLctLctLctLctLctLctLctLctLctLctLctLctLctLctLctLctLctLctLctLctLctLctLctLctLctLctLctLctLctLctLctLctLctLctLctLctLctLctLctLctLctLctLctLctLctLctLctLctLctLctLctLctLctLctLctLctLctLctLctLctLctLctLctLctLctLctLctLctLctLctLctLctLctLctLctLctLctLctLctLctLctLctLctLctLctLctLctLctLctLctLctLctLctLctLctLctLctLctLctLctLctLctLctLctLctLctLctLctLctLctLctLctLctLctLctLctLctLctLctLctLctLctLctLctLctLctLctLctLctLctLctLctLctLctLctFyBZhKouTHKm99Tc6Xx/pV14aZ5++p+dL4/0q7cNM8/fU/Ol8f6VduGmefvqfnS+P8ASrtw0zz99T86Xx/pV24aZ5++p+dL4/0q7cNM8/fU/Ol8f6VduGmefvqfnS+P9Ku3DTPP31PzpfH+lXbhpnn76n50vj/Srtw0zz99T86Xx/WvHJYjd766F9dC+uhfXQvroX10L66F9dC+uhfXQvroX10L66F9dC+uhfXQvroX10L66F9dC+uhfXQvroX10L66F9dC+uhfXQvroX10L66F9dC+uhfXQvroX10L66F9dC+uhfXQvroX10L66F9dC+uhfXQvroX10L66F9dC+uhfXQvroX10L66F9dC+uhfXQvroX10L66F9dC+uhfXQvroX10L66F9dC+uhfXQvroX10L66F9dC+uhfXQvroX10L66F9dC+uhfXQvroX10L66F9dC+uhfXQvroX10L66F9dC+uhfXQvroX10L66F9dC+uhfXQvroX10L66F9dC+uhfXQvroX10L66F9dC+uhfXQvroX10L66F9dC+uhfXQvroX10L66F9dC+uhfXQvroX10L66F9dC+uhfXQvroX10L66F9dC+uhfXQvroX10L66F9dC+uhfXQvrp6u3DTPP31PzpfH9VDajWR2JrLE1liayxNZYmssTWWJrLE1liayxNZYmssTWWJrLE1liayxNZYmssTWWJrLE1liayxNZYmssTWWJrLE1liayxNZYmssTWWJrLE1liayxNZYmssTWWJrLE1liayxNZYmssTWWJrLE1liayxNZYmssTWWJrLE1liayxNZYmssTWWJrLE1liayxNZYmssTWWJrLE1liayxNZYmssTWWJrLE1liayxNZYmssTWWJrLE1liayxNZYmssTWWJrLE1liayxNZYmssTWWJrLE1liayxNZYmssTWWJrLE1liayxNZYmssTWWJrLE1liayxNZYmssTWWJrLE1liayxNZYmssTWWJrLE1liayxNZYmssTWWJrLE1liayxNZYmssTWWJrLE1liayxNZYmssTWWJrLE1liayxNZYmssTWWJrLE1liayxNZYmssTWWJrLE1liayxNZYmv1duGmefvqfnS+P8ASrtw0zz99T86Xx/pV24aZ5++p+dL4/0q7cNM8/fU/Ol8f6VduGmefvqfnS+P9Ku3DTPP31PzpfH+lXbhpnn76n50vj/Srtw0zz99T86Xx/pV24aZ5++p+dL4/wBKu3DTPP31PzpfH+lXbhpnn76n50vj/Srtw0zz99T86Xx/pV24aZ5++p+dL4/0q7cNM8/fU/Ol8f6VduGmefvqfnS+P9Ku3DTPP31PzpfH+lXbhpnn76n50vj/AEq7cNM8/fU/Ol8f6VduGmefvqfnS+P+sKlUlFI1SzGqWY1SzGqWY1SzCF0Ruf8AxGqWY1SzGqWY1SzGqWYT1A2K534Xbhpnn76n50vj/rFbfGUDYqdJmj3s0e9mj3s0e9lCNC1q/wDT/syv7P5op8uCf26PezR72aPezR72Y0k8w4Uh8k/C7cNM8/fU/Ol8f9Yrb4z0492/9aKLCHCn3W8Vl+ZsdsHet/wqfHpD5J+F24aZ5++p+dL4/wCsVt8Z6ce7ds6fLTS1FeSMZsdeqUsbRUCJ7g9HesG9pmRVu4ZUHUBApjlzIJ0AtdEbbCz1AmfJju+omWVuVL/kaXdM8pSp6yicZdLPMpjcdxkJJmfzSp06Wnlqa8k/yS+o2SY2O6R3kCyqIEBuM1jS9QO+DtViVlUpq1TLSRM/mk1XWEcwpl2lsrnuMhEanBYk71Pj0h8k/C7cNM8/fU/Ol8f9Yrb4z04927IosIIcP566dEaKQgkqU0pXJxinMDzIm4T5NZ1DMQQU3S8hmkFTUrIdpFJVFMZ1k2D+WXVFHS0CGlHyFlTJ6JnOkT10/gTpKCXRJnsd/aenXvnpjFHWjzITyk0pzakjunTKFNJv0qbDPlRQ4RYVWzWN1blstxRVZHHUFQoUcpvSijx+n/yD8Knx6Q+SfhduGmefvqfnS+P+sVt8Z6ce7dldL8UTHSaGFCw+jnSDe7L8IcIcGqdg91v6123YInmmFuK9jqbDDFg6cJ5UxZ6NMGEith39p6de+FWLcUDDTT5OaGzWaw1msKhwWvThSn89hKlZ70105VOLGiolnikJvRRwdP8A5B+FT49IfJPwu3DTPP31PzpfH/WK2+M9OPduzqVM/wCrP7R6uEeMtBRHyX16kycMUfTuPGJjqb2Dppzejf8AOx39p6de+HUeL/tFHTP5Kb7quxTagZHKU7Nvoo4On/yD8Knx6Q+SfhduGmefvqfnS+P69Rve/wBDoD4//wChW3xnpx7t2dS5ZSC7Bcwen+iPCBYlYlOLa++vUeL/ALZQqf8Agp6pvYOmnN6N/wA7Hf2np174dRoccWfp6s/maPWBTKmTyqnuytjZR389NUO7xNrl6KODp/8AIPwqfHpD5J+F24aZ5++p+dL4/wCsVt8Z6ce7dlbt2K9jpKobIslzIZsBUzpHOmIkktCkrRqxbnml3fB4afSsI4nx/Sp4Eaapsf8ADB005vRvx/8AOh1hxja+nmP+H0qZvxcmSlHqzOcEWEcI+vkhjSU0gnJEMceEuFLhFWdTlds/9FfTDxg9NZP/AOsmg5mEFRfhU+PSHyT8Ltw0zz99T86Xx/1itvjPTj3bsxw/zhVNITUE1uqBxacMKnqB4jpemrNLHpokPaKGW7UU4I6/a50CutJrhjTNOWeGOPCCGrKuRrG6ln7BhXNrwid4XurULOSlk2UtZaqQPGMUOaH/ACrph5kVq5u+LWiiQIqspCbKntNWOLPBH1Bc1BT9NKlKvHHLhVtXp1SSgVyHBAVs7oIW6mn6NhWt9RtjpOFkpRTT9IrpxcRnQzUCLvU+PSHyT8Ltw0zz99T86Xx/1itvjPTj3bunszepjTpJCSD1xwwiwxYWuLGQnkpYPT+KA/igMIcITGXBifxQGEuDD0VN6RcJkkhHL9FDShVxpm5Ii9f4oDCCGH0xlwRH8UBhBDD6KkKZbgmRJ0UP4FPj0h8k/C7cNM8/fU/Ol8f9Yrb4z0492/5BT49IfJPwu3DTPP31PzpfH/WK2+MoHNU1zNYPZrB7NYPZrB7KEd1rr/xGsHs1g9msHs1g9mNWvMWFIfJPwu3DTPP31PzpfH/WFSaSskaXZzS7OaXZzS7OaXZxE1o23/iNLs5pdnNLs5pdnNLs4nYG1JO/C7cNM8/fU/Ol8f6VduGmefvqfnS+P9Ku3DTPP31PzpfH+lXbhpnn76n50vj/AEq7cNM8/fU/Ol8f6VduGmefvqfnS+P9Ku3DTPP31PzpfH+lXbhpnn76n50vj/Srtw0zz99T86Xx/pV24aZ5++p+dL4/0q7cNM8/fU/Ol8f6VduGmefvqfnS+P8ASrtw0zz99T86Xx/pV24aZ5++p+dL4/0q7cNM8/fU/Ol8f6VduGmefvqfnS+P9Ku3DTPP31PzpfH+lXbhpnn76n50vj/Srtw0zz99T86Xx/pV24aZ5++p+dL4/wBKu3DTPP31PzpfH+lXbhpnn76n50vj+lRPlgRbmG5huYbmG5huYbmG5huYbmG5huYbmG5huYbmG5huYbmG5huYbmG5huYbmG5huYbmG5huYbmG5huYbmG5huYbmG5huYbmG5huYbmG5huYbmG5huYbmG5huYbmG5huYbmG5huYbmG5huYbmG5huYbmG5huYbmG5huYbmG5huYbmG5huYbmG5huYbmG5huYbmG5huYbmG5huYbmG5huYbmG5huYbmG5huYbmG5huYbmG5huYbmG5huYbmG5huYbmG5huYbmG5huYbmG5huYbmG5huYbmG5huYbmG5huYbmG5huYbmG5huYbmG5huYbmG5huYbmG5huYbmG5gyOV4bPR24aZ5++p+dL4/pUTHf0W2ZtmbZm2ZtmbZm2ZtmbZm2ZtmbZm2ZtmbZm2ZtmbZm2ZtmbZm2ZtmbZm2ZtmbZm2ZtmbZm2ZtmbZm2ZtmbZm2ZtmbZm2ZtmbZm2ZtmbZm2ZtmbZm2ZtmbZm2ZtmbZm2ZtmbZm2ZtmbZm2ZtmbZm2ZtmbZm2ZtmbZm2ZtmbZm2ZtmbZm2ZtmbZm2ZtmbZm2ZtmbZm2ZtmbZm2ZtmbZm2ZtmbZm2ZtmbZm2ZtmbZm2ZtmbZm2ZtmbZm2ZtmbZm2ZtmbZm2ZtmbZm2ZtmbZm2ZtmbZm2ZtmbZm2ZtmbZm2ZtmbZm2ZtmbZm2ZtmbZm2ZtmbZm2ZtmbZm2ZtmMjbZ2z0duGmefvqfnS+P9Ku3DTPP31PzpfH+lXbhpnn76n50vj/AEq7cNM8/fU/Ol8f6VduGmefvqfnS+P9Ku3DTPP31PzpfH+lXbhpnn76n50vj/Srtw0zz99T86Xx/pV24aZ5++p+dL4/0q7cNM8/fU/Ol8f6VduGmefvqfnS+P8ASrtw0zz99T86Xx/pV24aZ5++p+dL4/0q7cNM8/fU/Ol8f6VduGmefvqfnS+P9Ku3DTPP31PzpfH+lXbhpnn76n50vj/Srtw0zz99T86Xx/yLawa29Vr1mNesxr1mNesxhXjNjj/wzq7JmZPr1mNesxr1mNesxr1mGh+Rvf6u7cNM8/fU/Ol8f8lXfI4KBdZkG3rsbeuxt67EPT52wi/4armdQ9t23rsbeuxt67G3rsO9KrmVN0z/AFd24aZ5++p+dL4/5Ku+RpPF/Gud0LZhrVjEq1OtlylcmfOWLk7fL1QziZTJWSVKmUkkaoZxC6I3L1WuKVul64ZM6B2ROcHorXpkEApqtoSTsXhvhgvrWQvLbMjFK1MjwvrWQRwzIPw9RfY+mf6u7cNM8/fU/Ol8f8lXfI0ni/iqypsWmFnomCLCKmmiKGpWCZTMzpvFjFKmS4JsNcskhqWUZ8amyoJ0FX0whhbemfpUT5AxomylP7ZPpZoUQPjOopNyp15hfG19mVFHHMmz5y5/Vq1s1xpB1b46eYIJ9PVA1WZ0pljb0zYPUqRMa6CZZS6dDDhBh+HqL7H0z/V3bhpnn76n50vj/kq75Gk8X8KpRAkTUhJjfah9K1+M9NOA6mf6oz40VT8e6Z+i11Sqa01kxms2Mq99aXZn6cqsYHAq6HCRU7G24tqL06hNn86Dp65f2G8rxf8A1GOk0FvYvxdRfY+mf6u7cNM8/fU/Ol8f8lXfI0ni/href/DTvTeXhg2+la/GemnAdTP9UZ8aKp+PdM/Sh5UlxeLE1liayxNYnbESWMq/5b6qk0CxMxqI6cqQqT/vtXf6/H1F9j6Z/q7tw0zz99T86Xx/yVd8jSeL+HqBDjFT/TeZ/lt9K1+M9NOA6mf6oz40VT8e6ZmP+qHU4J6h7av+W9nUNs/hWU68wq6doWTG4Of4+ovsfTP9XduGmefvqfnS+P8Akq75Gk8X8NUpYllP9P3KFK5eldrJUhi6acB1L/8ArRUyGOmytV8tIydNZkOEwdZUbJUDcvluaL0UrMXl+Kv/AOlWdlRNt1aEjtORt9JoLcxfj6i+x9M/w1S+zGFJuSrNyVZuSrNyVZuSrNyVZuSrNyVZuSrNyVZuSrNyVZuSrNyVZuSrNyVZuSrNyVZuSrNyVZuSrNyVZuSrNyVZuSrNyVZuSrNyVZuSrNyVZuSrNyVZuSrNyVZuSrNyVZuSrNyVZuSrNyVZuSrNyVZuSrNyVZuSrNyVZuSrNyVZuSrNyVZuSrNyVZuSrNyVZuSrNyVZuSrNyVZuSrNyVZuSrNyVZuSrNyVZuSrNyVZuSrNyVZuSrNyVZuSrNyVZuSrNyVZTD1MfUHo7cNM8/fU/Ol8f8lXfI0ni/h/2VKxzWFyb+oiqRLm9QlSrFxYlMph6acBW7bG4MrHUixhim9R1EyBEzqsUDM4q2xcyr1i9NW1OROUphqRUwTYOojZjArq5wf5rAySmNCqWSEUt+X4OjuzPSZ5Sdixogn1phh/jD8fUX2Ppn+F8Y5L8n24bjbhuNuG424bjbhuNuG424bjbhuNuG424bjbhuNuG424bjbhuNuG424bjbhuNuG424bjbhuNuG424bjbhuNuG424bjbhuNuG424bjbhuNuG424bjbhuNuG424bjbhuNuG424bjbhuNuG424bjbhuNuG424bjbhuNuG424bjbhuNuG424bjbhuNuG424bjbhuNuG424bjbhuNuG424bjbhuNuG424bjbhuNuG424bjbhuNuG424bjbhuNuG424bjbhuNuG424bjbhuGRlksST0duGmefvqfnS+P+SrvkaTxfxKUslZJm0A0TJjcyIGnCtfjPTTg9F1ENK6c10y2tGKmRCqToWpE2QejnSrY6xQdPWqGJC2JG2WLKXanBRoliNFMeBJlQyJXopUQJZFDSI3Bz/J1F9j6Z/q7tw0zz99T86Xx/yVd8jSeL+Re6I2yCrqtkOaajqglMilEvTOMr87tFPgbWqplzWsVuzlWg1NsppQ/k6i+x9M/wBXduGmefvqfnS+P+SrvkaTxfyKUKZaWJrLE1iZJIRw/wDoRNiKZNww/wAfm6i+x9M/1d24aZ5++p+dL4/5Ku+R4Ozhhhd3Au7gXdwIHdwz/wDDV8pnJWe7uBd3Au7gXdwJ69Upg6Z/q7tw0zz99T86Xx/yRJE8yL+ilP6KU/opT+ilP6KX/h5kqCdh/RSn9FKf0Up/RSn9FKS5EqT+ru3DTPP31PzpfH+lXbhpnn76n50vj/Srtw0zz99T86Xx/pV24aZ5++p+dL4/0q7cNM8/fU/Ol8f6VduGmefvqfnS+P8ASrtw0zz99T86Xx/pV24aZ5++p+dL4/0q7cNM8/fU/Ol8f6VduGmefvqfnS+P9Ku3DTPP31PzpfH+lXbhpnn76n50vj/Srtw0zz99T86Xx/pV24aZ5++p+dNj/wDHzYGbAzYGbAzYGbAzYGbAzYGbAzYGbAzYGbAzYGbAzYGbAzYGbAzYGbAzYGbAzYGbAzYGbAzYGbAzYGbAzYGbAzYGbAzYGbAzYGbAzYGbAzYGbAzYGbAzYGbAzYGbAzYGbAzYGbAzYGbAzYGbAzYGbAzYGbAzYGbAzYGbAzYGbAzYGbAzYGbAzYGbAzYGbAzYGbAzYGbAzYGbAzYGbAzYGbAzYGbAzYGbAzYGbAzYGbAzYGbAzYGbAzYGbAzYGbAzYGbAzYGbAzYGbAzYGbAzYGbAzYGbAzYGbAzYGbAzYGbAzYGbAzYGbAzYGbAzYGbAzYGbAzYGbAzYGbAzYGbAzYGbAzYGbAzYGbAzYGbAzYGbAzYGbAzYDrFh/DTHP31xP/hnTKim4w6gnmoJ5qCeagnmoJ5qCeagnmoJ5qCeagnmoJ5qCeagnmoJ5qCeagnmoJ5qCeagnmoJ5qCeagnmoJ5qCeagnmoJ5qCeagnmoJ5qCeagnmoJ5qCeagnmoJ5qCeagnmoJ5qCeagnmoJ5qCeagnmoJ5qCeagnmoJ5qCeagnmoJ5qCeagnmoJ5qCeagnmoJ5qCeagnmoJ5qCeagnmoJ5qCeagnmoJ5qCeagnmoJ5qCeagnmoJ5qCeagnmoJ5qCeagnmoJ5qCeagnmoJ5qCeagnmoJ5qCeagnmoJ5qCeagnmoJ5qCeagnmoJ5qCeagnmoJ5qCeagnmoJ5qCeagnmoJ5qCeagnmoJ5qCeagnmoJ5qCeagnmoJ5qCeagnmoJ5qCeagnmoJ5qCeagnmoJ5qCeagnmoJ5qCeagnmoJ5qCeagnmoJ5qCeagnmoJ5qCeagnmoJ5qCeagnmoJ5qCeagnmoJ5qCeagnmoJ5qCeagnmoJ5qCeagnmoJ4oeZ8/CiIsYou/GHDEywmWEywmWEywmWEywmWEywmWEywmWEywmWEywmWEywmWEywmWEywmWEywmWEywmWEywmWEywmWEywmWEywmWEywmWEywmWEywmWEywmWEywmWEywmWEywmWEywmWEywmWEywmWEywmWEywmWEywmWEywmWEywmWEywmWEywmWEywmWEywmWEywmWEywmWEywmWEywmWEywmWEywmWEywmWEywmWEywmWEywmWEywmWEywmWEywmWEywmWEywmWEywmWEywmWEywmWEywmWEywmWEywmWEywmWEywmWEywmWEywmWEywmWEywmWEywmWEywmWEywmWEywmWEywmWEywmWEywmWEywmWEywmWEywmWEywmWEywmWEywmGGGH/4nvEx3li6tH5tnJK3fV8yKoKshw1+5pJjVW7c4xDvOfZM1TXb0jnJa3fV0d9q3/EyuXdBMaq5bnCLsd3xGyyZVQv9QzcKXe5pNa6obYWyusMZ8EeEyEdMXqGa41k+tSmnq2Uubp21XVs9kWSeoDwomoJ1TTprvNfZU1VXL2inIqyqBxIqiquAg6hLk8xpq9udoh/rVe1O6at35bjf6sFdcPiCbJqWqFEqbUtUyIdxXXAYV8x0af2/qJIhjZ+mn+idIlKJdW0hAglULUcyZMOpKaE6cy4cGgmyoJ8usaTloJdBP8c3H0fnqUxoGRsU1e6yJEpNK9KlpqU+J6UqKazK/SsZEEx/cU0xiekCuBej9Y44ZcEcu8JunieGa9enUlND/H049oFSOQtl1ZStmKIqKY4wLmu81ynTykso6g+/U37AV4xy5yKjMf8Axr9v6g+wdM/9ek+TCoktkzFI7nUrwunHsno6yYVDZTc+JO/elYuuLo8081wtDV2dQmvBOtop2xcmcq737qK2/wCI+njj/Og9a3cv6DItbbVQfTf3T06k+3dOPZ/R9TwqmelJ2MioWtkmJX306g+/U37ALk2CxHTrfOa2f9v6g+wdM/8AXopnwpU7LJiWvZ1K8Lpx7J6VO4QtrLR6LFbUA5qv6TdTib+6+9tbpv7NPdO1WMp3Ku9+fm66tNJuFsffVf8A+QVrWHxvpv7p6dSfbunHs/o/qMEjLR6bFTUPr1B9+pv2D9y6g+wdM/8ARNmwSYKwq2Wtk0NTsaT06leFQC1MmZ5lQNUoX182JoZ8TxWaynKdlMCYrGP+Om6El56i7ahhzMVHRZakKu9+Kvbra+0+43VoHFbC3IaDRRYJKw+N9N/dPTqT7d049nFCmSll1dVGDzjRdOxNKb16g+/U37B+5dQfYKaanNzw01VRoJesGujWxsj9OpXhUnSqJ8bqkomU3IKWXI0TnDDhDh6VnDjHTVBx4QVD21BFlY6PwzVIVd78dQW7+w2dOXH/ABMK7VRzoUSaBElrD4303909OpPt1OMzu4pMaZqqIw6fKlOLVSra0RdnUH36m/YP3LqD7B0z/wBdvUrwunHsmOGEWFWMGLKvoZ//AL6X0eEuK1rphRglf+2tVP8AXp3p8l/meirvfhWmgWJkM6ZT77DFhFCyf9/q0rD4303909OpPt3Tj2fv6g+/U37B+5dQfYOmf+u3qV4XTj2QeWqU8oMMVbC6NDnKd0HpVDbEzvbK5QuzZ2dRHPCaooRqxQtJV8WGD76dQG7+s6JKj/ioij223MZWHxvpv7p6dSfbunHs/f1B9+pv2D9y6iToYGfptPhhn9vUmdhk6bqcIkHpXNP/AN1PSL/Z1/8An/PpUzDC+oKYfJlNr4I4ZsHpUD/IYktOsk+pHLCHCHA6gKv4HOCLCOErFuuLEwIYnVz9K1mYS6b6dzsIHn06kqMP4+m8+HFD31tP/mqKlJ0M+n/3F2WOKUdmepnpQhpuom5S3ub9FM9Xde7yJjjT9SOqlsYakaFLU4PE+d6P1ErMHBpjqtrloJ0+emH6mUj7CnS1LSpDXU2AnVU9LsEFEq3BQnTykskdlzqnmObBUburZ5tUNchLMmzU5TFN4sy8dVi9KPaKqH7FJS9QolDc5P8AFMd17snmONP1I6qmxiqVoUtri8zp/aucqony46RfpsbIjqliGpYvVf8A5Df/xAAUEQEAAAAAAAAAAAAAAAAAAADA/9oACAEDAQE/ASoH/8QAFBEBAAAAAAAAAAAAAAAAAAAAwP/aAAgBAgEBPwEqB//EAFYQAAAEAQMNCQwIBQMEAgMAAAABAgMEETI1BRIhMDEzNEGRlKTB4hATInGBgpKi0RQgUWFwcnN0g7GywiNCUmCToeHwBhUkU2JDUNJAhKPxNpBjZID/2gAIAQEABj8C/wD7kLfVSSiy5+Ri+dUxfOqYvnVMXzqmL51TF86pi+dUxfOqYvnVMXzqmL51TF86pi+dUxfOqYvnVMXzqmL51TF86pi+dUxfOqYvnVMXzqmL51TF86pi+dUxfOqYvnVMXzqmL51TF86pi+dUxfOqYvnVMXzqmL51TF86pi+dUxfOqYvnVMXzqmL51TF86pi+dUxfOqYvnVMXzqmL51TF86pi+dUxfOqYvnVMXzqmL51TF86pi+dUxfOqYvnVMXzqmL51TF86pi+dUxfOqYvnVMXzqmL51TF86pi+dUxfOqYvnVMXzqmL51TF86pi+dUxfOqYvnVMXzqmL51TF86pi+dUxfOqYvnVMXzqmL51TF86pi+dUxfOqYvnVMXzqmL51TF86pi+dUxfOqYvnVMXzqmL51TF86pi+dUxfOqYvnVMXzqmL51TF86pi+dUxfOqYvnVMXzqmL51TF86pi+dUxfOqYvnVMXzqmL51TF86pi+dUxfOqYvnVMXzqmL51TF86pi+dUxfOqYvnVMXzqmL51TF86pi+dUxfOqYvnVMXzqmL51TF86pi+dUxfOqYvnVMXzqmL51TF86pi+dUxfOqYvnVMXzqmL51TF86pi+dUxfOqYvnVMXzqmL51THCek5phwoV3fDbnWDsWiH8ZGCUhNgTBMEwTBMEwTBMEwTBMEwTBMEwTBMEwTBMEwTBMEwTBMEwTBMEwTBMEwTBMEwTBMEwTBMEwTBMEwTBMEwTBMEwTBMEwTBMEwTBMEwTBMEwTBMEwTBMEwTBMEwTBMEwTBMEwTBMEwTBMEwTBMEwTBMEwTBMEwTBMEwTBMEwTBMEwTBMEwTBMEwTBMEwTBMEwTBMEwTBMEwTBMEwTBMEwTBMEwTBMEwTBMEwTBMEwTBMEwTBMEwTBMEwTBMFyQVQ3z/D5rRCcob4vIvHczXaIPlDfF5F47ma7RB8ob4vIvHczXaIPlDfF5F47ma7RB8ob4vIvHczXaIPlDfF5F47ma7RB8ob4vIvHczXaIPlDfF5F47ma7RB8ob4vIvHczXaIPlDfF5F47ma7RB8ob4u8ZRCRcQwg4YjkbdNJS1yhSUZnChSUZnChSUZnChSUZnChSUZnChSUZnChSUZnChSUZnChSUZnChSUZnChSUZnChSUZnChSUZnChSUZnChSUZnChSUZnChSUZnChSUZnChSUZnChSUZnChSUZnChSUZnChSUZnChSUZnChSUZnChSUZnChSUZnChSUZnChSUZnChSUZnChSUZnChSUZnChSUZnChSUZnChSUZnChSUZnChSUZnChSUZnChSUZnChSUZnChSUZnChSUZnChSUZnChSUZnChSUZnChSUZnChSUZnChSUZnChSUZnChSUZnChSUZnChSUZnChSUZnChSUZnChSUZnChSUZnChSUZnChSUZnChSUZnChSUZnChSUZnChSUZnChSUZnChSUZnChSUZnChSUZnChSUZnChSUZnChSUZnChSUZnChSUZnChSUZnChSUZnChSUZnChSUZnChSUZnChSUZnChSUZnChSUZnChSUZnChSUZnChSUZnChSUZnChSUZnChSUZnChSUZnChSUZnChSUZnChSUZnChSUZnChSUZnChSUZnChSUZnChSUZnChSUZnChSUZnChSUZnChSUZnChSUZnChSUZnChSUZnChSUZnChSUZnChSUZnChSUZnChSUZnChSUZnChSUZnChSUZnChSUZnChSUZnChSUZnChSUZnChSUZnChSUZnChSUZnChSUZnChSUZnChSUZnChSUZnChSUZnChSUZnChSUZnChSUZnChSUZnChSUZnChSUZnChSUZnChSUZnChSUZnChSUZnChSUZnChSUZnChSUZnChSUZnChSUZnChSUZnChSUZnChSUZnChSUZnChSUZnChSUZnChSUZnCu8juZrtEHyhvi7wlxcIw+siklcaJRyCjYPN0ijYPN0ijYPN0ijYPN0ijYPN0ijYPN0ijYPN0ijYPN0ijYPN0ijYPN0ijYPN0ijYPN0ijYPN0ijYPN0ijYPN0ijYPN0ijYPN0ijYPN0ijYPN0ijYPN0ijYPN0ijYPN0ijYPN0ijYPN0ijYPN0ijYPN0ijYPN0ijYPN0ijYPN0ijYPN0ijYPN0ijYPN0ijYPN0ijYPN0ijYPN0ijYPN0ijYPN0ijYPN0ijYPN0ijYPN0ijYPN0ijYPN0ijYPN0ijYPN0ijYPN0ijYPN0ijYPN0ijYPN0ijYPN0ijYPN0ijYPN0ijYPN0ijYPN0ijYPN0ijYPN0ijYPN0ijYPN0ijYPN0ijYPN0ijYPN0ijYPN0ijYPN0ijYPN0ijYPN0ijYPN0ijYPN0ijYPN0ijYPN0ijYPN0ijYPN0ijYPN0ijYPN0ijYPN0ijYPN0ijYPN0ijYPN0ijYPN0ijYPN0ijYPN0ijYPN0ijYPN0ijYPN0ijYPN0ijYPN0ijYPN0ijYPN0ijYPN0ijYPN0ijYPN0ijYPN0ijYPN0ijYPN0ijYPN0ijYPN0ijYPN0ijYPN0ijYPN0ijYPN0ijYPN0ijYPN0ijYPN0ijYPN0ijYPN0ijYPN0ijYPN0ijYPN0ijYPN0ijYPN0ijYPN0ijYPN0ijYPN0ijYPN0ijYPN0ijYPN0ijYPN0ijYPN0ijYPN0ijYPN0ijYPN0ijYPN0ijYPN0ijYPN0ijYPN0ijYPN0ijYPN0ijYPN0ijYPN0ijYPN0ijYPN0ijYPN0ijYPN0ijYPN0ijYPN0ijYPN0ijYPN0ijYPN0ijYPN0ijYPN0ijYPN0ijYPN0ijYPN0ijYPN0ijYPN095HczXaIPlDfF5F47ma7RB8ob4vIvHczXaIPlDfF5F47ma7RB8ob4vIvHczXaIPlDfF5F47ma7RB8ob4vIvHczXaIPlDfF5F47ma7RB8ob4vIvHczXaIPlDfF5F47ma7RB8ob4vIvHczXaIPlDfF5F47ma7RB8ob4vIvHczXaIPlDfF5F47ma7RB8ob4vIvHczXaIPlDfF5F47ma7RB8ob4vIvHczXaIPlDfF5F47ma7RB8ob4vIvHczXaIPlDfF92VPxThNNJnKPEKQZyikGcopBnKKQZyikGcoX3DEIf3uSurcX+0UgzlFIM5RSDOUUgzlFIM5QhmGjGnHVTUljtcdzNdog+UN8X3ZjvZ/GkKbgGTeWkq4yI8QwBfST2jAF9JPaMAX0k9owBfST2iP/mDBsb5vdbKZWZK7/oyh98LfzRX1mOt8NvbZUsidcIzSnwyXe+wBfST2jAF9JPaMAX0k9owBfST2gzVArIiu8JPaIDzj+E7XHczXaIPlDfF92Y72fxpEV6v8xf8ATmajkIsYjIhJ/RdzqQ15pKT/AO+W3uLbOVlphTbXjIsdqe8wxAecfwna47ma7RB8ob4vuzHez+NIivV/mLvlOvrS22m6pRyEQNqpME/VBX+JSF2iSqNRnWCPwqNJ/mQM4NzhlObXYUW6bMqomIK6hvFxmN9KoT28faM1e+tBIjG3IMzxnwkhK2lEtCilJRHYPcro6JbZ847J8giSgiXWMVvCUUkssvYK+Nc4RzW02VKEhVOVvfh36zkkG/wajMrikqupPcXB1NSpuHOw44c5ZdgXEPtrcSpo0SI4y7BgkV+XaEOFYJaZQpx9aW20lKpSjkIgaKlQT8fJ9YuCQrI6pq2/DWuWchkN+gXa8vrFjTx7jhxNTKok2g5Dc3kq33i8RnQT/wAgamoSLYRJKS3m60lcVkGzGQsZ/itLZVquI5QfcdTqpPyXd7YJUn5htysW3XplrVlIZcYfqfU1KkJIzbddO6fiId0vtrcTWGmRAwOK6vaGIhBGlLyCWRH47Q95hiA84/hO1x3M12iD5Q3xfdmO9n8aRFer/MXempZyJKyZhZVymajQqsX1z7fcCZg2kMtliSQWzEIJxpZSGlRBzudZ77CvGklfakMNupuOJJRBEBU5R92P3TTdSnxeMwhx9CXY47Kln9XxFuOPQrZNx5FKRlY3zxGChIxRlBuKrTJX+krwhaK401xSVybpByPhYh95SDld35VcZ+MR9Y2b8W+baWGi+sfCCoz+I4pzuhyzWNycHlC3qlPOOLbKU23ZDruKQExZrIlBpMvGVkj9+Xcj/V3PhD3qyviTurar1fyaDOzW2N9P9/kEtQ7aWm03EpKQgpmNaJf2VfWRxGFFKZmyutcT/cQEOtHXIWmuSfhIGSilI8QrmEl3M9w2iMrBeFIYimJjqZeLxCFqVB2d5sKV4DOdkKQNQ0MmtbbKQtx3zDBehVanvMMQHnH8J2uO5mu0QfKG+L7sx3s/jSIr1f5i71TbZyLiV73yY/34xCJKSudRvqzLGarPuk3e64jfUrOSvJCrCwRJKQiCH3uEg3lLTzS4PuLvN+bKRuKTX87H+/GIN5yfWVipcZlYFUZf7JiMeWglONJTWH9mWWXdShqwlMW4kuKzuR/q7nwh71ZXxJ3ItxE9ad7Ty2Alpio0VEV6jWp1EsivyH/x+N/P/iP/AI/G/n/xBxbdSotiuQRKI21HqEGUYlaHUJNMi0yHIR2Py3HGU39PDZ84RsM8RqOSuh0niX4AuqcZKcVGWSM7tb+t3Juu+aYL0KrU95hiA84/hO1x3M12iD5Q3xfdmO9n8aRFer/MXe1Ob9IfwiA9Xb+HvIpaZyWlGWQQnEv4D7yCe+sl005S/QOEf1YhRFkSKo+hUKo+ajXu/wDfOe89yP8AV3PhD3qyviTuQyfDEF8JiBPwEosij7+KOCuV30ng3z6wZiWZEylIpJfVV4N13zTBehVanvMMQHnH8J2uO5mu0QfKG+LvGPVU/Er7iF6VX/Qx3s/jSIr1f5i72pznpC9whbJV7Jb0rxVtz8pO8WlCiW26gyriskINxZkiserVy4iOwfeQicZvy/kYaV/eWperUKo+hUKo+ajXu/8AfOe89yP9Xc+EPerK+JO5Dq8EQXwmHIcz4UO7c/xP9Ze8dZQ4lTrUlen7MtzcUps/6l7gNdvIHd/T/XxJb62Z/V+yX78IVARUqWog5JD+q5+7GTdd80x7FVqe8wxAecfwna47ma7RB8ob4vuzHez+NIivV/mLvXFNlK5DnvpcWMGiIP8Ao3p/+J/aCVtKJaFWSUR3dxFRalqro2K4KzL/AEkYwzDMFI20mtIOLSX0MT9IjjxkGnFKlfb4D3neHl3YOpUHwlN2FH4DO7kIgyw1MaQSE8RCqHoTFUfNRr3f++c957kalN02F/CHPHDq95bkWw2UrlbXosXTKyErdP8ApnuA74vGCUgyUk7JGW4brvCdOw03jUYN6OMzjYte/Py4jPEFKWZJSkpTMwqIdIzqdCXCPGWIuXcTVCHKtaiD4Un1XP17Q26o/p0cB0v8vDuOF/iYaI/rtrIskuq1PeYYgPOP4TtcdzNdog+UN8X3ZjvZ/GkRXq/zF3tkLiqmtm7BqsmlJWWv0FbBRKko+wfCTkBQ0I4qvXiYRIeXEFPxZ77HPT1fZ8W4qGiLGNCyupV4Rvpt/RHYM/8ATcIf1JOwq8ZGmuL8gcJ/DUI69EKsb4pM3xydoXERit+j3r4uWWTxBSlWElZMLgqmqN43ZK9dbIRFKFOPJUth1Nask3eMLVU97fibncEykyh5muN2NQV6JJ3ZLEphEWRyvJc3yU/tSyhtptZtxaivKi1g0ncOwFVlh+HUZWSsKLsMdy1KgEFEq+vXVxJLwhtl11b7pWVuKOWuUd0ORtSmjcZXZcaQVlB+IvAN6YWl5nE26UpFxAm4aHZQtVgq1JqPkCaq/wARqU4/dbbXi4+wSncBwVSXDcJy+uSSWPACg21SRpmpbiZLv7KTcianurr4w600oJM3xyg3JDch3LDqC95eMbzBRO+OyS1tYZe/cVvP0a2XK5ozxpxfkEw9TqmoVFqxko1FxyBKIp44iIUZrdWZ/WPweK0PeYYgPOP4TtcdzNdog+UN8X3ZjvZ/GkRXq/zF35riIGHcWf1lNFKKyFZbYT4EJre8kUUpCU6nQsvoUishmkMo+yhMhbsxOQTE5BwSIhKaSPkExOQWEkXJuF3ZDNP1tzfEEqQVkIy2wjwITW7tfFQcO8v7S2iMwfckMywZ3axBJ3Zicg4KSLk3LKSPkExOQcFJFybhFGQ7T5Fc3xBKkBphGG2EndJtFbaXvMMQHnH8J2uO5mu0QfKG+L7sx3s/jSIr1f5i/wBxe8wxAecfwna47ma7RB8ob4vuzHez+NIU5APGy4pNaZkWIYevoJ7Bh6+gnsGHr6CewYevoJ7BH/zB83973utlIrEtd/tGHr6KewYevoJ7Bh6+gnsGHr6CewGSo5Zkd3gp7BAecfwna47ma7RB8ob4vuypiKbJ1pV1KsYo5jIKOYyCjmMgo5jIKOYyBfcMOhjfJ1aV3/aKOYyCjmMgo5jIKOYyCjmMgS9DQbTbqZqiK5a47ma7RB8ob4vIvHczXaIPlDfF5F47ma7RB8ob4vIvHczXaIPlDfF5F47ma7RB8ob4vIvHczXaIPlDfF5F47ma7RB8ob4vIvHczXaIPlDfF5F47ma7RB8ob4vIvHczXaIPlDfF5F47ma7RB8ob4vIvHczXaIPlDfF5F47ma7RB8ob4vIvHczXaIPlDfF5F47ma7RB8ob4vIvHczXaIPlDfF5F47ma7RB8ob4vIvHczXaIPlDfF5F47ma7RB8ob4vIvHczXaIPlDfF5F47ma7RB8ob4vIvHczXaIPlDfFuoid47ornSRW19biM9QovSdkUXpOyKL0nZFF6Tsii9J2RRek7IovSdkUXpOyKL0nZFF6Tsii9J2RRek7IovSdkUXpOyKL0nZFF6Tsii9J2RRek7IovSdkUXpOyKL0nZFF6Tsii9J2RRek7IovSdkUXpOyKL0nZFF6Tsii9J2RRek7IovSdkUXpOyKL0nZFF6Tsii9J2RRek7IovSdkUXpOyKL0nZFF6Tsii9J2RRek7IovSdkUXpOyKL0nZFF6Tsii9J2RRek7IovSdkUXpOyKL0nZFF6Tsii9J2RRek7IovSdkUXpOyKL0nZFF6Tsii9J2RRek7IovSdkUXpOyKL0nZFF6Tsii9J2RRek7IovSdkUXpOyKL0nZFF6Tsii9J2RRek7IovSdkUXpOyKL0nZFF6Tsii9J2RRek7IovSdkUXpOyKL0nZFF6Tsii9J2RRek7IovSdkUXpOyKL0nZFF6Tsii9J2RRek7IovSdkUXpOyKL0nZFF6Tsii9J2RRek7IovSdkUXpOyKL0nZFF6Tsii9J2RRek7IovSdkUXpOyKL0nZFF6Tsii9J2RRek7IovSdkUXpOyKL0nZFF6Tsii9J2RRek7IovSdkUXpOyKL0nZFF6Tsii9J2RRek7IovSdkUXpOyKL0nZFF6Tsii9J2RRek7IovSdkUXpOyKL0nZFF6Tsii9J2RRek7IovSdkUXpOyKL0nZFF6Tsii9J2RRek7IovSdkUXpOyKL0nZFF6Tsii9J2QzG73vO+y8CurpJDMtXeR3M12iD5Q3xbqIbf+5610l11ZXYjLWKU0baFKaNtClNG2hSmjbQpTRtoUpo20KU0baFKaNtClNG2hSmjbQpTRtoUpo20KU0baFKaNtClNG2hSmjbQpTRtoUpo20KU0baFKaNtClNG2hSmjbQpTRtoUpo20KU0baFKaNtClNG2hSmjbQpTRtoUpo20KU0baFKaNtClNG2hSmjbQpTRtoUpo20KU0baFKaNtClNG2hSmjbQpTRtoUpo20KU0baFKaNtClNG2hSmjbQpTRtoUpo20KU0baFKaNtClNG2hSmjbQpTRtoUpo20KU0baFKaNtClNG2hSmjbQpTRtoUpo20KU0baFKaNtClNG2hSmjbQpTRtoUpo20KU0baFKaNtClNG2hSmjbQpTRtoUpo20KU0baFKaNtClNG2hSmjbQpTRtoUpo20KU0baFKaNtClNG2hSmjbQpTRtoUpo20KU0baFKaNtClNG2hSmjbQpTRtoUpo20KU0baFKaNtClNG2hSmjbQpTRtoUpo20KU0baFKaNtClNG2hSmjbQpTRtoUpo20KU0baFKaNtClNG2hSmjbQpTRtoUpo20KU0baFKaNtClNG2hSmjbQpTRtoUpo20KU0baFKaNtClNG2hSmjbQpTRtoUpo20KU0baFKaNtClNG2hSmjbQpTRtoUpo20KU0baFKaNtClNG2hSmjbQpTRtoUpo20KU0baFKaNtClNG2hSmjbQpTRtoUpo20KU0baFKaNtClNG2hSmjbQpTRtoMwe+b9vVdwq2SWUzPX3kdzNdog+UN8XkXjuZrtEHyhvi8i8dzNdog+UN8XkXjuZrtEHyhvi8i8dzNdog+UN8XkXjuZrtEHyhvi8i8dzNdog+UN8XkXjuZrtEHyhvi8i8dzNdog+UN8XkXjuZrtEHyhvi8i8dzNdog+UN8XkXjuZrtEHyhvi8i8dzNdog+UN8XkXjuZrtEHyhvi8i8dzNdog+UN8XkXjuZrtEHyhvi8i8dzNdog+UN8XkXjuZrtEHyhvitrsNErcJ1s5FSNi+O/hC+O/hC+O/hC+O/hCTfHfwv9nS/Gmom1LrOCmWz+yF8d/CF8d/CF8d/CF8d/CF8d/CD3cClK3mSulTJd/9fdiO5mu0QfKG+K2x/nl7iCVpVDSKKUvpD7BOhvxD7BOhvxD7BOhvxD7AR10N+IfZ/s7UPB1hLS+S+GcliQ+0Tob8Q+wTob8Q+wTob8Q+wTob8Q+wFERhsmg11nAVLZFVPZfP92I7ma7RB8ob4rbH+eXuIMeYn3WyWPiW2f8AEzs5Bh3/AIl9gr4N9t9HhQqUPMtOEtxmQnCL6oJyNeSw2aq2uV4RSLGUJehlk60qaosYU9ErJppE5R4hSDOUL7hiEP73OrTubu+Rz6GE/wCR3eIVvdKpPtb0qQV0BEIe8JFdLk3a+MfQyR3K47vFuKZfjUk4mdWpUqTlIg2pcdDIJxNciudIpSFJQecJBIRVCFUpRyERPps7hHGRDUOSrm+LJMopKDzhISttRLQopSMjsHamvWU/CoVU9l8/3YjuZrtEHyhvitsf55e4gx6NPutaYWB4cc6VjHWF4eMd1/xAaomKc4RoNVguPwmK06nw8niRIER9RnnWWVHWnIqyg+wVRNVkzWjWDS6hK0niUUoYeg0k21EEf0ZYjL/2IHiV8Zg0PIS4hV1KilIw9GwTCYZ5iyZIKQlFxCqnsvn3N8nvuHWso8Jgo7+JDOMjHLO9qPgt+IVqoBlPjQVaf5Bp6BeWTarLLuMv8TCImQkulwHUliUHW6jMtIZK45XlXqy3BLGrcW/vkit8OyP5PUY5IhaZYh2WQmkdpiTudUUg7i2Cr/1DLFW4QlKlVWk4mRaEy5SD0NZNuc2Z40iCiEQ6FvuNJcNxZVxymWLwbkWcW2lxtDK1WUyyWA/GRbSXW2eCglFKVd+/eCJJSEWK1Nesp+FQqp7L5/uxHczXaIPlDfFbY/zy9xBj0afdann3ZjSDWrkETVKN4e9cPnHNyat2O5nxkKo+cjXuVM9r8ogeJXxnuVQ9EKqey+fc3yqb29wkCdaiVMvCTte4YcX4auwYcX4a+wKbhYonYhC0rQVYotXgEVDfVdar+Uj/AF3I3ey+slXLWkY+nOuinj3yIX4VnutRzZcKHOtX5p/r7w5BLPhw6pU+af6y7hspPhxKyRdxXT/fjEKgykW4nfV8av2Vra9ZT8KhVT2Xz/diO5mu0QfKG+K2x/nl7iDHo0+61RJY3DSgsv6CMcxqfkyF+u7Hcz40iqPnI17lTPafKIHiV8Z7lUPRCqnsvn3IsqoMtxSlNG59KglWa4u0UbB5ukUbB5ukUbB5ukb5CwcOwu5XNtEk9yJ85r4E947DvWW3UmlQJEQdaSXDYe4vD7j3IOpieE0zISy/NXVtjXrKfhUKqey+f7sR3M12iD5Q3xW2P88vcQY9Gn3WozL6ryTMRbeNL8uUv03Y7mfGkVR85GvcqZ7T5RA8SvjPcqh6IVU9l8+4wSrBPJU3+8nfRPnNfAnvWY9BcF8qxfnF+nuCIt87MOg0vH5pdlkVQqtETjOQvOVZP9+O2Nesp+FQqp7L5/uxHczXaIPlDfFbY/zy9xBj0afdao5tE7e6/onLqDsK6qtTEp4PnF+z3XWFq+liDSSE8RkYqj5yNe5Uz2nyiEJJza4ldI9x1kz+mieA2nw+EVRbM+EomzIuKXt3HyZLezYfr2uK6kMxUPMcTLxeLdYqfCKlhoJW/RK041FNTl/djcipftN/AnvYiHIpXK2ub84hHQSL3FkmWzNkMQqFFItwt9Xxn+klsa9ZT8KhVT2Xz2ll5lpLprcrZFcQwJjpGMCY6RjAmOkYwJjpGMCY6RjAmOkYwJjpGMCY6RjAmOkYwJjpGMCY6RjAmOkYwJjpGMCY6RjAmOkYwJjpGMCY6RjAmOkYwJjpGMCY6RjAmOkYwJjpGMCY6RjAmOkYwJjpGMCY6RjAmOkYwJjpGMCY6RjAmOkYwJjpGMCY6RjAmOkYwJjpGMCY6RjAmOkYwJjpGMCY6RjAmOkYwJjpGMCY6RjAmOkYwJjpGMCY6RjAmOkYwJjpGMCY6RjAmOkYwJjpGMCY6RjAmOkYwJjpGMCY6RjAmOkYwJjpGMCY6RjAmOkYwJjpGMCY6RjAmOkYwJjpGMCY6RjAmOkYwJjpGMCY6RjAmOkYwJjpGMCY6RjAmOkYwJjpGMCY6RjAmOkYwJjpGMCY6RhcS80lpSXTRIk/EXb3kdzNdog+UN8Vtj/PL3EGPRp91rNbNcmGWquYWWLxcgrI+HTFmX1yVWHygmamVPInlHIUqq/8hVCqdXHN+qi4lBJI7O9FXkKo+cjXuGpkq5yHXvkmMyx/vxBZQ1atlc5tdzjBJhIBCHTxqWa/ysCPqvV8zcj1Qy97Sr/TTWnkCHqn8J2bWSS15eAGuqECcCuWwRqndgTGwKK6JaTItBFZWntCiQW+sLPhsqP8y8BgjcZiUq8BJI9Y7hqBDqZ3ywa5eFJ8oJlvhOKsur+0ob5FvIZQWNRyCKi0THFcHiKwQbcYcTvlb9I3LZSfeuQDV7ciJT4pytYsWxr1lPwqFVPZfPaW2YlxxskLruAMKisqewYVFZU9gwqKyp7BhUVlT2DCorKnsGFRWVPYMKisqewYVFZU9gwqKyp7BhUVlT2DCorKnsGFRWVPYMKisqewYVFZU9gwqKyp7BhUVlT2DCorKnsGFRWVPYMKisqewYVFZU9gwqKyp7BhUVlT2DCorKnsGFRWVPYMKisqewYVFZU9gwqKyp7BhUVlT2DCorKnsGFRWVPYMKisqewYVFZU9gwqKyp7BhUVlT2DCorKnsGFRWVPYMKisqewYVFZU9gwqKyp7BhUVlT2DCorKnsGFRWVPYMKisqewYVFZU9gwqKyp7BhUVlT2DCorKnsGFRWVPYMKisqewYVFZU9gwqKyp7BhUVlT2DCorKnsGFRWVPYMKisqewYVFZU9gwqKyp7BhUVlT2DCorKnsGFRWVPYMKisqewYVFZU9gwqKyp7BhUVlT2DCorKnsGFRWVPYMKisqewYVFZU9gwqKyp7BhUVlT2DCorKnsGFRWVPYMKisqewYVFZU9gVDwy1uJU5Xyr5OzvI7ma7RB8ob4rbH+eXuIMejT7rWpqKaS62q6lRCuST7RfZS5Y/Mf0MOls8arqj5RHcz4yFUfORr3TdrHIczukyqQjBKhWJXf7jh1yg6w7LWOoNCpPAYrYGGQz4yKyfLumuIYrHj/ANRvgmCM1xKy8BuF2De4BhDKfFj5dxcRGQu+vLnK31ZaxgP/AJl9osQX/mX2hDTRSIbSSUlLLY3XH3jkbbSalGKoVXfKcoyT5yrJ5LGW2tesp+FQqp7L5/uxHczXaIPlDfFbY/zy9xBj0afdbSXHxCGCVclxjuKptcbJqlccMpK7xB5EZL3O+RSqIpa0yG+wTyX2/Ck/+gizgSM4gmlVkl2UE+bzkQg742tw+ECgqmwxw8JXfSrM5S5T1BqFh5qCsn9o/DbWvWU/CoVU9l8/3YjuZrtEHyhvitsf55e4gx6NPutqe7IdmIrZu+NkqQUbB5ukUbB5ukGiEYbYQZymTaCSX/Qm85Bw6nT+ubRSixbmvWU/CoVU9l8/3YjuZrtEHyhvitsf55e4hIUdEkXplDD4r8ZQw+K/GUMPivxlBP8AXxV3+8r/AGdlcM6tlXdKSlQqt+qoYfFfjKGHxX4yhh8V+MoYfFfjKFZExLzyLsi3DUKqey+f7sR3M12iD5Q3xW01OMNqUeM0EMGZ/DIYMz+GQwZn8MhgzP4ZDBmfwy/2eR1CVl4FFKMGZ/DIYMz+GQwZn8MhgzP4ZDBmfwyB7y2huW7Wpk+7EdzNdog+UN8XkXjuZrtEHyhvi8i8dzNdog+UN8XkXjuZrtEHyhvi8i8dzNdog+UN8XkXjuZrtEHyhvi8i8dzNdog+UN8XkXjuZrtEHyhvi8i8dzNdog+UN8XkXjuZrtEHyhvi8i8dzNdog+UN8XkXjuZrtEHyhvi8i8dzNdog+UN8XkXjuZrtEJyhviF0hdIXSF0hdIXSF0hdIXSF0hdIXSF0hdIXSF0hdIXSF0hdIXSF0hdIXSF0hdIXSF0hdIXSF0hdIXSF0hdIXSF0hdIXSF0hdIXSF0hdIXSF0hdIXSF0hdIXSF0hdIXSF0hdIXSF0hdIXSF0hdIXSF0hdIXSF0hdIXSF0hdIXSF0hdIXSF0hdIXSF0hdIXSF0hdIXSF0hdIXSF0hdIXSF0hdIXSF0hdIXSF0hdIXSF0hdIXSF0hdIXSF0hdIXSF0hdIXSF0hdIXSF0hdIXSF0hdIXSF0hdIXSF0hdIXSF0hdIXSF0hdIXSF0hdIXSF0hdIXSF0hdIXSF0hdIXSF0hdIXSF0hdIXSEdzNdogedqCCRKchDGMYxjGMYxjGMYxjGMYxjGMYxjGMYxjGMYxjGMYxjGMYxjGMYxjGMYxjGMYxjGMYxjGMYxjGMYxjGMYxjGMYxjGMYxjGMYxjGMYxjGMYxjGMYxjGMYxjGMYxjGMYxjGMYxjGMYxjGMYxjGMYxjGMYxjGMYxjGMYxjGMYxjGMYxjGMYxjGMYxjGMYxjGMYxjGMYxjGMYxjGMYxjGMYxjGMYxjGMYxjGMYxjGMYxjGMYxjGMYxjGMYxjGMYklEeZ/4a7RZITSyCaWQTSyCaWQTSyCaWQTSyCaWQTSyCaWQTSyCaWQTSyCaWQTSyCaWQTSyCaWQTSyCaWQTSyCaWQTSyCaWQTSyCaWQTSyCaWQTSyCaWQTSyCaWQTSyCaWQTSyCaWQTSyCaWQTSyCaWQTSyCaWQTSyCaWQTSyCaWQTSyCaWQTSyCaWQTSyCaWQTSyCaWQTSyCaWQTSyCaWQTSyCaWQTSyCaWQTSyCaWQTSyCaWQTSyCaWQTSyCaWQTSyCaWQTSyCaWQTSyCaWQTSyCaWQTSyCaWQTSyCaWQTSyCaWQTSyCaWQTSyCaWQTSyCaWQTSyCaWQTSyCaWQTSyCaWQTSyCaWQTSyCaWQTSyCaWQTSyCaWQTSyCaWQTSyCaWQTSyCaWQTSyCaWQTSyCaWQTSyCaWQTSyCaWQTSyCaWQTSyCaWQTSyCaWQTSyCaWQTSyCaWQTSyCaWQTSyCaWQTSyCaWQTSyCaWQTSyCaWQTSyCaWQTSyCaWQTSyCaWQTSyCaWQTSyCaWQTSyCaWQTSyCx/wDSe2dRWoV0vrk9LLyDeo6BhWXPApCrPWBtwUDDPrIpTJDaz+YWajt8jKz+YVtUamoT4UyKbP8AME26Zwjx4nLh8u5LUdiDfZrbjhnXy5SCmYmEhWnU3UqbUXzA0QcBDvqK7WNLOTrCX+Ttfhq/5AiqnUtDZeA0qblygm35YN0/7k3pd7XxrkhnMbKcoGVQ4dEIwR2XFFL+Z6iFdEfxE+hZ3SbI5PeQroCqfd6caHCs9btHc1XWO43iOQ1ERyEfjLECUgyUk7JGW4X8nTAqZrbJP11dXcgOHjoSDbcklmqsl0g1Cx7bDaHZSSbaTLhZe+ahoFDLi6yuc3wjOTwYwlpiFhFuLORKSbVZ6waONh6nsM130hSqrpPFZMS1GYhH2a2yThnXV2UiBsxUHCsup+qptX/IK7hqfDv1s6saXY6w4VR0HxMLP5hW1RqcgvCRVzZ/mCbSs4eIO425Yl4j3ImEh2oZTbckhrSqW4R+ESQcAw+f+DK1axQ7X4Sv+Q3qMgoVlySWtU2r/kEOsVKZW2spUqJpVnrCudqQ2SSunvCz+YYPB9BX/IQ0W+SUuOkcpJuXfvgy7Jw23yIj8Rkf6Cqfsvm3DbiG0OtndStMpBUdUsq1gr61LM8ZAqlxiq6x/TqO75u5AxJFw+Egz8WLWIlwi4aokyM/FWl27hoeQlxCrqVFKRg4+ppVrEv0rX2fGXiB1Li110iZWDO75u6qIXwnDsNI+0oORFUXFKYScrqpciSCWodBNtpsElOLdNSCJuNQX0bnh/xMfy6qZmmGNdbwv9FXZu1AJxBLS46SFEeMq9PaHW2zNKod2ubPxXUmGIlqa6glF3ilrOtSkpTMVfq0+mVNhLMuLhF7kyZQ44opd6YM08cpF27sDEEXClUgxEn/APsfKncNuLZQ8jwLKUd1wMpwilSGn+2fYFQMaqvfZTKhZ3Vp8YiIazvdeRuGWJJJIJah20tNpuJSW4XoE6xU70Cdw6osIIn2j+kMvrJEDxK+M/vh7dOsVT9l8264y5ZQ4k0q5RCL/txCbnHuQPpVe4RHrSvhTuxbS7imVF+QqcpF030o6VjXuuISZmzDnvTZe88uoMQ8n0klc75x3e9ajmikTEWF+cX7/IJQ6cr8N9GrxliP9+Dc/hr1n50CGj0FYP6Jz3lrD0Es+FDqrk+ar9ZcveLbQcjsSe9FZxY+zlDrBlI5vaVOecaiEX6D5i3YP02oRPrJ/CndjmlSWWVScclgQBp+s5WZbAqnVCIrT3+QmpD+rjlyFul6BOsVO9AnciIdVx1tSMohoSJrd9brpa07E4z++Ht06xVP2Xzbrr7kxtBrPkEEgk1xrfSauKWU9yB9Kr3CI9aV8Kd2KcUci1p3tvzjELYlQye+q8Ulz85NyKif7TSlFkEC2rG6Sj5LOrvohUkpsmlwsvYYeYlkS81c8Zfs9z+GvWfnQImGk4akyo84rgh1LsNufROcv6yd5DwhcKGgCrl8d0/zrSEf5qfiIRfq/wAxbsH6bUIn1k/hTux7qjk+hURcZ2CEHIUpNmbivFJ3hegTrFTvQJ++ft06xVP2XzbhreWltBXVKOQgqAqYqvZO+u/a8RD+YxqK11aZGUmU0vDuQPpVe4PpiYhllXdKjkWsisVqRw6owvI6Rg+5d8jHP8SrSymEqS0akJsJIikbb5Qaa7fIly+uai3I8y8CSyqIMq/toWr8pNffVR9XWf5CB41F1T3P4a9Z+dG5EEkpG3vpkcv6yiGiTOVZprV+cV3ciIpy40g1cYiKoxNl6Mcun4P/AHKI/wA1PxEIv1f5i3YP02oRPrJ/CncN2JdQ02V1SjkCYOp8vcqVSmf9w+wKiYxNbFvlcP6ifB3hegTrFTvQJ++ft06xEnUeN7kNutr/AKVSJbvgEn85LOXOwS1UqtXK5znvkCXKw4l5NxTtmTk3YH0qvcHIiLW8laXjRwFERSSF4vGDiqlm6verLqVnLwfCQSVUmGnWHeCanEke9n4QRJKQi3Y4i8CT65Bsj+u2svy76qXqznwiA85Xwnufw16z86NxuLQXChl8LzVfrIImAWdhX0rfuPVk3IKpMNZdinCMy8WL8/cGYdqY0gkkI/zU/EQi/V/mLdg/Tag47UiP7lbS5WqTvy0SnIXgEh1ZLOXOwV9Uqqmtfmmv8zMb4w2br2Jx2yZd6XoE6xU70Cfvn7dOsVT9l83fQPpVe4RHrSvhSJDuCVkv6R7hN+L/ABHcMSqWIhy4B/aR+m7GQ6ZzjSiTxyCAcVc32t6VjX30VZkU5Wtll7JQp4ysMMmcvjOx27n8Nes/Ojceh3ZjqDSYbW5KSoV6tc4rh/kCUk5SMRlUp0PCcBmzyFrPl3I/zU/EQi/V/mLdg/TahE+sn8KbQXoE6xU70Cfvn7dOsVT9l83fQPpVe4RHrSvhTuOQr2OyhX2VeEf2oqGX++QNxTFxU5P2VeDddJvgtrPfWjLwH+oh4pMkq08MvArH3rFT2zvX0jnnHc/L3juh1MjsWdfzcXby7n8OS4oiU+kjdRFoLgRKbPnF+yC1V0kS0XcqePF1fcGK4vpH/pl8tz8pNyP81PxEIv1f5i3YP02oRPrJ/Cm0F6BOsVO9An75stS8Nx8pC8REf6CPYOetKFlxFLL8Rd9AMy8KVapMgjIf6yHa/KWzu/zCFT9OyX0hF9dH6De3z/o4iw5/ieJQsblYngxLfCaVqDkHVJKkQ61SOJP/AE1eEEttRKSqyRlj3TUsyVEKL6Jvwn2BUZHyqh6+ueWf1z+yQIklIRblSzTPZLfOt+gJSTlSdkjLcfrb4x9Mjku/lKIeClPeVrr3C8RbsZclVWpLpEHm1f6jByZS3YCHK7KpZiMYl4aXa/kMv0tETJZJsko/IQJp+q3WHyWPvkgql1P7triOUzdJNaN+jYOWQpEoStJJTxWQiJhIRSHkXD3xHaGm6oVGSRKURLdQ+REkvDJZ7w0VJqYmKKtsOqdIil80KiY2EUtw7n0iJCLwFZBREDCGldw5XESGXgOyEN1UqUUMmThPJeIy6O6tVSGN9hnOEREoirD8ASyuAKKYTcJbiZSLjlCHI2H7keOWubr66Tl3K536GIKa6krPL4QaYZso+E+ynhlyFOIGmMqNFNL8Bf8AoEipNRnWjVccWk1dhDuv+JIgzNVk2yVKo+M8XIEMw6CbaRYJJFuVlSqmFFkaJd8N4kkR+CQKiY2DlcOxYWiQi8F0Ih3amlFMIKRMrqUqIvBLKG1xLW8OmXCbrq6t5dyqL608FS6yHs/6d3sybjX8tqf3dXS130xIrQkomBJDKDlS2haZPeG34aEU262cqTJxHaGm6o1HQSTVIt1D5FWl4ZLI3upNTExRGmXfVOkREfgrQqJjYQ1uH/8AkRIReArIKIgoQ0ruGRrRIZeA7IaaqlUkmEHPeS+UhWPs99WwVSEwpmU83krPkClrg1KWo5TM3U2fzBphoIlsqOU21rTJx3Q5/Mqn9w1slae/Euu/+ob/xAAuEAABAwEFCAMBAAMBAQAAAAABABHwITFBobHBEDBRYXGB0fEgcJFgQFDhkID/2gAIAQEAAT8h/wDuQiDmxQlRGwUfgUfgUfgUfgUfgUfgUfgUfgUfgUfgUfgUfgUfgUfgUfgUfgUfgUfgUfgUfgUfgUfgUfgUfgUfgUfgUfgUfgUfgUfgUfgUfgUfgUfgUfgUfgUfgUfgUfgUfgUfgUfgUfgUfgUfgUfgUfgUfgUfgUfgUfgUfgUfgUfgUfgUfgUfgUfgUfgUfgUfgUfgUfgUfgUfgUfgUfgUfgUfgUfgUfgUfgUfgUfgUfgUfgUfgUfgUfgUfgUfgUfgUfgUfgUfgUfgUfgUfgUfgUfgUfgUfgUfgUfgUfgUfgUfgUfgUfgUfgUfgUfgUfgUfgUfgUfgUfgUfgUfgUfgUfgUfgUfgUfgUfgUfgUfgUfgUfgUfgUfgUfgUfgUfgUfgUfgUfgUfgUfgUfgUfgUfgUfgUfgUfgUfgUfgUfgUfgUfgUfgUfgUfgUfgUfgUfgUfgUfgUfgQJ2ELkLMys1TtaOR3DcsOdCdkkKKEqEqEqEqEqEqEqEqEqEqEqEqEqEqEqEqEqEqEqEqEqEqEqEqEqEqEqEqEqEqEqEqEqEqEqEqEqEqEqEqEqEqEqEqEqEqEqEqEqEqEqEqEqEqEqEqEqEqEqEqEqEqEqEqEqEqEqEqEqEqEqEqEqEqEqEqEqEqEqEqEqEqEqEqEqEqEqEqEqEqEqEqEqEqEqEqEqEqEqEqEqEqEqEqEqEqEqEqEqEqEqEqEqEqEqEqEqEqEqEqEqEqEqEqEqEqEqEqEqEqEqEqEqEqEqEqEqEqEqEqEqEqEqEqEqEqEqEqEo8cRa8p7ocjcWFzhYP9LZW5jgs4WD/AEtkncxwWcLB/pbJO5jgs4WD/S2SdzHBZwsH+lsk7mOCzhYP9LZJ3McFnCwf6WyTuY4LOFg/0tkncxwWcLB/pbJO5jgs4WD/AAf6Qd9mSdzHBZwsH+Bq6MyMHYG2gUd1Ud1Ud1Ud1Ud1Ud1Ud1Ud1Ud1Ud1Ud1Ud1Ud1Ud1Ud1Ud1Ud1Ud1Ud1Ud1Ud1Ud1Ud1Ud1Ud1Ud1Ud1Ud1Ud1Ud1Ud1Ud1Ud1Ud1Ud1Ud1Ud1Ud1Ud1Ud1Ud1Ud1Ud1Ud1Ud1Ud1Ud1Ud1Ud1Ud1Ud1Ud1Ud1Ud1Ud1Ud1Ud1Ud1Ud1Ud1Ud1Ud1Ud1Ud1Ud1Ud1Ud1Ud1Ud1Ud1Ud1Ud1Ud1Ud1Ud1Ud1Ud1Ud1Ud1Ud1Ud1Ud1Ud1Ud1Ud1Ud1Ud1Ud1Ud1Ud1Ud1Ud1Ud1Ud1Ud1Ud1Ud1Ud1Ud1Ud1Ud1Ud1Ud1Ud1Ud1Ud1Ud1Ud1Ud1Ud1Ud1Ud1Ud1Ud1Ud1Ud1Ud1Ud1Ud1Ud1Ud1Ud1Ud1Ud1Ud1Ud1Ud1Ud1Ud1Ud1Ud1Ud1Ud1Ud1Ud1Ud1Ud1Ud1Ud1Ud1Ud1Ud1Ud125J3McFnCwf4DrYEbBVnIstU90U90U90U90U90U90U90U90U90U90U90U90U90U90U90U90U90U90U90U90U90U90U90U90U90U90U90U90U90U90U90U90U90U90U90U90U90U90U90U90U90U90U90U90U90U90U90U90U90U90U90U90U90U90U90U90U90U90U90U90U90U90U90U90U90U90U90U90U90U90U90U90U90U90U90U90U90U90U90U90U90U90U90U90U90U90U90U90U90U90U90U90U90U90U90U90U90U90U90U90U90U90U90U90U90U90U90U90U90U90U90U90U90U90U90U90U90U90U90U90U90U90U90U90U90U90U90U90U90U90U90U90U90U90U90U90U90U90U90U90U90U90U9025J3McFnCwf6WyTuY4LOFg/wBLZJ3McFnCwf6WyTuY4LOFg/0tkncxwWcLB/pbJO5jgs4WD/S2SdzHBZwsH+lsk7mOCzhYP9LZJ3McFnCwf6WyTuY4LOFg/wBLZJ3McFnCwf6WyTuY4LOFg/0tkncxwWcLB/pbJO5jgs4WD/S2SdzHBZwsH+lsk7mOCzhYP9LZJ3McFnCwf6WyTuY4LOFg/wBLZJ3McFnCwf8AmWxVu6OIAxIXunhe6eF7p4Xunhe6eFzTBPU7ZH/Ue6eF7p4Xunhe6eF7p4Rm6sTWh9N1kncxwWcLB/5pJio8gZzPXr8QgQIE5rai8WE8R/hkZNEeYbFvzwg9aDNQ+J+IQIECC6kSVkN2uZJ3McFnCwf+aSx3/HQNAnJFmZHPBETwaOjl2Xb4SAK0TxZMLCK9xJP5uonhu5mSdzHBZwsH/mksd+SKmztA6oHL3kNzAY/oBBxBXYHQLo3ADcIA8WfLY6eFRqt/4DEoJv2qFkI8EmeaPMiuH4qpXigciNjRizgfiWj2VOfRbDuha3MgMkBLTshqWCN+FbCHqh4Ylgbhiin/AJ9BCuAu4rzyDhB35WnclepT0SgApACDcCHVE6IA5lHlBbAeqKE/oCpIQanh7DNMJBLFDG4BcjYhJT4JyYs73TcdnoboiNhniBOrssuXgl4XZ681RB2wYuZFKOdNBbzFgXHiuA427Qh4W1KZ09NPVuJ5L0CLbKHYAPruInhu5mSdzHBZwsH/AJpLHfijkCkg0AREVMALG4Nbw/B4lzY/3th4k2k0tNVUPyQCEzEscMIKjgRdzQ/CHq4EOhcI6CuLN+IcOrFBiOAzvP42mtp6MAjppM4Zl+OLJ6TBmqcdge0d7lao94zgtBuKHi6EQJLMIAsJvfBMGB854prg4oKlwL6HY647uUkCOws4ogSL8AOIAx5NXkn21aKNHCBsT3FtEUCCYADS4MftegXEqiioYDsghog0ahvujQdbC4RJsDqC0xDEdkKSODsIHBQegxBIOCChBBW0GDgHAhF4oRDuSvLmC47IhYrNHDclQ1AO5wg0h4uPEniTamZBBuUDy3UTw3czJO5jgs4WD/zSWO/FbAhTbfwhkE4yCGsB+jHba+OhEDVA7h7A1CLEJoEwAFiflBN7AU/n4RTdQ2MLaShfCRck5JLyebP3TZKO90FkUfiuDmWZ+D8TsuQCgLQ4COSCnuLaoLCwlRmtj1AJPZMWUA9uIrowA7L1SvVKK3XNUijvyN+In9YmCJAseQbBB96ctg7hxWx3QOcIBySXAX3WG8rlWvIy79T7htRfAqB5bqJ4buZkncxwWcLB/wCaSx34pq6gBcA1Rgs2Uvx8CoN1eBo/hqTwovo5pVg9009qorgofjt2mw57i2qCASwr88qerwp0+DbCgayFqOw7283TI8M9ZULcuTG/bF8CoHluonhu5mSdzHBZwsH/AIj3D8v8JLHfilcQpVP7GqMrzHAtUZvvtJY5oELDNKCAhne9NJnPZOwwT8Bg24u3mTxAg1fq3BYrgofjt2mw57i2qAidhj38KGL3DcFURu+FDMPNbRw5tsCCQ8Fw4LVaeDFuKA3QBQyYD8hwS/giDMnTboKXE2ue1F8CrCNm6ieG7mZJ3McFnCwf4D+EZv8ACSx34tDEYOANhJPZCMzoDe0zPlxYIHAA6gHEHYOASC7uWi1hbuA/JNILuX5nmbTzKqZcma9lEv3CZEYCJqzQr3PDbbQm2BuXcgCe6dDrJUsMH/EIsrh+OyUBxehYOzEI4cdSSbnDY+mw3AbEOJbAOrN3QGyAOQu7TgSg4RcHBHEbDHgcgn0xeburAkJIMDGwWaMGpcXuRKoCDAAXpsCDKgTWDWnUjg4uCZqI5P4FM30sofmXIJA9lNVD+8Ngs1pEPxWiW6kInhu5mSdzHBZwsH/mksd+KAgBw1U80p+EtI5891/E1gO9P9Dt2RKKg1rXsqAe1wyGCwuI21hvJNpvblsdFN2R7l5DgjYo0TV2WD3Gllo6IKLQBqZwBcT3ATrD2QAKBtVObAL1bqO4JLsN7mpN6J2ASQ3AI++auOcwdiSWHJlcFSovAC9siUNWQBfKywOB/EYKAGphOuDVDsX5JtO/HWg90XFoklwwctYNhNvZCs6u6FCySx53R2ewLofHe8sClgAA4tJHV09/Q6Ihy6OUYqlYGWm8dVhZ0sFwTaXaiCOjtyT191jk2Me3sVSh485K4jYGuu3szIBCsAqqaYxkNdl2Je82NSr0d7qx32BBZmuOuwVByISTgigwpzevNFYJg5Ui0VLHPiRe6bTKQGW3YEz2ougTYRwcl3MGg9wiwRWAAPYYcyWCMHuoQbSqwLBZY7V3ETw3czJO5jgs4WD/AM0ljvzbSpxEupZciM8PwfA7EIKgh0enSt9SCRJYD+Q2M9q9bXrav9bWDIi7uYFetoi565gGy/Jn4gV7KCOBPGm17ECv6IzrjDQcP4NvraPOS5M2EHPcwK9bR5y3IBsL0Vx7AdVq+AAP4NzE8N3MyTuY4LOFg/8ANJY7/sWJ4buZkncxwWcLB/5pJqoghdztUcviAAAAHJbEXiwDgP8AWBAAAAPqTBbDdpmSdzHBZwsH/mWVF3ZhcYgfJKUpTdGlmpdsz/rUpSlJLOvUqG13WSdzHBZwsH+lsk7mOCzhYP8AS2SdzHBZwsH+lsk7mOCzhYP9LZJ3McFnCwf6WyTuY4LOFg/0tkncxwWcLB/pbJO5jgs4WD/S2SdzHBZwsH+lsk7mOCzhYP8AS2SdzHBZwsH+lsk7mOCzhYP9LZJ3McFnCwf6WyTuY4LOFg/0tkncxwWcLB/pbJO5jgs4WD/S2SdzHBZwsH+lsk7mOCzhYP8AS2SdzHBZwsH+lsk7mOCzhYP9LZJ3McFnCwf6WyTuY4LOFg+3tcSHcOx9vpCIiIiIiIiIiIiIiIiIiIiIiIiIiIiIiIiIiIiIiIiIiIiIiIiIiIiIiIiIiIiIiIiIiIiIiIiIiIiIiIiIiIiIiIiIiIiIiI/6lIKwwbck7mOCzhYPt73EhmTOPT6QiIiIiIiIiIiIiIiIiIiIiIiIiIiIiIiIiIiIiIiIiIiIiIiIiIiIiIiIiIiIiIiIiIiIiIiIiIiIiIiIiIiIiIiIiIiIiIiP+LxSudrJO5jgs4WD/S2SdzHBZwsH+lsk7mOCzhYP9LZJ3McFnCwf6WyTuY4LOFg/0tkncxwWcLB/pbJO5jgs4WD/AEtkncxwWcLB/pbJO5jgs4WD/S2SdzHBZwsH+lsk7mOCzhYP9LZJ3McFnCwf6WyTuY4LOFg/0tkncxwWcLB/pbJO5jgs4WD/AEtkncxwWcLB/pbJO5jgs4WD/S2SdzHBZwsH3omuAEIse3uvfl78vfl78gAK/N/px40AXLgTZ3L35e/L35e/L35c3E++bN/L5J3McFnCwffMm8CPWBHwaNGgimQR/pwWk0aJg+B4Pjo0aNAnpgfJwJvA4H+YDJO5jgs4WD75lBcG8eZSHDgxxA1P4gUsE/G0AbTzaxH97Uzi5APOiHekBWBYS34DsS6ft3RhbMFMbYcsHFvGy9waW6t2yO2g7S1As4LSeiIq3wtI+CImOHIYXM6juNo8UTUBPgFpPTYbXLAFLg6D5IeZx+f4BNlCo7qgiuFwkbAA9dhdkMYwuTlT3VDQAdwDYQRb/ROAyTuY4LOFg++ZTHBuwZi4lVwXlcO54EeJ52khrWC/Eq3VHY4r3H6KpgaOOGDgPaSANvDmjDEgJN5ZbVowgHsnISoKN3bkWU68thUHwmAdgUwSCslAIZQWu49bAo+M0P0F/YXoBBrBkABsaLSOFgs5klF/bkMrIgGytuXr0IutTih1Bg8ORBBvtZ6Jkj9doh2BNU4rwQqMgdCJBqC9U2U6VxXOLP0bq4CwthYHqAGdwgRaV8BzA8WvdFEkBr2LPyo7ISG3oRDUbj0A4ca7DqEDVA6jmmgTD5StLXsGQFYYABRh0/onFZJ3McFnCwffMpjg3VwEJawE6IITr9mFIK3AC3Bm0H5ATg+GzitqVxPMbQJwDwDAeg9aj0DbfO1NgzhdjUgLRV2wWrkMj/Ez2pugAN2tIrElMCpvqbdXgLB/1NsZhrTnsPxn6Vy4vjXwxBsoEDLMLamDIC7gBjaV6Bnb+jcVkncxwWcLB98ymODdCs38ck4ErkMPoE6tuDSg+GzituVxLYBLAo2qdxGFik90U90U90VHgmgQ3OB8nAtSBQLFiGog3iAqzy1x2f8ADYZqUBi1tcHiwdwgADCgFn9G4rJO5jgs4WD75lMcG6sQehKjMhA8MIRtYNKD4bOK25XG8xsC06IwQcQ8w4xAbtwW1evAdH6pLhNvqtY9SzuQxnIORRygeQAHT+kOKyTuY4LOFg++ZTHBuml2Mc2DGRBbBq732HcHqLbQ92rGpdT0AH6RxUHw2QJJcC9BqCTG4FxvwjY6dbFtqDugGLcU0Y41AQk4P3ZYWkqgPGEQjXOEy0neXMGm0rIGcoVa8rQvrsGC6ACnp8RvjNcP2zuqjIA7xxx1Dg9lrgoI/GO3+M4pzNuUgAON3T+LRRRRRRRRRRRRRRRRRRRRRRRRRRRRRRRRRRRRRRRRRRRRRRRRRRRRRRRRRRRRRRRRRRRRRRRRRRC4inEMCvXayTuY4LOFg++ZTHBuiGMbEIF3ea7a7iWDFC4MUffOgg9mVXR5zJ5CBX9RqxgICxxcDW6gqBaVB8NloCTQdiQI7F0Iqdd8SPA1ha/9dgqeXGYegAsUyc3vaLCL2CxzeSglEotLxqwKmzBA74A7EGqWZ+gonS+oG4XhXqOyEidDAD8TsP8AoLBm2PqJPyLE6P3iG+XsCtTXkQj7Uzf0AWAalH/CJ3TmgyG8wxIgT8AT5XDg/UEWs9hv+NZAQdjGGB0CAYAAAU/xnFN3jS1yWIvB4/xcGDBgwYMGDBgwYMGDBgwYMGDBgwYMGDBgwYMGDBgwYMGDBgwYMGDBgwYMGDBgwYMGDBgwYMGDBgwYMGDBgwYMGCcbQ2HcgLgODbkncxwWcLB98ymODd30RiHVEx1mATijEH9KvcKtyWATg+G261ZIg7oQW7MmQn4hcOwCtZAhiwxzTYWzF11iqe522kwkrp53HqQUHtDUYD+CUfkO1teoqnvsN+Y2gYMKABYBsDBT1bl6/hAMAMBWt23keqABEeg0G4cpm2hnT+luKyTuY4LOFg++ZTHBvXFBcdtrC024p1wwQCAqABqzsXLWJjzflExa1qmxVD6xfMeBvBqKH/AYqMQehRheeCNTyrAN9rseBu6Ik09kJhhexyVU+sSxLaXU6D+lcVkncxwWcLB98ymODetSqWVnazilgUd0Ud0TlDFAWtYX0/wbZgx0+5DoAsDAWAD+mcVkncxwWcLB99SCgpQAAbFTLVTLVTLVEgJKJP8A6cgukHkQ4zjoplqplqplqplqgYEGiT8WJj/zFZJ3McFnCwfe24HChKmGimGimGimGiasgcv9Ozby4BB+hUw0Uw0Uw0Uw0Uw0XTQA78/l8k7mOCzhYP8AS2SdzHBZwsH+lsk7mOCzhYP9LZJ3McFnCwf6WyTuY4LOFg/0tkncxwWcLB/pbJO5jgs4WD/S2SdzHBZwsH+lsk7mOCzhYP8AS2SdzHBZwsH+lsk7mOCzhYP9LZJ3McFnCwf6WyTuY4LOFg/0tkncxJny3/YQg+WptK98vfL3y98vfL3y98vfL3y98vfL3y98vfL3y98vfL3y98vfL3y98vfL3y98vfL3y98vfL3y98vfL3y98vfL3y98vfL3y98vfL3y98vfL3y98vfL3y98vfL3y98vfL3y98vfL3y98vfL3y98vfL3y98vfL3y98vfL3y98vfL3y98vfL3y98vfL3y98vfL3y98vfL3y98vfL3y98vfL3y98vfL3y98vfL3y98vfL3y98vfL3y98vfL3y98vfL3y98vfL3y98vfL3y98vfL3y98vfL3y98vfL3y98vfL3y98vfL3y98vfL3y98vfL3y98vfL3y98vfL3y98vfL3y98vfL3y98vfI3ljeiBYrTNuLjBYEHihSgCFqmKmKmKmKmKmKmKmKmKmKmKmKmKmKmKmKmKmKmKmKmKmKmKmKmKmKmKmKmKmKmKmKmKmKmKmKmKmKmKmKmKmKmKmKmKmKmKmKmKmKmKmKmKmKmKmKmKmKmKmKmKmKmKmKmKmKmKmKmKmKmKmKmKmKmKmKmKmKmKmKmKmKmKmKmKmKmKmKmKmKmKmKmKmKmKmKmKmKmKmKmKmKmKmKmKmKmKmKmKmKmKmKmKmKmKmKmKmKmKmKmKmKmKmKmKmKmKmKmKmKmKmKmKmKmKmKmKmKmKmKmKmKmKmKmKmKmKmKmKAzIDqjIuSNx2GHqPpiEIQhCEIQhCEIQhCEIQhCEIQhCEIQhCEIQhCEIQhCEIQhCEIQhCEIQhCEIQhCEIQhCEIQhCEIQhCEIQhCEIQhCEIQhCEIQhCEIQhCEIQhCEIQhCEIQhCEIQhCEIQhCDowDoP/E8kxAuwc4aggfqovJxQj2ghh6hUoBCgsco+ihEZCBORaZiyVLVgt7kNP1k7olDNjbV7hlbnxmFHwIeIHDv5qFwt7y8U8BdBdqrCXwCcjF4CBBFKj4UBFQuXkOHM0TCq4ZvUTHo4rxrEIngGykfAgqCfytZEW09UcIauPsECqLk4I5bCuBDbNxdnMzNig4QI1hxARUKFDrUTKhwC58D3b5HEh2McaAwVof0IUlhFJcAhybBggvrQJ2sdDbOWJWNBZGZW/8AAGevIig0HUA6x+woS4YSgjjkLWD2cqWwbScLA58lcjA3E2NzHIEWko5FVoburKChGpwM0S3FAVcGEAhxYUBh+ITGIDwWKHiFIEgxR3N39ga48UFQHcj8Iat+xs0YAbsVRCt0jwP2kcQbOlhB4vLogwr0sCRwYjgyp5Bc2Bj+H/SFR4hSBQMX7sDMpgYHQqgrw4k5y64mlLGaB77At56VHAA8m2NEk1sALSg1FUa1+T0HUOFz7IwDbYYpX/SMv0F0CjLbtejrR34u+wPoRHFmHlV+ocQ5Zqw9wzJgtsndnu7WfAAMoUWAAtKK1wW13G94gBHhzlQnH4f1tIBAJoC0M4/GP6UA4omDsCdHwoc+R5oZCqwkkmsD38x72pv+p57CXXkOK3joSTGa1Tqo/aDuEI8bNAGyb4pJ8NgJrmtvRzzBavB+Sc6L+f2DZTomL2o/WFcQDFPILml1oAv+/IBWNUE6e6pWxYOhPwLaWSa4uD+xvcBwIBxFW46SzoB8WUxLYure4zJxPA4XLOVTv2+WQy8A1RV/MARS1bUjjMByAuz4XDNIAi/a8MPxQOr+Tyfyzt8BMRz/AAwBdJ+64HF2IBRUrx0E6kT60vJHAN6Ttm+KSfDZhNIYz4oxZVd6oDP+wsp0TF7UprdFQJ0RcggAXHP4CUPiArDVIgvISB+VPZVxuGD1WzZqp5qIJh+px7h13iuO4+QfZClmHERQvc8x3GB2/BA3E/vYg3dPge2Vx0/ALttKNwUIcEEGzCOXx0gYjn+GAdFps8LMIQdMVHAFv6378Jviknw/s7KdExaXQPguwncp1OQ0KML9J2c39LQhPthxbTeoJFByJ47QKvEFt4qeSGPQXH/wEoGncAd3noAqoHrA17leb7z2AAjUUsFi1gOAx/GR7VntQzmhnrk+UYvD8xlHPF/7B6/DyskQwbjL9KexlokKn6IfvsaopjiuHcsFWucgVSJLl+Zu6D46QMRz7SFw4Uw/U6XpSQbMUgnomNtBqtuOo2noOB+E3xST4f2dlOiOyJxzpqJdmP6icOYVA4aFlMU0ea4EsO8gDfrkcU20AM66GgPeSWI3GM8gBZfyrcmxfcKoL2DjyPJA6BMAA22qY3ZAuitzgvWrT5PLiD9II4Atc7Avw8fc45wh38qsbwAJDOG6pI2BAWMzxMJ5EnUL7cUyALfjpAxHOn600ESOwkGhCAUHpZKJ2IUoeQWSGw7ah01GHUB/jN8Uk+H9nZTomL3CArOAgkGIIRGTVLcb17Mm5qw8Ll3Qd7HRra7QEOCvwxZXbQZ4MPygNHHmXBx+EMWSJcJmYH4fBsvSOrEIMJIACpeWX4kWQEATg8lU9BeAb4ciOmQ+WkDEc+5wTfFJPh/Z2EaJi9ygKxGtdNRWRcSgIse0vqQPcFF3YLOVvDnA7RDXXjENA1jAR2CISQgBcUD9+L4gCyLgUdqkpNQwgggaa+gNh3JmOh/y206Oztg4HEuCumhcKx0J1Y7QrS9rOVPc/wAtIGI59zAm+KSfD+zOZpLqEcf0j3MOWvQ+QZ8SZvAGAa/iBEMGZ5DEc9tp+nlQX9bXR+ACrTBBW/4AsPI3sEGHqB2PCDkqx7z5FsBwV+Z7HL8OLXMatUQhgXcBxG05ZwtzxjyG0pnQmIau9Dje1g7ITQJgAGbZbrIAdjZ0G0KLAIuOykb35z5vcyekCu6VyT1ZwOqZmazYFCQZhvPiBRoGIT7yDN+P+bXMOY7gAABmfxBrRyHIgZ9wIcwGiC9gk4kjsivgsMXH/l/ZN1kw1MM1Da/VDpVMmeTPaUW0r0ito4uCcwdRhWqRbg/wI1IkKCuLgT+qk6OguQLIrra6BNYZIvQLYoiRKRcYBRnE167CHDGoKvn+pltZFOHXkh3tAFm1gGz1BVxxZW5ailRXvsCQENnRnALkdFgxN/UNbHsBuqNgUKEJzFlRyCGm4uQDu4TlTdhyxDk6nBCR5RQA2DYjKsM2rE3Xi1EiisAVyAXfKbfrxysBynbvRNufLRzgyhRAIY1CZpEGYSXVHB3cdjKfg7YbNba9bOCOGUDwPEu8lj4FqsC5CjHQoMhYJO1qkW4A1TUCQchtOBN14tTSiwKFyBZFdeKbYpwuCLqex86SOa8alhbf8ig+AIf51AfoKKDwWyRtJK1jXPu4GeCwTHo14d3ssan7/wCQ3//aAAwDAQACAAMAAAAQAAAAAAAAAAAAAAAAAAAAAAAAAAAAAAAAAAAAAAAAAAAAAAAAAAAAAAAAAAAAAAAAAAAAAAAAAAAAAAAAAAMAAAAAAAAAAAAAAAAAAAAAAAAAAAAAAAAAAAAAAAAAAAAAAAAAAAAAAAAAAAAAAAAAAAAAAAAAAAIAAAAwwwwwwwwwwwwwwwwwwwwwwwwwwwwwwwwwwwwwwwwwwwwwwwwwwwwwwwwwwwwwwwwwwwwwwwwwwwoAAAAAAAAAAAAAAAAAAAAAAAAAAAAAAAAAAAAAAAAAAAAAAAAAAAAAAAAAAAAAAAAAAAAAAAAAAAAAAAoAAAAAAAAAAAAAAAAAAAAAAAAAAAAAAAAAAAAAAAAAAAAAAAAAAAAAAAAAAAAAAAAAAAAAAAAAAAAAAAoAAAAAAAAAAAAAAAAAAAAAAAAAAAAAAAAAAAAAAAAAAAAAAAAAAAAAAAAAAAAAAAAAAAAAAAAAAAAAAAoAAAAAAAAAAAAAAAAAAAAAAAAAAAAAAAAAAAAAAAAAAAAAAAAAAAAAAAAAAAAAAAAAAAAAAAAAAAAAAAoAAAAAEMMMMMMMMMMMMMMMMMMMMMMMMMMMMMMMMMMMMMMMMMMMMMMMMMMMMMMMMMMMMMMMMMMMMMMMMAoAAAAAQAAAAAAAAAAAAAAAAAAAAAAAAAAAAAAAAAAAAAAAAAAAAAAAAAAAAAAAAAAAAAAAAAAAAAAAAAoAAAAAAAAAAAAAAAAAAAAAAAAAAAAAAAAAAAAAAAAAAAAAAAAAAAAAAAAAAAAAAAAAAAAAAAAAAAAAAAoAAAAAAAAAAAAAAAAAAAAAAAAAAAAAAAAAAAAAAAAAAAAAAAAAAAAAAAAAAAAAAAAAAAAAAAAAAAAAAAoAAAAAAAAAAAAAAAAAAAAAAAAAAAAAAAAAAAAAAAAAAAAAAAAAAAAAAAAAAAAAAAAAAAAAAAAAAAAAAAoAAAAAAAAAAAAAAAAAAAAAAAAAAAAAAAAAAAAAAAAAAAAAAAAAAAAAAAAAAAAAAAAAAAAAAAAAAAAAAAoAAAAAAAAAAAAAAAAAAAAAAAAAAAAAAAAAAAAAAAAAAAAAAAAAAAAAAAAAAAAAAAAAAAAAAAAAAAAAAAoAAAAAAAAAAAAAAAAAAAAAAAAAAAAAAAAAAAAAAAAAAAAAAAAAAAAAAAAAAAAAAAAAAAAAAAAAAAAAAAoAAAAAAAAAAAAAAAAAAAAAAAAAAAAAAAAAAAAAAAAAAAAAAAAAAAAAAAAAAAAAAAAAAAAAAAAAAAAAAAoAAAAAAAAAAAAAAAAAAAAAAAAAAAAAAAAAAAAAAAAAAAAAAAAAAAAAAAAAAAAAAAAAAAAAAAAAAAAAAAoAAAAAAAAAAAAAAAAAAAAAAAAAAAAAAAAAAAAAAAAAAAAAAAAEMMAAAAAAAAAAAAAAAAAAAAMMIAAAAAoAAAAAAAAAAAAAAAAAAAAAAAAAAAAAAAAAAAAAAAAAAAAAAAAsAAAAAAAAAAAAAAAAAAAAAAgAIAAAAAoAAAAAAAAAAAAAAAAAAAAAAAAAAAAAAAAAAAAAAAAAAAAAAAA8AAYkMAAgQsI4k8c8cQkoAAAAoAAAAAoAAAAAAAAAAAAAAAAAAAAAAAAAAAAAAAAAAAAAAAAAAAAAAAA8AA8AQgA8cAooEgAA0IAAAAAAoAAAAAoAAAAAAAAAAAAAAAAAAAAAAAAAAAAAAAAAAAAAAAEAAAAAAAA8AAMIAIAE8AogQIAAssEIAAAAoAAAAAoAAAAAAAAAAAAAAAAAAAAAAAAAAAAAAAAAAAAAAAAAAAAAAAA8AAAogAMQwYAkQU4QIgAggAAAoAAAAAoAAAAAAAAAAAAAAAAAAAAAAAAAAAAAAAAAAAAAAAAAAAAAAAA4AAAAAAAAAAAAAAAAAAAAAAAAoAAAAAoAAAAAAAAAAAAAAAAAAAAAAAAAAAAAAAAAAAAAAAAAAAAAAAAgAAgAAAAAAAAAAAAAAAAAAAAAQAAAAAoAAAAAAAAAAAAAAAAAAAAAAAAAAAAAAAAAAAAAAAAAAAAAAAAAAAAAAAAAAAAAAAAAAAAAAAAAAAAAAAoAAAAAAAAAAAAAAAAAAAAAAAAAAAAAAAAAAAAAAAAAAAAAAAAAAAAAAAAAAAAAAAAAAAAAAAAAAAAAAAoAAAAAAAAAAAAAAAAAAAAAAAAAAAAAAAAAAAAAAAAAAAAAAAAAAAAAAAAAAAAAAAAAAAAAAAAAAAAAAAoAAAAAAAAAAAAAAAAAAAAAAAAAAAAAAAAAAAAAAAAAAAAAAAAAAAAAAAAAAAAAAAAAAAAAAAAAAAAAAAoAAAAAAAAAAAAAAAAAAAAAAAAAAAAAAAAAAAAAAAAAAAAAAAAAAAAAAAAAAAAAAAAAAAAAAAAAAAAAAAoAAAAAAAAAAAAAAAAAAAAAAAAAAAAAAAAAAAAAAAAAAAAAAAAAAAAAAAAAAAAAAAAAAAAAAAAAAAAAAAoAAAAAAAAAAAAAAAAAAAAAAAAAAAAAAAAAAAAAAAAAAAAAAAAAAAAAAAAAAAAAAAAAAAAAAAAAAAAAAAoAAAAAAAAAAAAAAAAAAAAAAAAAAAAAAAAAAAAAAAAAAAAAAAAAAAAAAAAAAAAAAAAAAAAAAAAAAAAAAAoAAAAAAAAAAAAAAAAAAAAAAAAAAAAAAAAAAAAAAAAAAAAAAAAAAAAAAAAAAAAAAAAAAAAAAAAAAAAAAAoAAAAAAAAAAAAAAAAAAAAAAAAAAAAAAAAAAAAAAAAAAAAAAAAAAAAAAAAAAAAAAAAAAAAAAAAAAAAAAAoAAAAAU88888888888888888888888888888888888888888888888888888888888888888888888AAoAAAAAAAAAAAAAAAAAAAAAAAAAAAAAAAAAAAAAAAAAAAAAAAAAAAAAAAAAAAAAAAAAAAAAAAAAAAAAAAoAAAAAAAAAAAAAAAAAAAAAAAAAAAAAAAAAAAAAAAAAAAAAAAAAAAAAAAAAAAAAAAAAAAAAAAAAAAAAAAoAAAAAAAAAAAAAAAAAAAAAAAAAAAAAAAAAAAAAAAAAAAAAAAAAAAAAAAAAAAAAAAAAAAAAAAAAAAAAAAoAAAAAAAAAAAAAAAAAAAAAAAAAAAAAAAAAAAAAAAAAAAAAAAAAAAAAAAAAAAAAAAAAAAAAAAAAAAAAAAoAAAAAAAAAAAAAAAAAAAAAAAAAAAAAAAAAAAAAAAAAAAAAAAAAAAAAAAAAAAAAAAAAAAAAAAAAAAAAAAoAAAAAAAAAAAAAAAAAAAAAAAAAAAAAAAAAAAAAAAAAAAAAAAAAAAAAAAAAAAAAAAAAAAAAAAAAAAAAAAoAAAAAAAAAAAAAAAAAAAAAAAAAAAAAAAAAAAAAAAAAAAAAAAAAAAAAAAAAAAAAAAAAAAAAAAAAAAAAAAoAAAAAAAAAAAAAAAAAAAAAAAAAAAAAAAAAAAAAAAAAAAAAAAAAAAAAAAAAAAAAAAAAAAAAAAAAAAAAAAoAAAAAAAAAAAAEAAAAAAAAAAAAAAAAAAAAAAIAAAAAAAAAAAAAAAAAAAAAAAAAAAAAAAAAAAAAAAAAAAoAAAAAAAAAAQwgAAAAEEEAAAAAIAAAMAAQwgoAAAAAAAAAAAAAAAAAAAAAAAAAAAAAAAAAAAAAAAAAAAoAAAAAAAAAAAAAAAAAEQIQIkoIgAkUoAAAAAoAAAAAAAAAAAAAAAAAAAAAAAAAAAAAAAAAAAAAAAAAAAoAAAAAAAAAAAAAAAAIUAAQEoAAoAAcAAAAAAoAAAAAAAAAAAAAAAAAAAAAAAAAAAAAAAAAAAAAAAAAAAoAAAAAAAAAAAAAAAQMAAkMkIEEMAA4AAAAAAoAAAAMMMMMMMMMMMMMMMMMMMMMMMMMMMMMMMMMMMMMgAoAAAAAAAAAAAAAAAAA4EAAgQQAAkAoAAAAAAoAAAAAAAAAAAAAAAAAAAAAAAAAAAAAAAAAAAAAAAAAAAoAAAAAAAAAAEMMAAAAgQAAAAAAAAAAAAAEMIoAAAAAAAAAAAAAAAAAAAAAAAAAAAAAAAAAAAAAAAAAAAoAAAAAAAAAAgAAAAAAAAAAAAAAAAAAAAAgAAgAAAAAAAAAAAAAAAAAAAAAAAAAAAAAAAAAAAAAAAAAAAoAAAAAAAAAAAAAAAAAAAAAAAAAAAAAAAAAAAAAAAAAAAAAAAAAAAAAAAAAAAAAAAAAAAAAAAAAAAAAAAoAAAAAAAAAAAAAAAAAAAAAAAAAAAAAAAAAAAAAAAAAAAAAAAAAAAAAAAAAAAAAAAAAAAAAAAAAAAAAAAoAAAAAAAAAAAAAAAAAAAAAAAAAAAAAAAAAAAAAAAAAAAAAAAAAAAAAAAAAAAAAAAAAAAAAAAAAAAAAAAoAAAAAAAAAAAAAAAAAAAAAAAAAAAAAAAAAAAAAAAAAAAAAAAAAAAAAAAAAAAAAAAAAAAAAAAAAAAAAAAoAAAAAAAAAAAAAAAAAAAAAAAAAAAAAAAAAAAAAAAAAAAAAAAAAAAAAAAAAAAAAAAAAAAAAAAAAAAAAAAoAAAAAAAAAAAAAAAAAAAAAAAAAAAAAAAAAAAAAAAAAAAAAAAAAAAAAAAAAAAAAAAAAAAAAAAAAAAAAAAoAAAU888888888888888888888888888888888888888888888888888888888888888888888888884oAAAgAAAAAAAAAAAAAAAAAAAAAAAAAAAAAAAAAAAAAAAAAAAAAAAAAAAAAAAAAAAAAAAAAAAAAAAAAAAAAAAAAAAAAAAAAAAAAAAAAAAAAAAAAAAAAAAAAAAAAAAAAAAAAAAAAAAAAAAAAAAAAAAAAAAAAAAAAAAAAAAAAAAAAAAAAAAAAAAAAAAAAAAAAAAAAAAAAAAAAAAAAAAAAAAAAAQ8UMUQ8IAEgIAwAAcAgQsE48wIAAAAAAAAAAAAAAAAAAAAAAAAAAAAAAAAAAAAAAAAAAAAAAAAAAAAAAA8AUEAUoYAAQosoAIAUAUYA8AAAAAAAAAAAAAAAAAAAAAAAAAAAAAAAAAAAAAAAAAAAAAAAAAAAAAAAAA4AYUg8AoAAQIoIUgAUA4AA8AAAAAAAAAAAAAAAAAAAAAAAAAAAAAAAAAAAAAAAAAAAAAAAAAAAAAAAAA8AAUQoIkIAUggkIAAUAAAA8AAAAAAAAAAAAAAAAAAAAAAAAAAAAAAAAAAAAAAAAAAAAAAAAAAAAAAAAE0IAMgUkQAE0EME4UMAsAAEMAAAAAAAAAAAAAAAAAAAAAAAAAAAAAAAAAAAAAAAAAAAAAAAAAAAAAAAAAAAAAAAAAAAAAAAAAAAAAAAAAAAAAAAAAAAAAAAAAAAAAAAAAAAAAAAAAAAAAAAAAAAAAAAAAAAAAAAAAAAAAAAAAAAAAAAAAAAAAAAAAAA/8QAFBEBAAAAAAAAAAAAAAAAAAAAwP/aAAgBAwEBPxAqB//EABQRAQAAAAAAAAAAAAAAAAAAAMD/2gAIAQIBAT8QKgf/xAAuEAABAgQEBQQDAQEBAQAAAAABABEhMWHxQVGh8BBwcYHBIDBgkVCx0UDhkID/2gAIAQEAAT8Q/wDuRnryRjG6BYCcls000000000000000000000000000000000000000000000000000000000000000000000000000000000000000000000000000000000000000000000000000000000000000000000000000002Zmpu5kgOlSd8LL2I/obEpsSqEqEqEqEqEqEqEqEqEqEqEqEqEqEqEqEqEqEqEqEqEqEqEqEqEqEqEqEqEqEqEqEqEqEqEqEqEqEqEqEqEqEqEqEqEqEqEqEqEqEqEqEqEqEqEqEqEqEqEqEqEqEqEqEqEqEqEqEqEqEqEqEqEqEqEqEqEqEqEqEqEqEqEqEqEqEqEqEqEqEqEqEqEqEqEqEqEqEqEqEqEqEqEqEqEqEqEqEqEqEqEqEqEqEqEqEqEqEqEqEqEqEqEqEqEqEqEqEqEqEqEqEqEqEqEqEqEqEqEqEqEqEqEqEqEqEqEqEqEPmNiAQY2N15Pscv3lp+UGhkGn5QaGQaflBoZBp+UGhkGn5QaGQaflBoZBp+UGhkGn5QaGQafk7oZBxA0/u6GRNDrkHGMIAPQch69evXr169evXr169evXr169evXr169evXr169evXr169evXr169evXr169evXr169evXr169evXr169evXr169evXr169evXr169evXr169evXr169evXr169evXr169evXr169evXr169evXr169evXr169f2a9evXr169euOIaf3dDI8HpgxASjESap5Dnz58+fPnz58+fPnz58+fPnz58+fPnz58+fPnz58+fPnz58+fPnz58+fPnz58+fPnz58+fPnz58+fPnz58+fPnz58+fPnz58+fPnz58+fPnz58+fPnz58+fPnz58+fPnz58+fPnz58+fPnz58+fPnz58+fPnz/uHz58+fPnz58NPyg0Mg0/KDQyDT8oNDINPyg0Mg0/KDQyDT8oNDINPyg0Mg0/KDQyDT8oNDINPyg0Mg0/KDQyDT8oNDINPyg0Mg0/KDQyDT8oNDINPyg0Mg0/KDQyDT8oNDINP8i0MpEBYRtdQO/q0aNGjRXPqzb10/xujRo0aDxHHpMCJoZF7Yaf5HoZNP3or2UyMQ+/SaNGjTEJdit4THz/AMbmT3cQCbMnAe+TIo2Pw6a/tCxo0aPWGkAifcAw0/zrQyanGrbbQJiTkjj7g8HGxAM0JjHvPo2Zob88Nw2ICxA0cva73n9wuGn+U6GTU5t+v+YEk+EvtFRwShPvmhB8dwqxzSWHgRUiOECl4C8cksSgYyTTnE0RnLoLczPLmDA9Ycygq0gszIwBHB7gkGBqbemKfQgXwIjwKRjJHAEQKVxCpUQThwDb9CyVcc27fTEEg58DV7wYwEndhAxAIbsTGXQGj++HabRB8Ew/ab7OPmBJJwbgLjoHhJoksYdzCu4T6UmP6HAngCKYIJkPfhpjh3KGuBws88LIpcWiCCDTLDV4BjuWKYV30aWXYHmgoUAGcHDhsBjEYCZEGiNJ86AG4Mgf1aBviC2PsN7z+4XDT/KNDJqc306IGHJJyUWtDsaMT4ylmdSxbSBQAKZnISxKLxz/AN4WIMwYp+lFDzZPkQB9EmAYP9oJ0b8SYWIgkQRAEhiUM4c9sx5Awc7wAILaC4jlFgOILOiANIoRn0SFMzRCFlzZ4GWHcHNBDpmjvrcB5gJLiYcG2HA7zHscAMSMS7A4MIW5NtmKYnhQ4wWh4iqxCO1UhlgMSAL18B4144CINeLzJCRgYafsFC0iyxnAKxQ2hQADVnXqDGHAn28tJ0iQ55ZkXKJD9EGDoQQVjPotABGIR09NY4DwMwxDLRipKzakbbNNUHUmkLqUzFpFqsVIc9TTkcSSgjcmP2597z+4XDT/ACjQyanTbvSBp7RdpEVUIDHUE4tg5Rbsgj0CwUoGMULghvABIALLzzRtslvQPlCEjWRdqS637BcyFtQmEQ7REaoAXa3LDkQDiQJcAoPY87ANUek1wyqzieZGACIsVVBh57UCzADIccWfFChIxgoP5LloEbB0HYIHC04D4ns1MVwADOwUSPbMiXCO3p6NQNChejHu4edTHUe96/3vP7hcNP8AKNDJqc0EEef/AAfZGGd6JkjGaMCI/Saqi9A+4InX0F5envkT9rxFc1wy6MW1THMondrIPRNxBsAkhEBoWtkAQGEboUAPcfvT1/vef3C4af3dDIG+CJx/5/tTsAZVlMs7PpSNTxARCAESSi2MUv2AgEU9zOTGBz6HPsIKxIGP6op2aAGzncB7+14iua4Y0yb3CZ2xR3Np5gvnr6AKdxPbehMIjg8gJnH0YR5EOEoWg426RJP/AFHEU65XJzkdjOQye96v3vP7hcNP8R0Mg/zjU5kLYyJOBvWoxrHcWZVDkCImhIU3oR2QECOGaPGwBmHuMSxUT+C4E0RaxHJiQo7wDzADfd2RY9cnUrPhkZXBxMBBgXdbb9HIcEKMB0cAvMSyGFaB3Ib0Ijfh1sdjgwYX5gQgHSHD8EDyCxsAWb6zs8dYIZW5igfhh5eIIJg8KJtRqhhCOCzJBhAyAYhMhwwkESJjAQxzkjgAEcARR2boQYk7C4gMIDl0lKrkGCBFckOUmKxQzsiTIe6Q4CxT96UUQRizEjsftb3n9wuGn+UaGTU4OYrAIgQiakOcYIAjMIwoSBBrHkBUsEHZsU0ayUQPFjBpiKgJeJaWI+MQxwVFQy4aZCBmIkYhGImCs+D7HgHPEE2U6IfVMiHizDB02VUhZjEGJPhWFDGbs4F4lxKo1A5kERmGcn6QZycVGtyLCiGLqBYZZIC7iAROGcJDpgz4nxAqKEKTlhyigC0rhhRhzvEa+wmRLC+pDM4bYCZsEkPZzw0GRLMF6MIIFOBBHEYqK5ac8hEZIjwwaAnuKWkxnk4YZNio+4tJQSJS6jBqCyX1iXAfkITd6MEpy0uwLiBIBa/I9cQJpCQ/YIkcAhupZlDB4D2FFQ9kTtICd4DETvJwES57J9zvmBjMSbL1eFMiCa0hEFACT8r8JyRahRYaRGymn6vDi19wQ3gncIAm1m46sLI37xL7iGQAADAew3vP7hcNP8q0Mmp3luXqgozMpePubI9DcjzMI6I+GHKYVlnTL9kDgQAgHBz4lFO1NNyOSPMnDwKGxPMc4AHOAER82IlkSGc1PQBEa8YNpCjGT0PYc/byRE8DGfAqqLxlwOTvic4FVTOc4FU4cI6JbsjypcE5lpz7O95/cLhp+Smhk1O3vP7hcNP8j0MmnV0lbKZYh9elkyZMnZ9FVvGY+X4w0yZMjVhmxCB9wXDT/ItDKCD3Ha3uhHZbj/VuP9W4/wBW4/1bj/UZb/2ovTX/ABG4/wBW4/1bj/VuP9W4/wBR9rmKYkTdi9sNPyg0Mg0/KDQyDT8oNDINPyg0Mg0/KDQyDT8oNDINPyg0Mg0/KDQyDT8oNDINPyg0Mg0/KDQyDT8oNDINPyg0Mg0/KDQyDT8oNDINPyg0Mg0/KDQyDT8oNDINPyg0Mg0/KDQyDT8oNDINP7mhkcnLX4/fZurkgZmZmZmZmZmZmZmZmZmZmZmZmZmZmZmZmZmZmZmZmZmZmZmZmZmZmZmZmZmZmZmZmZmZmZmZmZmZmZmZmZmZmZmZmZmZmZmZnNNm37BO8XV6A0/uaGRTe9/z5d+jkgZmZmZmZmZmZmZmZmZmZmZmZmZmZmZmZmZmZmZmZmZmZmZmZmZmZmZmZmZmZmZmZmZmZmZmZmZmZmZmZmZmZmZmZmZmZmZmZlBj/FSdoJmXoDT8oNDINPyg0Mg0/KDQyDT8oNDINPyg0Mg0/KDQyDT8oNDINPyg0Mg0/KDQyDT8oNDINPyg0Mg0/KDQyDT8oNDINPyg0Mg0/KDQyDT8oNDINPyg0Mg0/wDm0MhEzCckIAnAPSCCCC6qGw/DpTy6GLhlPUAggggk6PEYd5/GMNP/AJ9DI1DJjAYgei1atXaZi2d+HkeCpnzxER/TNWrVqD0PsV8IJvjNwaf8HoZGnQgAZ8sWionBiELxXqIfaM7JgAjB2eioYo0K8YOSSmQmMU/1iSoHW67Lcf4hJZJyeDbsOyGnImRAB+5Durv/AIird+0F66fF7kkPPYZqEAJQl0Vbf9EP+TnkztR9DiwN5y06lCAE8M7oWwSYaRDxQKdDlFYkAbJcDqCMOF84qqPTAHkTBuBDJBREwQn4DwaZuCzwQBEQR8ji8Gn/AAWhlOASXFuEhm6nCJBG1kO0xEYZkPiDM9PD7Thv8TkwwcZTESxE0s85I4SULsLYSUSgiY62I8+OAqYjAQC+M/crTIwihkYjX0o0AwDBjxcYvsIPUJoxwepCND8mVAoiNEBZBr4GBKhooNSTAJggcwMHVAOkpgzQTFhDgnCSFX4DuI0vRQjzAhHgG7WWTmIZsEchgIJHKNkBQCBpq5FXVHAGRKezFhLCBIXNBCNXP2xHd2ZJ05miW++V9lATGPU7gBnEiLrHkLQIimHIfDuc4FjspmAhjJtYCAAwD5HFgNP+B0MpwA5ZGfRVqsg0pUIEfLTEfOy0IcBvsT7LSU+BOwqxNdmGYfaSTHDRAfaBl9Roc8EXpJFHkGIV+mUBMhMfOa6/eQiQeMTKP8cwfEmcHjDVTIhKyahxy2YR7prhgNEMHl64MJqMPFnDUBn8kXFgNP8AgdDKcAGYkvAWno3QgB+gwvVBKW35cfzc8xw55ZBHIDACXwkOXx9B8+f6udl0zlvVTjWz5GJ2BjAoJg+ADg94EQwiA4EmMMjhtMn2UFjYMA+SRYDT/gdDKcADk9PU0DJhDD4G/f1BKW35en8CcLhGZEcosxn7989tu2KAHBxD0YAFSCPMDlGFJn3csRjOPQ2PyXbFgNP+B0MpwAsZABMYHKkGHVDyakTAonzJnoDxAcBGS85wl8nxUh9ciyaALfyUL27K+d334ClTh423OJjmFBLSqz7JR4YctrIi7R4qn5WGA0jJdOOQbObZQM16QZnwOkD0JYD0sfX9AQcdh6TQxnASBcgZd9ChBCkfZyw1/wAyosTfvMwYzLsDytgeVsDytgeVsDytgeVsDytgeVsDytgeVsDytgeVsDytgeVsDytgeVsDytgeVsDytgeVsDytgeVsDytgeVsDytgeVsDytgeVsDytgeVsDytgeVsDytgeVsDytgeVsDytgeVsDytgeVsDytgeVsDytgeVsDytgeVsDytgeVsDytgeVsDytgeVsDytgeVsDytgeVsDytgeVsDytgeVsDytgeVsDytgeVsDytgeVsDytgeVsDytgeVsDytgeVsDytgeUegrA9Wkf16A0/4HQynABFA5BiCm9IaI0rGSYkMxmFVukgB7CDvUZWbvSGt3QjJ01Ccbj3BmhPEFKX7JYLhxQmiQWDpAyzIGDIAwmwBJGE3nqQieoIHK82Qg3AYMo4QgFEYEEgYRcDgpxazMHYR4RCiZxGRCcKxgmQiYBCjMZywoMOYQQyAlhy0ZIsOoCBnBlviDOWmSEHCA2OKRNYZLUTCR3achmoeagigijWKFYYEnKXM+MU3MQWD00cpV7VmgOgQc2YADAD/NFh7K3hhaZT4XjRo0aNGjRo0aNGjRo0aNGjRo0aNGjRo0aNGjRo0aNGjRo0aNGjRo0aNGjRo0aNGjRo0aNGjRo0aNGjRo0aNGjRjYvTMT0QjN6INP+C0MpwAIzmEn6DIjAzGCPYR2RFeCB92yZE57xqelrSfO45HFv+kgTR21gMVTMaVC2jgWJPPWBI67vnH7CsfTY9UqnbOqJZ0ghAQq8efN53x4PlSkgfC5kBwOGCQBchBUhg4hAp0RKARJJ4i2nUwbn9IFtGLNiHg+TKRYDT/hNDKcAmFg5lYN2WSBkRQ2f+KP8aOHGDIuAzKma/GIwMzSggXKRBgt4MjAMR/gNcCnR/pLEsmKgzf80DyXqcCfKCnjMXEABmABNAXnlMivc6DAHyaLAaf8JoZTgDLMJOUZNoojZDjfvwPUzrB4QCwA9B/h1iSyyoFHhmAD5PFgNP8A59DJcAXLPAyHo79+8KAMI5/4eaxtyr6UFnAtQenfv37w45iMRBAcg8TH4ygNP/m0Mo1TuusSPTevXrwId3+Hw62DIZsyJ9V69evXiTNbhvJ2Rmfv4wGn5QaGQaflBoZBp+UGhkGn5QaGQaflBoZBp+UGhkGn5QaGQaflBoZBp+UGhkGn5QaGQaflBoZBp+UGhkGn5QaGQaf2MTEgTPgwUWCrBVgqwVYKsFWCrBVgqwVYKsFWCrBVgqwVYKsFWCrBVgqwVYKsFWCrBVgqwVYKsFWCrBVgqwVYKsFWCrBVgqwVYKsFWCrBVgqwVYKsFWCrBVgqwVYKsFWCrBVgqwVYKsFWCrBVgqwVYKsFWCrBVgqwVYKsFWCrBVgqwVYKsFWCrBVgqwVYKsFWCrBVgqwVYKsFWCrBVgqwVYKsFWCrBVgqwVYKsFWCrBVgqwVYKsFWCrBVgqwVYKsFWCrBVgqwVYKsFWCrBVgqwVYKsFWCrBVgqwVYKsFWCrBVgqwVYKsFWCrBVgqwVYKsFWCrBVgqwVYKgBAfEMj7Cd4ZO3DHZRURURURURURURURURURURURURURURURURURURURURURURURURURURURURURURURURURURURURURURURURURURURURURURURURURURURURURURURURURURURURURURURURURURURURURURURURURURURURURURURURURURURURURURURURURURURURURURURURURURURURURURURURURURURURURURURURURURURURURURURURURURURURURURURURURURURURURURURURURURURURURURURURURURURURURWIxCE45PsWCF1FaStJWkrSVpK0laStJWkrSVpK0laStJWkrSVpK0laStJWkrSVpK0laStJWkrSVpK0laStJWkrSVpK0laStJWkrSVpK0laStJWkrSVpK0laStJWkrSVpK0laStJWkrSVpK0laStJWkrSVpK0laStJWkrSVpK0laStJWkrSVpK0laStJWkrSVpK0laStJWkrSVpK0laStJWkrSVpK0laStJWkrSVpK0laStJWkrSVpK0laStJWkrSVpK0laStJWkrSVpK0laStJWkrSVpK0laStJWkrSVpK0laStJWkrSVpK0laStJWkrSVpK0laStJWkrSVpK0laSmL5wP8AxP7G3cyXTd2SNpYoYJ2hcGIQn2qIj9BDkTzRBWBfoqI1z/m7Qj3XUU288UGHEkIsEkgOYGFM0c0VBYB6yxDCSBBxBUGApIk8g6oic39CJFgAytV492RxvQG5YAgFRokCRcegCFJQLDH+YDOITGB1Kk0bF4D4owe0EsAt29FF7fm3FnhMjxuu8gfWcM5iBOaEnw4JCY4PxQqOA2w9y79KAVIQXHZuuA7EIcXMDFyCsWGab1JDa4IoWsKXeCSLNqfkBS+oe8AV2A80FISFtEUBYzdYL4OxkGMsCIFTKMIiokIfQU80CCv0ZSFD2guCZH4xllk9MOC4AO8TE7YMQgy8tybLbuh4hs5hUXOkYrdvpKNkKFWRCjUA4bcyTMEaDUsSGyw9MM8GPA4n5hBRIcAzpku1DgRED8AUi/YSBkebiAIhwmcQXOMCmpssxGIcXTNUceAI5sfNN3IgE2nRXVAfv8KUdDEGEUz3AsEgxgXMQBwjIUlM3DLHyYBB4HJnEM0sMiMIfuMqkKcEsxEySBlB7FBoPltMA4mqPMFDkTcDM4iCBeaBhQuaY/KMLcRM5WTQFiyGggtAiYhxEHGZq6PYA4RouTOZOVQfQ0uy8ZyHIBNeaclZv6ByQCToh/OE4o70zhwGeplQQgD2UH9jwebzAuAzH+hEI9XeymCSQiCAIkCSEyjAQsYjzRIxQMeh8OmfhInAqZbROP0H7x4490y8IBN2HAa4nfdSY55/rD5o2EqcWlRfRQWmOJAWs6A478Nky+hE1N9FEexY9kbwR843wLQoJc2YdmRDJrGlSMYjAu+g+lA8hXCAzfX7kxRDJshig4whjMyTHhoiTs6UABGIzJZemjtDJxlihdB9HDncByB+uI0kAHEpZs9w6R9ih6eE3WVcFtxgRqogoMzQHeSfRs+a55AXaifQY90y8GTAUk5v6okJD4EDQ4SBgOHzRsIKQaJLRromCnStegHShwbJl9CIuiemSV0dk0LAawSCIncHfgaAGubO8xBOk+KOK6gd/UOHV9AOmFtR9v08NoiR83g4ftwdBIhHNvSCB2QKKF6GLV+UwuIJ1D7NKl6eOkxxg5D3HQK4AkXIL6+z0490y/NmwhnORQOZgBSphsGwdjCLJMJkOXALQtsFHHC9kyorwiG9nCKDlGhRdmT7ARAwAdsIMFqpx2oKHQITk5aYBkAvTTQRWSPGpFzg4JvAtlMaAzHq4l6sRsONpWSnL9i4Y0TgnmABG+ggQMiNvhIsRPsvoQ4PVhQzJH3/AGiFcRGkBmYQlI+rpUvYeBw2QOD779E1TpnbJnY8AYsFgxQ6KmL1ziDsGjA+kx7pl+aNhUBSXdaxoZiSg4DrEjs5eGucaH0hJGhqETGDmGMA3E2TKjKcf0BJBjueOSjExBJPs12aCdxuIK5KZkOsyGATx4BkBxAK7uydEO6Jx4PCfqAULHalmpcbvSfrhonBMZjYgEwpOJAGZAq6QxUA0BiQNsi4AvlmnaIlUBvOuDAQdUzNT6qVL0FM4+RBkKOSNQhzZIBsZcCxxgqCUxJqsoA9BEY+rHumX502E2TLwRRHajAg4EIsAYWCZpnN8MyxIRzyRy06kIqjidx7r74liqMYJUPT1QKCJFNDBesAUDv9Q8NE4ONbJALDiodxVPz0rhAx/oQKBQGOYEogogfh+iZzGDswa/Zf4KVL09j3TL86/ibJl4ogTCCeOTfRyCMQMVOKeC7g3b7aELdI4ZutB+wcTiU46IH6oE8WNiEVMU/67hLUIPpjUciDAepD2UWwEgLIS+biI4Jp+OMv+pxZQdiAkKMObUo+s7RtpV94JNiTpGBNYACP8BSpense6ZfmYIzo8SV7RF2IkuQAMauvqG9ssYjJGhJ+7JVvi4M/RPifQWZg1JHqnJQ2txBpceTk3GiUIBgE4Ix4FB+43R9XdCXIWNEFLSFdjDGYQAgZUQTsQQTB4uidzkIwXH6gIojEard2AboH4MguGGcASAHB5I2euaC57mcsOA4huAmTODJGauxGKC3GsGG1CdOzUMBwHLI1nFIGZc9kLWNuTt9vEMEhzxjnrrlJQD8cvvSz9hrrlM4LQhuRo35KeJA5Gbv8yPFO4Z0lsxjIJI2YJjmIdTMSRMCMAxdaQSQGIC0CCSCJaQYUBJYiyL0FykTuLmMzDDNCoKBAV0U+RORIjjZgsgzUM+gQxQw8a28AEWhO3AZggJiDih9w4roYT4JswAIPyJasEsOlkEfyU5hwsWYFEHBnU2+Q0u4IwCLiCmIieQHOcyXR9iBy+oN1IrfyIIhASXU0Nv2xc4TL5gwK70UVNXHgPnMOqFxGABOHocECQ0DTRgOczESSUCHJlkASIiIAEzhAxGwm1zHrkIyCCwIId05ahjRLsTiNHCDgbYStbKxxqXWok5JMQ+SDHlNh0jhK8dItIIcEGASEVKLNgCSxHoDIyLLPggSGYAn0iFC0ICmgF32SckkN8HteQTMCYZHIhCg62nEYBhs20WHpJYEhPHGIzJwconPDe+cpESS7rJn7/wAEoYMd2k4LBFS8poWBHCmn/wCQz//Z;" vertex="1" parent="1">
          <mxGeometry x="240" y="39.999999999999986" width="240" height="202.69" as="geometry" />
        </mxCell>
        <mxCell id="nkKxCPhpaLayalUOVt3N-9" value="" style="curved=1;endArrow=classic;html=1;rounded=0;" edge="1" parent="1">
          <mxGeometry width="50" height="50" relative="1" as="geometry">
            <mxPoint x="110" y="90" as="sourcePoint" />
            <mxPoint x="250" y="200" as="targetPoint" />
            <Array as="points">
              <mxPoint x="110" y="160" />
            </Array>
          </mxGeometry>
        </mxCell>
        <mxCell id="nkKxCPhpaLayalUOVt3N-10" value="" style="curved=1;endArrow=classic;html=1;rounded=0;" edge="1" parent="1">
          <mxGeometry width="50" height="50" relative="1" as="geometry">
            <mxPoint x="620" y="100" as="sourcePoint" />
            <mxPoint x="460" y="110" as="targetPoint" />
            <Array as="points">
              <mxPoint x="550" y="170" />
            </Array>
          </mxGeometry>
        </mxCell>
        <mxCell id="nkKxCPhpaLayalUOVt3N-11" value="" style="shape=flexArrow;endArrow=classic;html=1;rounded=0;entryX=0.432;entryY=0;entryDx=0;entryDy=0;entryPerimeter=0;" edge="1" parent="1">
          <mxGeometry width="50" height="50" relative="1" as="geometry">
            <mxPoint x="359.5" y="250" as="sourcePoint" />
            <mxPoint x="359.5039999999999" y="300" as="targetPoint" />
          </mxGeometry>
        </mxCell>
        <mxCell id="nkKxCPhpaLayalUOVt3N-12" value="" style="endArrow=none;dashed=1;html=1;dashPattern=1 3;strokeWidth=2;rounded=0;" edge="1" parent="1">
          <mxGeometry width="50" height="50" relative="1" as="geometry">
            <mxPoint x="77.5" y="404.04999999999995" as="sourcePoint" />
            <mxPoint x="167.5" y="354.04999999999995" as="targetPoint" />
            <Array as="points">
              <mxPoint x="78" y="354" />
            </Array>
          </mxGeometry>
        </mxCell>
        <mxCell id="nkKxCPhpaLayalUOVt3N-14" value="" style="shape=flexArrow;endArrow=classic;html=1;rounded=0;" edge="1" parent="1">
          <mxGeometry width="50" height="50" relative="1" as="geometry">
            <mxPoint x="270" y="378.53" as="sourcePoint" />
            <mxPoint x="190" y="378.53" as="targetPoint" />
          </mxGeometry>
        </mxCell>
      </root>
    </mxGraphModel>
  </diagram>
</mxfile>
